<mxfile host="app.diagrams.net" modified="2023-04-03T14:23:34.754Z" agent="Mozilla/5.0 (Macintosh; Intel Mac OS X 10_15_7) AppleWebKit/537.36 (KHTML, like Gecko) Chrome/111.0.0.0 Safari/537.36" etag="DEg8ZIQRnNzsGeQ9pWdI" version="21.1.2" type="device">
  <diagram id="Agj2iaRc8B9ZVRUpV6Ez" name="Page-1">
    <mxGraphModel dx="2000" dy="485" grid="1" gridSize="10" guides="1" tooltips="1" connect="1" arrows="1" fold="1" page="1" pageScale="1" pageWidth="1100" pageHeight="850" math="0" shadow="0">
      <root>
        <mxCell id="0" />
        <mxCell id="1" parent="0" />
        <mxCell id="TqFhUypoWMyye-5qDEuy-65" value="" style="endArrow=classic;html=1;rounded=0;strokeWidth=3;fontSize=25;" parent="1" edge="1">
          <mxGeometry width="50" height="50" relative="1" as="geometry">
            <mxPoint x="170" y="525" as="sourcePoint" />
            <mxPoint x="390" y="525" as="targetPoint" />
          </mxGeometry>
        </mxCell>
        <mxCell id="TqFhUypoWMyye-5qDEuy-115" value="&lt;font size=&quot;1&quot; style=&quot;&quot;&gt;&lt;span style=&quot;font-size: 26px;&quot;&gt;CCI&lt;/span&gt;&lt;/font&gt;" style="text;html=1;align=center;verticalAlign=middle;resizable=0;points=[];autosize=1;strokeColor=none;fillColor=none;fontSize=23;fontFamily=Times New Roman;" parent="1" vertex="1">
          <mxGeometry x="239" y="480" width="70" height="40" as="geometry" />
        </mxCell>
        <mxCell id="U-1qWZHeViYSrpXCQZCy-1" value="" style="endArrow=classic;html=1;rounded=0;fontSize=25;entryX=0.5;entryY=0;entryDx=0;entryDy=0;strokeWidth=2;startArrow=none;" parent="1" target="U-1qWZHeViYSrpXCQZCy-6" edge="1">
          <mxGeometry width="50" height="50" relative="1" as="geometry">
            <mxPoint x="613" y="472" as="sourcePoint" />
            <mxPoint x="83" y="472" as="targetPoint" />
          </mxGeometry>
        </mxCell>
        <mxCell id="U-1qWZHeViYSrpXCQZCy-2" value="" style="endArrow=classic;html=1;rounded=0;fontSize=25;entryX=0.5;entryY=0;entryDx=0;entryDy=0;strokeWidth=2;startArrow=none;" parent="1" target="U-1qWZHeViYSrpXCQZCy-4" edge="1">
          <mxGeometry width="50" height="50" relative="1" as="geometry">
            <mxPoint x="453" y="472" as="sourcePoint" />
            <mxPoint x="83" y="472" as="targetPoint" />
          </mxGeometry>
        </mxCell>
        <mxCell id="U-1qWZHeViYSrpXCQZCy-3" value="&lt;font face=&quot;Times New Roman&quot; style=&quot;font-size: 25px;&quot;&gt;&lt;b&gt;X&lt;sub&gt;1&lt;/sub&gt;&lt;/b&gt;&lt;/font&gt;" style="ellipse;whiteSpace=wrap;html=1;aspect=fixed;strokeWidth=2;" parent="1" vertex="1">
          <mxGeometry x="413" y="402" width="80" height="80" as="geometry" />
        </mxCell>
        <mxCell id="U-1qWZHeViYSrpXCQZCy-4" value="&lt;font face=&quot;Times New Roman&quot;&gt;&lt;b&gt;&lt;font style=&quot;font-size: 25px;&quot;&gt;X&lt;/font&gt;&lt;font style=&quot;font-size: 20.8333px;&quot;&gt;&lt;sub&gt;2&lt;/sub&gt;&lt;/font&gt;&lt;/b&gt;&lt;/font&gt;" style="ellipse;whiteSpace=wrap;html=1;aspect=fixed;strokeWidth=2;" parent="1" vertex="1">
          <mxGeometry x="413" y="562" width="80" height="80" as="geometry" />
        </mxCell>
        <mxCell id="U-1qWZHeViYSrpXCQZCy-6" value="&lt;font face=&quot;Times New Roman&quot; style=&quot;font-size: 25px;&quot;&gt;&lt;b&gt;X&lt;sub&gt;3&lt;/sub&gt;&lt;/b&gt;&lt;/font&gt;" style="ellipse;whiteSpace=wrap;html=1;aspect=fixed;strokeWidth=2;" parent="1" vertex="1">
          <mxGeometry x="573" y="562" width="80" height="80" as="geometry" />
        </mxCell>
        <mxCell id="U-1qWZHeViYSrpXCQZCy-7" value="&lt;font face=&quot;Times New Roman&quot; style=&quot;font-size: 25px;&quot;&gt;&lt;b&gt;X&lt;sub&gt;4&lt;/sub&gt;&lt;/b&gt;&lt;/font&gt;" style="ellipse;whiteSpace=wrap;html=1;aspect=fixed;strokeWidth=2;" parent="1" vertex="1">
          <mxGeometry x="573" y="402" width="80" height="80" as="geometry" />
        </mxCell>
        <mxCell id="U-1qWZHeViYSrpXCQZCy-8" value="" style="endArrow=none;html=1;strokeWidth=3;fontSize=25;curved=1;exitX=1;exitY=0.5;exitDx=0;exitDy=0;entryX=0;entryY=0.5;entryDx=0;entryDy=0;startArrow=none;" parent="1" target="U-1qWZHeViYSrpXCQZCy-6" edge="1">
          <mxGeometry width="50" height="50" relative="1" as="geometry">
            <mxPoint x="572" y="602" as="sourcePoint" />
            <mxPoint x="-37" y="432" as="targetPoint" />
          </mxGeometry>
        </mxCell>
        <mxCell id="U-1qWZHeViYSrpXCQZCy-9" value="" style="endArrow=classic;html=1;strokeWidth=2;fontSize=25;curved=1;exitX=1;exitY=1;exitDx=0;exitDy=0;startArrow=none;" parent="1" source="U-1qWZHeViYSrpXCQZCy-20" target="U-1qWZHeViYSrpXCQZCy-6" edge="1">
          <mxGeometry width="50" height="50" relative="1" as="geometry">
            <mxPoint x="-310.4644660939657" y="368.5355339060343" as="sourcePoint" />
            <mxPoint x="-37" y="432" as="targetPoint" />
          </mxGeometry>
        </mxCell>
        <mxCell id="U-1qWZHeViYSrpXCQZCy-10" value="" style="endArrow=classic;html=1;strokeWidth=2;fontSize=25;curved=1;entryX=1;entryY=0;entryDx=0;entryDy=0;startArrow=none;" parent="1" target="U-1qWZHeViYSrpXCQZCy-4" edge="1">
          <mxGeometry width="50" height="50" relative="1" as="geometry">
            <mxPoint x="583" y="472" as="sourcePoint" />
            <mxPoint x="-37" y="432" as="targetPoint" />
          </mxGeometry>
        </mxCell>
        <mxCell id="U-1qWZHeViYSrpXCQZCy-11" value="" style="endArrow=none;html=1;rounded=0;fontSize=25;exitX=0.5;exitY=1;exitDx=0;exitDy=0;entryX=0.5;entryY=0;entryDx=0;entryDy=0;strokeWidth=3;" parent="1" source="U-1qWZHeViYSrpXCQZCy-3" edge="1">
          <mxGeometry width="50" height="50" relative="1" as="geometry">
            <mxPoint x="-347" y="372" as="sourcePoint" />
            <mxPoint x="453" y="482" as="targetPoint" />
          </mxGeometry>
        </mxCell>
        <mxCell id="U-1qWZHeViYSrpXCQZCy-13" value="" style="endArrow=none;html=1;strokeWidth=3;fontSize=25;curved=1;exitX=1;exitY=0.5;exitDx=0;exitDy=0;entryX=0;entryY=0.5;entryDx=0;entryDy=0;" parent="1" edge="1">
          <mxGeometry width="50" height="50" relative="1" as="geometry">
            <mxPoint x="473" y="602" as="sourcePoint" />
            <mxPoint x="473" y="602" as="targetPoint" />
          </mxGeometry>
        </mxCell>
        <mxCell id="U-1qWZHeViYSrpXCQZCy-14" value="" style="endArrow=none;html=1;rounded=0;fontSize=25;exitX=0.5;exitY=1;exitDx=0;exitDy=0;entryX=0.5;entryY=0;entryDx=0;entryDy=0;strokeWidth=3;" parent="1" source="U-1qWZHeViYSrpXCQZCy-7" edge="1">
          <mxGeometry width="50" height="50" relative="1" as="geometry">
            <mxPoint x="-187" y="372" as="sourcePoint" />
            <mxPoint x="613" y="482" as="targetPoint" />
          </mxGeometry>
        </mxCell>
        <mxCell id="U-1qWZHeViYSrpXCQZCy-15" value="" style="endArrow=none;html=1;strokeWidth=3;fontSize=25;curved=1;exitX=0;exitY=1;exitDx=0;exitDy=0;entryX=1;entryY=0;entryDx=0;entryDy=0;startArrow=none;" parent="1" source="U-1qWZHeViYSrpXCQZCy-22" edge="1">
          <mxGeometry width="50" height="50" relative="1" as="geometry">
            <mxPoint x="-215.28427124746213" y="360.2842712474626" as="sourcePoint" />
            <mxPoint x="584.5355339060343" y="470.4644660939655" as="targetPoint" />
          </mxGeometry>
        </mxCell>
        <mxCell id="U-1qWZHeViYSrpXCQZCy-16" value="" style="endArrow=none;html=1;strokeWidth=3;fontSize=25;curved=1;exitX=1;exitY=1;exitDx=0;exitDy=0;" parent="1" source="U-1qWZHeViYSrpXCQZCy-3" edge="1">
          <mxGeometry width="50" height="50" relative="1" as="geometry">
            <mxPoint x="-318.71572875253787" y="360.28427124746213" as="sourcePoint" />
            <mxPoint x="482.46446609396617" y="471.46446609396617" as="targetPoint" />
          </mxGeometry>
        </mxCell>
        <mxCell id="U-1qWZHeViYSrpXCQZCy-18" value="" style="endArrow=none;html=1;strokeWidth=2;fontSize=25;curved=1;exitX=1;exitY=0.5;exitDx=0;exitDy=0;entryX=0;entryY=0.5;entryDx=0;entryDy=0;startArrow=none;" parent="1" source="U-1qWZHeViYSrpXCQZCy-4" target="U-1qWZHeViYSrpXCQZCy-6" edge="1">
          <mxGeometry width="50" height="50" relative="1" as="geometry">
            <mxPoint x="503" y="602" as="sourcePoint" />
            <mxPoint x="562" y="602" as="targetPoint" />
          </mxGeometry>
        </mxCell>
        <mxCell id="U-1qWZHeViYSrpXCQZCy-19" value="" style="ellipse;whiteSpace=wrap;html=1;aspect=fixed;fontSize=25;strokeWidth=3;" parent="1" vertex="1">
          <mxGeometry x="448" y="482" width="10" height="10" as="geometry" />
        </mxCell>
        <mxCell id="U-1qWZHeViYSrpXCQZCy-20" value="" style="ellipse;whiteSpace=wrap;html=1;aspect=fixed;fontSize=25;strokeWidth=3;" parent="1" vertex="1">
          <mxGeometry x="481" y="467" width="10" height="10" as="geometry" />
        </mxCell>
        <mxCell id="U-1qWZHeViYSrpXCQZCy-21" value="" style="endArrow=none;html=1;strokeWidth=3;fontSize=25;curved=1;exitX=1;exitY=1;exitDx=0;exitDy=0;startArrow=none;" parent="1" source="U-1qWZHeViYSrpXCQZCy-3" target="U-1qWZHeViYSrpXCQZCy-20" edge="1">
          <mxGeometry width="50" height="50" relative="1" as="geometry">
            <mxPoint x="481.28427124746213" y="460.28427124746213" as="sourcePoint" />
            <mxPoint x="584.7157287525379" y="563.7157287525379" as="targetPoint" />
          </mxGeometry>
        </mxCell>
        <mxCell id="U-1qWZHeViYSrpXCQZCy-22" value="" style="ellipse;whiteSpace=wrap;html=1;aspect=fixed;fontSize=25;strokeWidth=3;" parent="1" vertex="1">
          <mxGeometry x="576" y="469" width="10" height="10" as="geometry" />
        </mxCell>
        <mxCell id="U-1qWZHeViYSrpXCQZCy-23" value="" style="endArrow=none;html=1;strokeWidth=3;fontSize=25;curved=1;exitX=0;exitY=1;exitDx=0;exitDy=0;entryX=1;entryY=0;entryDx=0;entryDy=0;" parent="1" source="U-1qWZHeViYSrpXCQZCy-7" target="U-1qWZHeViYSrpXCQZCy-22" edge="1">
          <mxGeometry width="50" height="50" relative="1" as="geometry">
            <mxPoint x="584.7157287525379" y="460.28427124746213" as="sourcePoint" />
            <mxPoint x="584.5355339060343" y="460.4644660939655" as="targetPoint" />
          </mxGeometry>
        </mxCell>
        <mxCell id="U-1qWZHeViYSrpXCQZCy-24" value="" style="ellipse;whiteSpace=wrap;html=1;aspect=fixed;fontSize=25;strokeWidth=3;" parent="1" vertex="1">
          <mxGeometry x="608" y="482" width="10" height="10" as="geometry" />
        </mxCell>
        <mxCell id="nFdvp77oTlpr-loI89Ck-1" value="" style="shape=image;imageAspect=0;aspect=fixed;verticalLabelPosition=bottom;verticalAlign=top;image=data:image/png,iVBORw0KGgoAAAANSUhEUgAABDoAAASSCAYAAABQYo46AAAMPmlDQ1BJQ0MgUHJvZmlsZQAASImVVwdYU8kWnluSkJAQIICAlNCbIFIDSAmhhd4RbIQkQCgxBoKKHV1UcO1iARu6KqJgBcSO2FkUe18sqCjrYsGuvEkBXfeV753vm3v/+8+Z/5w5d24ZAOjHeRJJHqoJQL64UBofGsgclZrGJD0FCMAAFdCBDY9fIGHHxkYCaAPnv9u769Ab2hVHudY/+/+raQmEBXwAkFiIMwQF/HyI9wOAV/El0kIAiHLeYlKhRI5hAzpSmCDE8+U4S4mr5DhDiXcrfBLjORC3AqBG5fGkWQBoXII8s4ifBTU0eiF2FgtEYgDoTIj98vMnCCBOh9gW+kggluuzMn7QyfqbZsagJo+XNYiVc1GYWpCoQJLHm/J/luN/W36ebCCGNWzUbGlYvHzOsG43cydEyDEV4h5xRnQMxNoQfxAJFP4Qo5RsWViS0h814hdwYM2AHsTOAl5QBMRGEIeI86IjVXxGpiiECzFcIehkUSE3EWJ9iOcLC4ITVD4bpRPiVbHQhkwph63iz/KkirjyWPdluUlslf7rbCFXpY9pFGcnpkBMgdiySJQcDbEGxE4FuQkRKp+Rxdmc6AEfqSxenr8lxPFCcWigUh8rypSGxKv8y/ILBuaLbcwWcaNVeG9hdmKYsj5YK5+nyB/OBbskFLOTBnSEBaMiB+YiEAYFK+eOPROKkxJUOh8khYHxyrE4RZIXq/LHzYV5oXLeHGK3gqIE1Vg8uRAuSKU+nikpjE1U5okX5/DCY5X54EtAJOCAIMAEMtgywASQA0TtPY098ErZEwJ4QAqygBA4qpiBESmKHjE8JoBi8CdEQlAwOC5Q0SsERZD/Osgqj44gU9FbpBiRC55AnA8iQB68lilGiQejJYPHkBH9IzoPNj7MNw82ef+/5wfY7wwbMpEqRjYQkUkf8CQGE4OIYcQQoh1uiPvhPngkPAbA5oKzcK+BeXz3JzwhdBAeEq4ROgm3xotKpD9lGQU6oX6IqhYZP9YCt4aa7ngg7gvVoTKuhxsCR9wNxmHj/jCyO2Q5qrzlVWH+pP23GfxwN1R+ZGcySh5CDiDb/jxSw17DfVBFXusf66PMNWOw3pzBnp/jc36ovgCeI372xOZj+7Az2AnsHHYYawRM7BjWhLVhR+R4cHU9VqyugWjxinxyoY7oH/EG7qy8kgXOtc7dzl+UfYXCyfJ3NOBMkEyRirKyC5ls+EUQMrlivtMwpouziysA8u+L8vX1Jk7x3UD02r5zc/4AwPdYf3//oe9c+DEA9njCx//gd86WBT8d6gCcPciXSYuUHC4/EOBbgg6fNANgAiyALZyPC/AAPiAABINwEAMSQSoYB7PPhutcCiaBaWA2KAXlYAlYCdaCDWAz2A52gb2gERwGJ8BpcAFcAtfAHbh6usAL0Avegc8IgpAQGsJADBBTxApxQFwQFuKHBCORSDySiqQjWYgYkSHTkDlIObIMWYtsQmqQPchB5ARyDulAbiEPkG7kNfIJxVAqqoMao9bocJSFstEINBEdi2ahE9FidC66CF2NVqM70Qb0BHoBvYZ2oi/QPgxg6pgeZoY5YiyMg8VgaVgmJsVmYGVYBVaN1WHN8D5fwTqxHuwjTsQZOBN3hCs4DE/C+fhEfAa+EF+Lb8cb8Fb8Cv4A78W/EWgEI4IDwZvAJYwiZBEmEUoJFYSthAOEU/BZ6iK8IxKJekQboid8FlOJOcSpxIXEdcR64nFiB/ERsY9EIhmQHEi+pBgSj1RIKiWtIe0kHSNdJnWRPqipq5mquaiFqKWpidVK1CrUdqgdVbus9lTtM1mTbEX2JseQBeQp5MXkLeRm8kVyF/kzRYtiQ/GlJFJyKLMpqyl1lFOUu5Q36urq5upe6nHqIvVZ6qvVd6ufVX+g/pGqTbWncqhjqDLqIuo26nHqLeobGo1mTQugpdEKaYtoNbSTtPu0DxoMDScNroZAY6ZGpUaDxmWNl3Qy3YrOpo+jF9Mr6PvoF+k9mmRNa02OJk9zhmal5kHNG5p9WgytEVoxWvlaC7V2aJ3TeqZN0rbWDtYWaM/V3qx9UvsRA2NYMDgMPmMOYwvjFKNLh6hjo8PVydEp19ml067Tq6ut66abrDtZt1L3iG6nHqZnrcfVy9NbrLdX77repyHGQ9hDhEMWDKkbcnnIe/2h+gH6Qv0y/Xr9a/qfDJgGwQa5BksNGg3uGeKG9oZxhpMM1xueMuwZqjPUZyh/aNnQvUNvG6FG9kbxRlONNhu1GfUZmxiHGkuM1xifNO4x0TMJMMkxWWFy1KTblGHqZyoyXWF6zPQ5U5fJZuYxVzNbmb1mRmZhZjKzTWbtZp/NbcyTzEvM683vWVAsWBaZFissWix6LU0toyynWdZa3rYiW7Gssq1WWZ2xem9tY51iPc+60fqZjb4N16bYptbmri3N1t92om217VU7oh3LLtdund0le9Te3T7bvtL+ogPq4OEgcljn0DGMMMxrmHhY9bAbjlRHtmORY63jAyc9p0inEqdGp5fDLYenDV86/Mzwb87uznnOW5zvjNAeET6iZETziNcu9i58l0qXq6401xDXma5Nrq/cHNyEbuvdbroz3KPc57m3uH/18PSQetR5dHtaeqZ7VnneYOmwYlkLWWe9CF6BXjO9Dnt99PbwLvTe6/2Xj6NPrs8On2cjbUYKR24Z+cjX3Jfnu8m304/pl+630a/T38yf51/t/zDAIkAQsDXgKduOncPeyX4Z6BwoDTwQ+J7jzZnOOR6EBYUGlQW1B2sHJwWvDb4fYh6SFVIb0hvqHjo19HgYISwibGnYDa4xl8+t4faGe4ZPD2+NoEYkRKyNeBhpHymNbI5Co8KjlkfdjbaKFkc3xoAYbszymHuxNrETYw/FEeNi4yrjnsSPiJ8WfyaBkTA+YUfCu8TAxMWJd5Jsk2RJLcn05DHJNcnvU4JSlqV0jho+avqoC6mGqaLUpjRSWnLa1rS+0cGjV47uGuM+pnTM9bE2YyePPTfOcFzeuCPj6eN54/elE9JT0nekf+HF8Kp5fRncjKqMXj6Hv4r/QhAgWCHoFvoKlwmfZvpmLst8luWbtTyrO9s/uyK7R8QRrRW9ygnL2ZDzPjcmd1tuf15KXn2+Wn56/kGxtjhX3DrBZMLkCR0SB0mppHOi98SVE3ulEdKtBUjB2IKmQh34I98ms5X9IntQ5FdUWfRhUvKkfZO1Josnt02xn7JgytPikOLfpuJT+VNbpplNmz3twXT29E0zkBkZM1pmWsycO7NrVuis7bMps3Nn/17iXLKs5O2clDnNc43nzpr76JfQX2pLNUqlpTfm+czbMB+fL5rfvsB1wZoF38oEZefLncsryr8s5C88/+uIX1f/2r8oc1H7Yo/F65cQl4iXXF/qv3T7Mq1lxcseLY9a3rCCuaJsxduV41eeq3Cr2LCKskq2qnN15OqmNZZrlqz5sjZ77bXKwMr6KqOqBVXv1wnWXV4fsL5ug/GG8g2fNoo23twUuqmh2rq6YjNxc9HmJ1uSt5z5jfVbzVbDreVbv24Tb+vcHr+9tcazpmaH0Y7FtWitrLZ755idl3YF7Wqqc6zbVK9XX74b7Jbtfr4nfc/1vRF7W/ax9tXtt9pfdYBxoKwBaZjS0NuY3djZlNrUcTD8YEuzT/OBQ06Hth02O1x5RPfI4qOUo3OP9h8rPtZ3XHK850TWiUct41vunBx18mprXGv7qYhTZ0+HnD55hn3m2Fnfs4fPeZ87eJ51vvGCx4WGNve2A7+7/36g3aO94aLnxaZLXpeaO0Z2HL3sf/nElaArp69yr164Fn2t43rS9Zs3xtzovCm4+exW3q1Xt4tuf74z6y7hbtk9zXsV943uV/9h90d9p0fnkQdBD9oeJjy884j/6MXjgsdfuuY+oT2peGr6tOaZy7PD3SHdl56Pft71QvLic0/pn1p/Vr20fbn/r4C/2npH9Xa9kr7qf73wjcGbbW/d3rb0xfbdf5f/7vP7sg8GH7Z/ZH088ynl09PPk76Qvqz+ave1+VvEt7v9+f39Ep6Up/gVwGBDMzMBeL0NAFoqAAy4P6OMVu7/FIYo96wKBP4TVu4RFeYBQB38f4/rgX83NwDYvQVuv6A+fQwAsTQAEr0A6uo62Ab2aop9pdyIcB+wkfs1Iz8D/BtT7jl/yPvnM5CruoGfz/8Ctwl8SUCMM8wAAACKZVhJZk1NACoAAAAIAAQBGgAFAAAAAQAAAD4BGwAFAAAAAQAAAEYBKAADAAAAAQACAACHaQAEAAAAAQAAAE4AAAAAAAAAkAAAAAEAAACQAAAAAQADkoYABwAAABIAAAB4oAIABAAAAAEAAAQ6oAMABAAAAAEAAASSAAAAAEFTQ0lJAAAAU2NyZWVuc2hvdDVOPbYAAAAJcEhZcwAAFiUAABYlAUlSJPAAAAHYaVRYdFhNTDpjb20uYWRvYmUueG1wAAAAAAA8eDp4bXBtZXRhIHhtbG5zOng9ImFkb2JlOm5zOm1ldGEvIiB4OnhtcHRrPSJYTVAgQ29yZSA2LjAuMCI+CiAgIDxyZGY6UkRGIHhtbG5zOnJkZj0iaHR0cDovL3d3dy53My5vcmcvMTk5OS8wMi8yMi1yZGYtc3ludGF4LW5zIyI+CiAgICAgIDxyZGY6RGVzY3JpcHRpb24gcmRmOmFib3V0PSIiCiAgICAgICAgICAgIHhtbG5zOmV4aWY9Imh0dHA6Ly9ucy5hZG9iZS5jb20vZXhpZi8xLjAvIj4KICAgICAgICAgPGV4aWY6UGl4ZWxZRGltZW5zaW9uPjExNzA8L2V4aWY6UGl4ZWxZRGltZW5zaW9uPgogICAgICAgICA8ZXhpZjpQaXhlbFhEaW1lbnNpb24+MTA4MjwvZXhpZjpQaXhlbFhEaW1lbnNpb24+CiAgICAgICAgIDxleGlmOlVzZXJDb21tZW50PlNjcmVlbnNob3Q8L2V4aWY6VXNlckNvbW1lbnQ+CiAgICAgIDwvcmRmOkRlc2NyaXB0aW9uPgogICA8L3JkZjpSREY+CjwveDp4bXBtZXRhPgoLM4+eAAAAHGlET1QAAAACAAAAAAAAAkkAAAAoAAACSQAAAkkAAJM1YBneFwAAQABJREFUeAHs3Qn8VXP++PF3qaREUdOqBYmkSCgtoqnESCrMiCGZMW0i609ZShhmjEiNH5JUj99opIVC2kgpS6QSUUKbFokW2s7/fK7/99vdzrlnvWe5r/N40L3nfNbn59zPud/3PUuJvXv3asKCAAIIIIAAAggggAACCCCAAAIIxECgxL59+wh0xGAg6QICCCCAAAIIIIAAAggggAACCIiU2L9/P4EO9gQEEEAAAQQQQAABBBBAAAEEEIiFQIkDBw4Q6IjFUNIJBBBAAAEEEEAAAQQQQAABBBAocfDgQQId7AcIIIAAAggggAACCCCAAAIIIBALAQIdsRhGOoEAAggggAACCCCAAAIIIIAAAkqAQAf7AQIIIIAAAggggAACCCCAAAIIxEaAQEdshpKOIIAAAggggAACCCCAAAIIIIAAgQ72AQQQQAABBBBAAAEEEEAAAQQQiI1ACU1fYtMbOoIAAggggAACCCCAAAIIIIAAAgUtQKCjoIefziOAAAIIIIAAAggggAACCCAQLwECHfEaT3qDAAIIIIAAAggggAACCCCAQEELEOgo6OGn8wgggAACCCCAAAIIIIAAAgjES4BAR7zGk94ggAACCCCAAAIIIIAAAgggUNACBDoKevjpPAIIIIAAAggggAACCCCAAALxEiDQEa/xpDcIIIAAAggggAACCCCAAAIIFLQAgY6CHn46jwACCCCAAAIIIIAAAggggEC8BAh0xGs86Q0CCCCAAAIIIIAAAggggAACBS1AoKOgh5/OI4AAAggggAACCCCAAAIIIBAvAQId8RpPeoMAAggggAACCCCAAAIIIIBAQQsQ6Cjo4afzCCCAAAIIIIAAAggggAACCMRLwNdAx+rVq+WZZ54JpdjJJ58sPXv2dNS2Tz/9VCZMmOAor5tMJUqUkB49eshpp53mphjyIoBAAQgw/3o7yMy/3npSGgIIIIAAAggg4KeAr4GOuXPnygUXXOBn+x2X3alTJ5kxY4aj/BMnTpQrr7zSUV63mYYOHSr33HOP22LIjwACMRdg/vV+gJl/vTelRAQQQAABBBBAwA8BAh0OVAl0OEAjCwII5FWAQIf33AQ6vDelRAQQQAABBBBAwA8BXwMdGzZskBdffFHWrVsn3333nSxfvly+/vpr0TTNj77kLLN27drSqFEjqV+/vrRt21a6dOmSM0+2BOqUcNWvr776SlauXCkrVqyQvXv3Zkvq6bozzzxTHn/8cWndurWn5VIYAgjET4D519sxZf711pPSEEAAAQQQQAABPwV8DXRka/jPP/8s77zzjkyePFleeukl2blzZ7Zknqw79thjpXv37nLRRRdJixYtpEqVKp6Um16ICnJ88MEH8uqrr8ro0aNl69at6Ukcvy9btqxcccUV0rdvXzn77LMdl0NGBBBAgPnX3j7A/GvPi9QIIIAAAggggEBYBPIe6Eju+JYtW+Tuu++W5557Lnm1J6+HDBkit99+uxxxxBGelGe1kJ9++kk6dOggixcvtpolazp147u//e1v8sADD4gK2LAggAACXgow/xprMv8a27AFAQQQQAABBBCIgkCggY4ioIEDByYuySh67/bfESNGSL9+/dwW4zj/jz/+KA0bNpSNGzc6KkM9EebZZ5+VVq1aOcpPJgQQQMCqAPNvqhTzb6oH7xBAAAEEEEAAgSgKhCLQoeDUpRmjRo1ybXjOOefIokWLXJfjtoBu3brJK6+8YquY0qVLy1133SWDBg2Sww8/3FZeEiOAAAJOBZh/RZh/ne495EMAAQQQQAABBMInEJpAh7pBqbpBqLp/h5tFncmhzugIernuuutk7Nixlptx1FFHJQIj7dq1s5yHhAgggIAXAsy/zL9e7EeUgQACCCCAAAIIhEUgNIEOBfLxxx9Ls2bN5ODBg459Bg8enLivheMCPMqoLl1RT2SxstSqVUtmzJghp512mpXkpEEAAQQ8F2D+Zf71fKeiQAQQQAABBBBAICCBUAU6lIF6SsqkSZMcc1x11VUyYcIEx/m9yPj9999LtWrVLBXVpEkTmT59utSsWdNSehIhgAACfgkw//olS7kIIIAAAggggAAC+RQIXaDjvffek3PPPdexgTojRD3qNcjl5ptvlieeeCJnE9q3b58I6lSoUCFnWhIggAACfgsw//otTPkIIIAAAggggAAC+RAIXaBDdVrdUPT999931H/1ONmtW7dKuXLlHOV3m0n9odC6dWs5cOCAaVHqEbTTpk3jpqOmSmxEAIF8CzD/5luc+hBAAAEEEEAAAQS8FghloOP555+XXr16Oe7r5MmTpUuXLo7zO82oHierzijZsGGDaRHqhqOvvvqqqKAMCwIIIBAmAebfMI0GbUEAAQQQQAABBBBwIhDKQMfu3bulRo0asmPHDid9kh49esj48eMd5XWaSbVZPTUm12UzLVu2lJkzZwZ2xonT/pEPAQQKQ4D5tzDGmV4igAACCCCAAAJxFghloEOBq8fEjhw50pF92bJlRZ1dUbFiRUf57WZST4np2rWrTJ061TSreqqKenxuvtpl2hg2xkZg2bJlMnr0aNP+DBkyRI4++mjTNE43Bl2/03aTz1iA+dfYhi0IIIAAAggggAAC4RcIbaBD/fHUuHFjx4JPPfWU9O3b13F+OxkHDBggTz75pGmWevXqyYIFC6R69eqm6diIgF2Ba6+9Vl588UXTbOvWrfPtyT5B12/acTY6EmD+dcRGJgQQQAABBBBAAIGQCIQ20KF81GUeCxcudESlgiRLly51lNdOpuHDh8stt9ximqVy5cqiblJ64oknmqZjIwJOBP785z/LuHHjTLOuX78+cTmYaSKHG4Ou32GzyZZDgPk3BxCbEUAAAQQQQAABBEIrEOpAh/qVWv1a7HRRwYXmzZs7zZ4z35QpU6Rbt26iLl0xWtQNR2fPni0tWrQwSsJ6BFwJBB1oCLp+V3hkNhRg/jWkYQMCCCCAAAIIIIBAyAVCHejYs2dP4nT77du3O2Ls2bOnqCcI+LGox9+ef/75om7cZ7SULFlSJk6cmAiGGKVhPQJuBYIONARdv1s/8mcXYP7N7sJaBBBAAAEEEEAAgfALhDrQofhuvvlmeeKJJxxJlitXLvGoV69vwvj1118nztD4/vvvTdv12GOPycCBA03TsBEBtwJBBxqCrt+tH/mNBZh/jW3YggACCCCAAAIIIBBegdAHOlauXCkNGzZ0LDhixIjEE1wcF5CWUZ1doq5dV+0yW9RTC1TdLAj4LRB0oCHo+v32LeTymX8LefTpOwIIIIAAAgggEF2B0Ac6FG2bNm1k/vz5jpTVI10//fRTR3nTM+3du1c6duwo8+bNS9+U8r5z584yefJkUZeusCDgt0DQgYag6/fbt9DLZ/4t9D2A/iOAAAIIIIAAAtETiESgY8KECXL11Vc71lVPbvHiZqDXXHONjB8/3rQdZ511ViIQoi6bYUEgHwJBBxqCrj8fxoVcB/NvIY8+fUcAAQQQQAABBKIpEIlAx6+//pq4Kem2bdscKasnt7zwwguO8hZluvfee+WBBx4oepv137p168qiRYukatWqWbezEgE/BIIONARdvx+mlHlIgPn3kAWvEEAAAQQQQAABBKIhEIlAh6K87bbbRN3c08miHvG6YcMGqVixopPsMmbMGLn++utN81aqVEkWLFggp5xyimk6NiLgtUDQgYag6/fak/IyBZh/M01YgwACCCCAAAIIIBBegcgEOlatWiUNGjRwLPnkk09K//79beefNWuWXHTRRbJv3z7DvGXKlJGZM2fKeeedZ5iGDQj4JRB0oCHo+v1ypdxDAsy/hyx4hQACCCCAAAIIIBB+gcgEOhTlBRdcIHPnznWk2qhRI1m2bJmtvMuXL5dWrVrJjh07TPOp+3b06NHDNA0bEfBLIOhAQ9D1++VKuakCzL+pHrxDAAEEEEAAAQQQCK9ApAIdL730kvzxj390rKkuLTn33HMt5d+4caM0b95cvv32W9P0w4YNk0GDBpmmYSMCfgoEHWgIun4/bSn7kADz7yELXiGAAAIIIIAAAgiEWyBSgQ71eNdatWrJli1bHKmqP8jGjh2bM++uXbsSj7RdsmSJadobbrhBnn32WdM0bETAb4GgAw1B1++3L+X/JsD8y56AAAIIIIAAAgggEBWBSAU6FOqdd94pjz76qCNfdVPS9evXi7pxqNFy4MAB6dKli7z22mtGSRLrO3bsmEhTqlQp03RsRMBvgaADDUHX77cv5R8SYP49ZMErBBBAAAEEEEAAgfAKRC7QsXr1aqlfv75omuZI9YknnpCbbrrJMG/fvn1l1KhRhtvVhiZNmsj8+fOlQoUKpunYiEA+BIIONARdfz6MqeM3AeZf9gQEEEAAAQQQQACBKAhELtChUDt06CBvvfWWI9+GDRvKihUrsuZVj69Vj1E0W9SlM4sWLZKaNWuaJWMbAnkTCDrQEHT9eYOmooQA8y87AgIIIIAAAggggEDYBSIZ6Jg0aZJ0797dsa06G0M9TSV5efnll+WKK64wPVNEncHx7rvvSuPGjZOz8hqBQAWCDjQEXX+g+AVYOfNvAQ46XUYAAQQQQAABBCImEMlAx759+6R27dqyadMmR9xXX321jBs3rjjve++9J+3atZM9e/YUr0t/oe7FMX369MTZJOnbeI9AkAJBBxqCrj9I+0Ksm/m3EEedPiOAAAIIIIAAAtESiGSgQxGrR7o+9NBDjrTLli2buCnpMcccI+qa8xYtWuR8kstzzz0nvXr1clQfmRDwUyDoQEPQ9ftpS9nZBZh/s7uwFgEEEEAAAQQQQCAcApENdKxdu1ZOOOEEOXjwoCPJxx9/XNQfaCrIsWrVKtMy1Jf6YcOGmaZhIwJBCQQdaAi6/qDcC7le5t9CHn36jgACCCCAAAIIhF8gsoEORdupUyd54403HCkff/zxUqNGjcQ9N8wK6NGjR+IylxIlSpglYxsCgQkEHWgIuv7A4Au8YubfAt8B6D4CCCCAAAIIIBBigUgHOqZMmSKXXXaZb7xt27aVN998U8qUKeNbHRSMgFuBoAMNQdfv1o/8zgSYf525kQsBBBBAAAEEEEDAf4FIBzr2798vderUkQ0bNngudcopp8iCBQukUqVKnpdNgQh4KRB0oCHo+r20pCzrAsy/1q1IiQACCCCAAAIIIJBfgUgHOhTVfffdJ0OHDvVUrWrVqrJo0SKpW7eup+VSGAJ+CAQdaAi6fj9MKdOaAPOvNSdSIYAAAggggAACCORXIPKBju+++y4RkHB6U9J07nLlysnbb78tzZo1S9/EewRCKRB0oCHo+kM5KAXSKObfAhlouokAAggggAACCERMIPKBDuV9ySWXyGuvveaavmTJkjJ58mTp3Lmz67IoAIF8CQQdaAi6/nw5U092Aebf7C6sRQABBBBAAAEEEAhOIBaBDhXkUF+23S4jRoyQfv36uS2G/AjkVSDoQEPQ9ecVm8oyBJh/M0hYgQACCCCAAAIIIBCwQCwCHQcOHJB69eqJOo3a6TJw4EB57LHHnGYnHwKBCQQdaAi6/sDgqTghwPzLjoAAAggggAACCCAQNoFYBDoUqrohqboxntNly5YtUrlyZafZY5FP3edk2rRpov7t0qWLqEt5WMIvEHSgIej6wz9C8W8h868/Yzxx4kTZvn17SuGnnnqqtGrVKmUdbxBAAAEEEEAAAQRSBWIT6Fi/fn3iUbPq10Uny/Dhw2XAgAFOskY+jwpsqC/U6o+VlStXJvqzc+dOKV++fOT7VggdCDrQEHT9hTDGYe8j86/3I6Tm5CuvvDKj4D59+sjIkSMz1rMCAQQQQAABBBBA4JBAbAIdqkvqLISpU6ce6p2NV40aNZJly5bZyBH9pJqmycsvvyxDhgyRFStWpHSIQEcKR6jfBB1oCLr+UA9OATWO+de7wV63bp00adJEfvjhh4xCCXRkkLACAQQQQAABBBDIEIhVoOONN96QTp06ZXTS6oqFCxdKixYtrCaPbDoV4FBPl7n//vsNgzsEOqIzvEEHGoKuPzojFe+WMv96M75qfm7fvr3Mnj07a4EEOrKysBIBBBBAAAEEEEgRiFWgQ12Ccfzxx8s333yT0kmrb3r27CnPP/+81eSRTKfOeFEBjk8++cS0/QQ6THlCtTHoQEPQ9YdqMAq4Mcy/3gz+v/71L7n11lsNCyPQYUjDBgQQQAABBBBAoFggVoEO9dQVdaO2n3/+ubiDdl6UK1dONm7cKEcddZSdbJFIqx4BqQIcH330kaX2EuiwxBSKREEHGoKuPxSDQCMST71i/nW3IyxdulTOOecc+fXXXw0LItBhSMMGBBBAAAEEEECgWCA2gY4dO3Yk7kS/fPny4s45eTFq1Cjp3bu3k6yhzPP6668nnkbzwQcf2GofgQ5bXIEmDjrQEHT9geJTeUKA+df9jvDLL7/IWWedJbmOYQQ63FtTAgIIIIAAAgjEXyAWgY59+/Yl7s1hdE2znWFs2rSp5bMe7JSb77QzZ85MBDgWLVrkqGoCHY7YAskUdKAh6PoDQafSYgHm32IKVy9uueUWUU//yrUQ6MglxHYEEEAAAQQQQEAkFoGO6667TsaOHevZeH744Ydy5plnelZePgtSwZ777rtPFixY4KpaAh2u+PKaOehAQ9D15xWbyjIEmH8zSGyvUIHpCy+8UNSNSHMtBDpyCbEdAQQQQAABBBCIQaBD3XdCPR7Vy+XGG2+Up59+2ssifS9r3rx5iQDHO++840ldBDo8YcxLIUEHGoKuPy/IVJJVgPk3K4utldu2bZPGjRvLhg0bLOUj0GGJiUQIIIAAAgggUOACkT6jY9y4caL+yPJ6UTcjVV86y5cv73XRvpSXfpf+ww8/XC644ALp3LmztGnTJtEPFQBR9x7ZtWuXpTYQ6LDEFIpEQQcagq4/FINQgI1g/vVm0Lt37y6TJk2yXBiBDstUJEQAAQQQQACBAhaIbKBD/eHevn172bt3ry/DN3r0aLn++ut9KdvrQu+55x4ZNmyYNG/ePBHM6NatW9Ygzfjx4+Waa66xVD2BDktMoUgUdKAh6PpDMQgF1gjmX28GfMyYMbaPMwQ6vLGnFAQQQAABBBCIt0AkAx2rVq2SFi1ayA8//GA4OmXLlpXatWuLSutkUUGD9957z0nWvOf59NNPE3Wq05/NFnVX/9/97neWHr9LoMNMMlzbgg40BF1/uEYj/q1h/vVmjFevXi2nn366qLnWzkKgw44WaRFAAAEEEECgUAUiF+hQ1zOrIMRXX31lOGYlSpSQiRMnSp06deTss882TJdrgwognHbaabmSRWr7GWecIZ988knONhPoyEkUmgRBBxqCrj80A1EADWH+9WaQ9+/fn7isMDmYro5b/fr1kxEjRphWQqDDlIeNCCCAAAIIIIBAQiBSgQ51mYq6XCXXDTfVPSvUo/rUop6esmTJksRru//r37+/PPnkk3azhTp9hw4d5K233srZRgIdOYlCkyDoQEPQ9YdmIGLeEOZf7wZY3UBb3cg1eVHHGzU/X3LJJcmrM14T6MggYQUCCCCAAAIIIJAhEKlAh5XHGA4YMECGDx9e3NFnnnlG1FNUnCyVKlVK3JRUXQYTl+Wyyy6TKVOm5OwOgY6cRKFJEHSgIej6QzMQMW8I8683A7xo0SJp3bq1qLM6ipaGDRuKeqy5ejw4gY4iFf5FAAEEEEAAAQScC0Qm0PHwww/L3XffbdrTrl27yn//+18pWbJkcTr1B3uNGjUs3ZeiOFPSC/VkgauvvjppTbRfEuiI9vhla33QgYag689mwjpvBZh/vfFUxyN1+WDypZelS5cWFfxo2rSpvPbaawQ6vKGmFAQQQAABBBAodAEtAot+BoKmX7+s6WNl+J9+c1Jt9+7dWXujP1bVMJ9ZmWqb/njWrGVGdWWXLl0sWehfyKPaxYJrt/4knZxjun79et9cgq7ft45RcEKA+de7HaFXr14Zn9WHHnqouIJXX301Y3v6MUq/dKU4PS8QQAABBBBAAAEEsguE/owOdUPQli1bmt6Zvn79+rJw4UKpXLmy/p0wc1m6dGni7vaZW6yt+fzzz6VBgwbWEoc8FWd0hHyAHDQv6DMqgq7fARlZLAow/1qEspDslVdeEfXo7+SlVatW8vbbbxefhcgZHck6vEYAAQQQQAABBJwLhDrQ8f3338s555wj33zzjWEPq1SpkngM7AknnGCYRm0499xzHT8u9rbbbpN//OMfpuVHZSOBjqiMlPV2Bh1oCLp+61KktCPA/GtHyzzthg0bRD3+Wz21pmipUKGCqCB8vXr1ilZx6UqxBC8QQAABBBBAAAF3AqENdOzZs0fatm0r77//vmEPjzjiCJk7d24iGGKY6P9vePHFF+Xaa6/NlSzrdhVMWbdunZQpUybr9iitJNARpdGy1tagAw1B129NiVR2BJh/7WiZp9VPppROnTrJm2++mZJwzJgxom7wmrxwRkeyBq8RQAABBBBAAAHnAqEMdKgvhldeeWXixqJGXVM3HJ00aZLo95wwSpKyXn1xr1mzpmzfvj1lvdU3EydOlMsvv9xq8tCmI9AR2qFx3LCgAw1B1+8YjoxZBZh/s7I4XqkeUa6eBpa8qEtYXn755eRVidcEOjJIWIEAAggggAACCDgTyH7rjmDX6k9XyXlDthEjRthu5M0335yzXF0xa5rf//73tusLYwZuRhrGUXHXpqBvBhp0/e70yJ0uwPybLuL8/bJlyzT98eQpx5Tq1atrW7duzVooNyPNysJKBBBAAAEEEEDAtkDozuh44YUXpGfPnqZRm1tvvVX++c9/mqbJtlHdVPSUU07JtinnOv2pL7J69eqU66lzZgphAs7oCOGguGxS0GdUBF2/Sz6yJwkw/yZhuHz566+/Ji6rVPfhSF5ef/11ufDCC5NXFb/mjI5iCl4ggAACCCCAAALuBGyHRnzMMGfOHK106dIpv37pvUt5f8UVV2gHDx503Ar9vh8p5aWXb/Ze/dIZ9YUzOqI+gpntD/qMiqDrzxRhjRMB5l8nasZ59IB8xrGmb9++xhn0LZzRYcrDRgQQQAABBBBAwLJAaM7oUGdbqCejmN1Do3Xr1vLWW2/J4Ycf7ji689JLL8kf//hHR/lr1KiReAJMqVKlHOUPQybO6AjDKHjbhqDPqAi6fm81C7M05l9vx3327NnSvn170Y/ExQWffPLJsmTJElE30TZaOKPDSIb1CCCAAAIIIICAPYFQBDq2bNkizZs3lzVr1hi2Xn1JXLBggRxzzDGGaaxs2Lt3rxx33HGyefNmK8kz0kyZMkUuvfTSjPVRWUGgIyojZb2dQQcagq7fuhQpswkw/2ZTcb7uhx9+kCZNmiSe1FVUin6mYuLx5meeeWbRqqz/EujIysJKBBBAAAEEEEDAvoDlcz98Srh7925ND3JknOKr96R4XdWqVTU9COJZC+66667ispPrsfL64osv9qwdQRTEpStBqPtbZ9CXjgRdv7+68S6d+df78VWXV6YfS4YNG2apIi5dscREIgQQQAABBBBAIKdAoGd06PfaEP1LYeIxsfoXw6xL+fLlZd68edKsWbOs252sVGeOnHjiiSmnFVst57DDDpO1a9dKrVq1rGYJVTrO6AjVcHjSmKDPqAi6fk8QC7AQ5l/vB/3FF1+Ua6+9NqXgli1byttvvy3q2JFr4YyOXEJsRwABBBBAAAEELArkDIX4mGDgwIEZv3zpzS5ep38x1PQvfr60QL/rfXE9yXVaeT1kyBBf2pSPQjmjIx/K+a0j6DMqgq4/v9rxqY3519uxVGcdHnXUUSnHlQoVKmj607osV8QZHZapSIgAAggggAACCJgKBHZGx4gRI+Smm24yDcc8/fTTcuONN5qmcbpR3WtDnd3gZKlTp07ifiIlS5Z0kj3QPJzRESi/L5UHfUZF0PX7ghrzQpl/vR3gAwcOyHnnnZe4j1RyyaNHj5brr78+eZXpa87oMOVhIwIIIIAAAgggYFkgkEDHK6+8IpdffrmoU6eNFv0+GvLwww8bbXa9Xn0xVQGL9evXOyprxowZ0qlTJ0d5g8xEoCNIfX/qDjrQEHT9/qjGt1TmX+/H9sEHH5TBgwenFKzmWmVtZyHQYUeLtAgggAACCCCAgImA6fkePmycP3++VrZs2ZTTe/Xmpby/6qqrND0I4kPtqUXed999KfWmt8Psvf4lNrWwiLzj0pWIDJSNZgZ96UjQ9dugKvikzL/e7wKLFy/W9EeOpxxLqlWrpulPs7FdGZeu2CYjAwIIIIAAAgggkFUgr2d0rFixQtq0aSPq8XtGS9u2beXNN9+UMmXKGCXxbP26deukbt26os7usLvoX2zlu+++E/0Lrd2sgabnjI5A+X2pPOgzKoKu3xfUGBbK/Ov9oO7atUuaNm0qq1atSil8+vTpctFFF6Wss/KGMzqsKJEGAQQQQAABBBCwIJA1/OHDyq+//lqrUaNGyq9eevNS3p966qna9u3bfajduMhLL700pQ3pbTJ7r19aY1xwSLdwRkdIB8ZFs4I+oyLo+l3QFUxW5l9/hvqvf/1rxvGjd+/ejivjjA7HdGREAAEEEEAAAQRSBPJyRsf3338vrVq1kq+++sow9FK9enVZtGiR1K5d2zCNHxveeOMNx/faUI+oVb/klShRwo+m+VImZ3T4whpooUGfURF0/YHiR6By5l9/Bmnq1KmiB45TCm/QoIEsWbJEypUrl7Le6hvO6LAqRToEEEAAAQQQQMBcwPdAx48//ijqcpSlS5catuTII4+Ud955R8444wzDNH5tUJetqMtPtm7d6qiK2bNnywUXXOAobxCZCHQEoe5vnUEHGoKu31/daJfO/OvP+G3atEkaN24s+n04iitQlzMuXLhQzjrrrOJ1dl8Q6LArRnoEEEAAAQQQQMBAIOX8Do/f6Ncvay1btsw4tVdvSsq6Z555xuOa7RWnP/4vpT3p7TN73717d3uVBZyaS1cCHgAfqg/60pGg6/eBNBZFMv/6N4z6/TcyjhlDhw51XSGXrrgmpAAEEEAAAQQQQCAh4NsZHXv27Emc1jtz5kyDEMtvq9XZEOqsiCAXK7+iGbXvsMMOkzVr1uT9khuj9uRazxkduYSitz3oMyqCrj96I+Z/i5l//TMeOXKk9OvXL6WCFi1aiP5EG1HHAzeLlWNRnz59RLWBBQEEEEAAAQQQQMBYwJdAx+7du+WSSy6ROXPmGNesbylfvrwsW7ZM6tWrZ5rO742//vqrVKxYUX755RdHVd1+++3y6KOPOsqb70wEOvIt7n99QQcagq7ff+Fo1cD86994ffbZZ9KsWTNRgaSiRV16+cknn8gJJ5xQtMrxvwQ6HNOREQEEEEAAAQQQSBHwPNCxc+dOufjiixP33EipKcube++9V4YMGZJlS/5XNWzYUFauXOmoYhUk0Z9qkAiWOCogj5kIdOQRO09VBR1oCLr+PDFHohrmX/+Gae/evdK8eXP5+OOPUyp59tln5YYbbkhZ5/QNgQ6ncuRDAAEEEEAAAQRSBTwNdOzYsUP0a5cTN2RLrSb7uy+//FLUk0vCsKh2v/76646bcvfdd8uDDz7oOH++MhLoyJd0/uoJOtAQdP35kw53Tcy//s6/d911lzzyyCMpO4H+eHKZMmVKyjo3bwh0uNEjLwIIIIAAAgggcEjAs0DH6tWrpXPnzqJO7bWy1KxZU9atW2claV7S6DcklTFjxjiuS12G8/nnn0utWrUcl5GPjAQ6nCkvXrxYVDArqEX9EavuBZNt0W86KerXZrNF7Z9lypQxS+J4m5v6q1atKjVq1HBct9uMPXr0EPXZj/rC/Ovv/Dtv3jxp166dHDx4sHhXUfuuuvSySpUqxevcviDQ4VaQ/AgggAACCCCAwG8CngQ65s6dK5dffrls27bNsmv9+vVl1apVltP7nVB/GolMnTrVVTXnn3++zJo1S0qWLOmqHD8zE+hwpjtjxozEJVnOcpMrrAKtWrVK3EQyrO2z0i7m39+U/Jp/1SN6mzRpIt9++23KcOhPSJE//OEPKevcviHQ4VaQ/AgggAACCCCAwG8CrgIdBw4ckOHDh4s6pXf//v22TNXd6dWv1OqX5jAsbu7Rkdz+m266KWFSokSJ5NWheU2gw9lQEOhw5hb2XFEOdDD/Zu5dfsy/V111lfzf//1fSmU33nijPP300ynrvHhDoMMLRcpAAAEEEEAAAQR0AaeP2V2yZImm331eU0U4/e/55593Wr2n+fRH4DruQ7a+X3nlldrmzZs9baNXhelnrljqq35TQ6+qjEU506dPt+SWbX9gnfM5wm87PdARyf2T+dd4n/Jy/h03blzG5/6kk07S/Jof9bNEMupL/wzoj5eN5D5LoxFAAAEEEEAAgXwK2A50fPTRR9q1116r6Wdk5PxClv4FLf29KuOFF17IZ39T6lLBiIcfflgrW7as676k961ChQqafqaL9uGHH6bUGfQbAh3ORoBAh/Eflun7fpTeRy3QwfxrbT/0Yv5du3atdvTRR6ccG0qVKqXp9+txNolYyEWgwwISSRBAAAEEEEAAAQsCOS9d0ctIPE5v9uzZibvLL1y4UP87xtulQYMGiae1dOrUSU4++WSpVq2alC5d2pNK9u3bJ3pAI/GfusZaPQb2iy++ED0AIZ988ontS26cNKp69eqin/0ip59+ujRq1Ejq1auX+K9y5cpOinOVh0tXnPFx6Yozt7DnCvulK8y/7vcgJ/Ovcm/btm3GY9KvueYauf/++903yqCEOXPmyF/+8heDrb+tVsfJp556yjSN2qjuFVW3bt2c6UiAAAIIIIAAAgjEUSBnoOO+++6ToUOH5r3vhx9+uBx33HHy3nvvidOAwO233y7//Oc/8952qxV27dpVJk2aZDW5J+kIdDhjJNDhzC3sucIe6GD+9W8PMpt/1VOM1DEo6stzzz0nvXr1ino3aD8CCCCAAAIIIGBbIGeg45577pFhw4bZLtirDOqsC3XHeydL//79Lf3y5aRsL/KoO/arO/fncyHQ4UybQIczt7DnCnugg/nXvz3IbP6NS6Bj5MiRot/Twz9ESkYAAQQQQAABBEIqEOtAx4MPPiiDBw8OKb0kfmlTv7jlcyHQ4UxbvzdC4vIjZ7nJFVYBAh3mI+Mm0Bzl+ZdAh/l+wVYEEEAAAQQQQCDsAjkDHWHvAO2zJ0Cgw54XqRFAoPAECHQU3pjTYwQQQAABBBCIlwCBjniNZ87eEOjISUQCBBAocAECHQW+A9B9BBBAAAEEEIi8AIGOyA+hvQ4Q6LDnRWoEECg8AQIdhTfm9BgBBBBAAAEE4iVAoCNe45mzNwQ6chKRAAEEClwgLoGOUaNGSe/evQt8NOk+AggggAACCBSiAIGOAht1Ah0FNuB0FwEEbAtomiZz5861nc9thi+//FL+9re/mRbTuXNnGTBggGkatbFkyZLSokWLWDwmN2dnSYAAAggggAACCKQJEOhIA4n7WwIdcR9h+ocAAlEVUE+5OeOMM0ybrx4Xqx4by4IAAggggAACCCBgLECgw9gmllsIdMRyWOkUAgjEQIBARwwGkS4ggAACCCCAQCgECHSEYhjy1wgCHfmzpiYEEEDAjgCBDjtapEUAAQQQQAABBIwFCHQY28RyC4GOWA4rnUIAgRgIEOiIwSDSBQQQQAABBBAIhQCBjlAMQ/4aQaAjf9bUhAACCNgRINBhR4u0CCCAAAIIIICAsQCBDmObWG4h0BHLYaVTCCAQAwECHTEYRLqAAAIIIIAAAqEQINARimHIXyMuvfRSmTZtWs4Kd+7cKeXLl8+ZjgQIIIAAAt4IEOjwxpFSEEAAAQQQQAABAh0Ftg+cf/75Mm/evJy9JtCRk4gECCCAgKcCBDo85aQwBBBAAAEEEChgAQIdBTb4p59+uixdujRnr3/88Uc5+uijc6YjAQIIIICANwIEOrxxpBQEEEAAAQQQQIBARwHtA/v27ZOKFSvK7t27c/Z6+fLlcuqpp+ZMRwIEEEAAAW8ECHR440gpCCCAAAIIIIAAgY4C2gcWLVokLVq0sNTj1157TS6++GJLaUmEAAIIIOBegECHe0NKQAABBBBAAAEElACBjgLaD3r27CkvvPCCpR4/8sgjcscdd1hKSyIEEEAAAfcCBDrcG1ICAggggAACCCCgBAh0FMh+MGfOHOnQoYMcOHDAUo+PPPJIWbx4sTRs2NBSehIhgAACCLgTINDhzo/cCCCAAAIIIIBAkQCBjiKJmP67Z88eGTlypAwaNEj27t1rq5cnnXSSjB8/Xs466yxb+UiMAAIIIGBfgECHfTNyIIAAAggggAAC2QQIdGRTieC6lStXyubNm0U9Fnbr1q3yzTffiPrSPHv2bPnpp59c9Uid1aHu7XHyySdLtWrVpEqVKnLEEUdI2bJlRT3FpUyZMq7KJzMCCCCAgCTm7DPOOMOUok+fPongtWkiNiKAAAIIIIAAAgUuQKAjJjtAy5YtZeHChXnvzerVq+X444/Pe71UiAACCMRNgDM64jai9AcBBBBAAAEEghIg0BGUvMf1du3aVSZPnuxxqbmLW7NmjdSrVy93QlIggAACCJgKrFu3TurWrWt6LyXO6DAlZCMCCCCAAAIIIJAQINDBjoAAAggggAACCCCAAAIIIIAAArERINARm6GkIwgggAACCCCAAAIIIIAAAgggQKCDfQABBBBAAAEEEEAAAQQQQAABBGIjQKAjNkNJRxBAAAEEEEAAAQQQQAABBBBAgEAH+wACCCCAAAIIIIAAAggggAACCMRGgEBHbIaSjiCAAAIIIIAAAggggAACCCCAAIEO9gEEEEAAAQQQQAABBBBAAAEEEIiNAIGO2AwlHUEAAQQQQAABBBBAAAEEEEAAAQId7AMIIIAAAggggAACCCCAAAIIIBAbAQIdsRlKOoIAAggggAACCCCAAAIIIIAAAgQ62AcQQAABBBBAAAEEEEAAAQQQQCA2AgQ6YjOUdAQBBBBAAAEEEEAAAQQQQAABBAh0sA8ggAACCCCAAAIIIIAAAggggEBsBAh0xGYo6QgCCCCAAAIIIIAAAggggAACCBDoYB9AAAEEEEAAAQQQQAABBBBAAIHYCBDoiM1Q0hEEEEAAAQQQQAABBBBAAAEEECDQwT6AAAIIIIAAAggggAACCCCAAAKxESDQEZuhpCMIIIAAAggggAACCCCAAAIIIECgg30AAQQQQAABBBBAAAEEEEAAAQRiI0CgIzZDSUcQQAABBBBAAAEEEEAAAQQQQIBAB/sAAggggAACCCCAAAIIIIAAAgjERoBAR2yGko4ggAACCCCAAAIIIIAAAggggACBDvYBBBBAAAEEEEAAAQQQQAABBBCIjQCBjtgMJR1BAAEEEEAAAQQQQAABBBBAAAECHewDCCCAAAIIIIAAAggggAACCCAQGwECHbEZSjqCAAIIIIAAAggggAACCCCAAAIEOtgHEEAAAQQQQAABBBBAAAEEEEAgNgIEOmIzlHQEAQQQQAABBBBAAAEEEEAAAQQIdLAPIIAAAggggAACCCCAAAIIIIBAbAQIdMRmKOkIAggggAACCCCAAAIIIIAAAggQ6GAfQAABBBBAAAEEEEAAAQQQQACB2AgQ6IjNUNIRBBBAAAEEEEAAAQQQQAABBBAg0ME+gAACCCCAAAIIIIAAAggggAACsREg0BGboaQjCCCAAAIIIIAAAggggAACCCBAoIN9AAEEEEAAAQQQQAABBBBAAAEEYiNAoCM2Q0lHEEAAAQQQQAABBBBAAAEEEECAQAf7AAIIIIAAAggggAACCCCAAAIIxEaAQEdshpKOIIAAAggggAACCCCAAAIIIIAAgQ72AQQQQAABBBBAAAEEEEAAAQQQiI0AgY7YDCUdQQABBBBAAAEEEEAAAQQQQAABAh3sAwgggAACCCCAAAIIIIAAAgggEBsBAh2xGUo6ggACCCCAAAIIIIAAAggggAACBDrYBxBAAAEEEEAAAQQQQAABBBBAIDYCBDpiM5R0BAEEEEAAAQQQQAABBBBAAAEECHSwDyCAAAIIIIAAAggggAACCCCAQGwECHTEZijpCAIIIIAAAggggAACCCCAAAIIEOhgH0AAAQQQQAABBBBAAAEEEEAAgdgIEOiIzVDSEQQQQAABBBBAAAEEEEAAAQQQINDBPoAAAggggAACCCCAAAIIIIAAArERINARm6GkIwgggAACCCCAAAIIIIAAAgggQKCDfQABBBBAAAEEEEAAAQQQQAABBGIjQKAjNkNJRxBAAAEEEEAAAQQQQAABBBBAgEAH+wACCCCAAAIIIIAAAggggAACCMRGgEBHbIaSjiCAAAIIIIAAAggggAACCCCAAIEO9gEEEEAAAQQQQAABBBBAAAEEEIiNAIGO2AwlHUEAAQQQQAABBBBAAAEEEEAAAQId7AMIIIAAAggggAACCCCAAAIIIBAbAQIdsRlKOoIAAggggAACCCCAAAIIIIAAAgQ62AcQQAABBBBAAAEEEEAAAQQQQCA2AgQ6YjOUdAQBBBBAAAEEEEAAAQQQQAABBAh0sA8ggAACCCCAAAIIIIAAAggggEBsBAh0xGYo6QgCCCCAAAIIIIAAAggggAACCBDoYB9AAAEEEEAAAQQQQAABBBBAAIHYCBDoiM1Q0hEEEEAAAQQQQAABBBBAAAEEECDQwT6AAAIIIIAAAggggAACCCCAAAKxESDQEZuhpCMIIIAAAggggAACCCCAAAIIIECgg30AAQQQQAABBBBAAAEEEEAAAQRiI0CgIzZDSUcQQAABBBBAAAEEEEAAAQQQQIBAB/sAAggggAACCCCAAAIIIIAAAgjERoBAR2yGko4ggAACCCCAAAIIIIAAAggggACBDvYBBBBAAAEEEEAAAQQQQAABBBCIjQCBjtgMJR1BAAEEEEAAAQQQQAABBBBAAAECHewDCCCAAAIIIIAAAggggAACCCAQGwECHbEZSjqCAAIIIIAAAggggAACCCCAAAIEOtgHEEAAAQQQQAABBBBAAAEEEEAgNgIEOmIzlHQEAQQQQAABBBBAAAEEEEAAAQQIdLAPIIAAAggggAACCCCAAAIIIIBAbAQIdMRmKOkIAggggAACCCCAAAIIIIAAAggQ6GAfQAABBBBAAAEEEEAAAQQQQACB2AgQ6IjNUNIRBBBAAAEEEEAAAQQQQAABBBAg0ME+gAACCCCAAAIIIIAAAggggAACsREg0BGboaQjCCCAAAIIIIAAAggggAACCCBAoIN9AAEEEEAAAQQQQAABBBBAAAEEYiNAoCM2Q0lHEEAAAQQQQAABBBBAAAEEEECAQAf7AAIIIIAAAggggAACCCCAAAIIxEaAQEdshpKOIIAAAggggAACCCCAAAIIIIAAgQ72AQQQQAABBBBAAAEEEEAAAQQQiI0AgY7YDCUdQQABBBBAAAEEEEAAAQQQQAABAh3sAwgggAACCCCAAAIIIIAAAgggEBsBAh2xGUo6ggACCCCAAAIIIIAAAggggAACBDrYBxBAAAEEEEAAAQQQQAABBBBAIDYCBDpiM5R0BAEEEEAAAQQQQAABBBBAAAEECHSwDyCAAAIIIIAAAggggAACCCCAQGwECHTEZijpCAIIIIAAAggggAACCCCAAAIIEOhgH0AAAQQQQAABBBBAAAEEEEAAgdgIEOiIzVDSEQQQQAABBBBAAAEEEEAAAQQQINDBPoAAAggggAACCCCAAAIIIIAAArERINARm6GkIwgggAACCCCAAAIIIIAAAgggQKCDfQABBBBAAAEEEEAAAQQQQAABBGIjQKAjNkNJRxBAAAEEEEAAAQQQQAABBBBAgEAH+wACCCCAAAIIIIAAAggggAACCMRGgEBHbIaSjiCAAAIIIIAAAggggAACCCCAAIEO9gEEEEAAAQQQQAABBBBAAAEEEIiNAIGO2AwlHUEAAQQQQAABBBBAAAEEEEAAAQId7AMIIIAAAggggAACCCCAAAIIIBAbAQIdsRlKOoIAAggggAACCCCAAAIIIIAAAgQ62AcQQAABBBBAAAEEEEAAAQQQQCA2AgQ6YjOUdAQBBBBAAAEEEEAAAQQQQAABBAh0sA8ggAACCCCAAAIIIIAAAggggEBsBAh0xGYo6QgCCCCAAAIIIIAAAggggAACCBDoYB9AAAEEEEAAAQQQQAABBBBAAIHYCBDoiM1Q0hEEEEAAAQQQQAABBBBAAAEEECDQwT6AAAIIIIAAAggggAACCCCAAAKxESDQEZuhpCMIIIAAAggggAACCCCAAAIIIECgg30AAQQQQAABBBBAAAEEEEAAAQRiI0CgIzZDSUcQQAABBBBAAAEEEEAAAQQQQIBAB/sAAggggAACCCCAAAIIIIAAAgjERoBAR2yGko4ggAACCCCAAAIIIIAAAggggACBDvYBBBBAAAEEEEAAAQQQQAABBBCIjQCBjtgMJR1BAAEEEEAAAQQQQAABBBBAAAECHewDCCCAAAIIIIAAAggggAACCCAQGwECHbEZSjqCAAIIIIAAAggggAACCCCAAAIEOtgHEEAAAQQQQAABBBBAAAEEEEAgNgIEOmIzlHQEAQQQQAABBBBAAAEEEEAAAQQIdLAPIIAAAggggAACCCCAAAIIIIBAbAQIdMRmKOkIAggggAACCCCAAAIIIIAAAggQ6GAfQAABBBBAAAEEEEAAAQQQQACB2AgQ6IjNUNIRBBBAAAEEEEAAAQQQQAABBBAg0ME+gAACCCCAAAIIIIAAAggggAACsREg0BGboaQjCCCAAAIIIIAAAggggAACCCBAoIN9AAEEEEAAAQQQQAABBBBAAAEEYiNAoCM2Q0lHEEAAAQQQQAABBBBAAAEEEECAQAf7AAIIIIAAAggggAACCCCAAAIIxEaAQEdshpKOIIAAAggggAACCCCAAAIIIIAAgQ72AQQQQAABBBBAAAEEEEAAAQQQiI0AgY7YDCUdQQABBBBAAAEEEEAAAQQQQAABAh3sAwgggAACCCCAAAIIIIAAAgggEBsBAh2xGUo6gkB+BVavXi179uwxrLRWrVpSsWJFw+1sQAABBLwU2Ldvn2iaZlhkqVKlpGTJkobb2YAAAggggAAC8REg0BGfsaQnCORNQAU4KleuLLt37zas8+WXX5Zu3boZbmcDAggg4KVAw4YNZeXKlYZFtmvXTmbNmmW4nQ0IIIAAAgggEB8BAh3xGUt6gkDeBKZOnSpdunQxrK9MmTKyefNmOfroow3TsAEBBBDwUiBXoKN69eqyYcMGL6ukLAQQQAABBBAIqQCBjpAODM1CIMwC1113nYwdO9awiR07dpQ33njDcDsbEEAAAa8FCHR4LUp5CCCAAAIIRFfA10CHuob/mWeeCaXOySefLD179nTUtk8//VQmTJjgKK+bTCVKlJAePXrIaaed5qYY8iLgSmD//v1SrVo12bZtm2E5Tz/9tNx4442G29ngvwDzr7fGzL/eevpRGoGO3KrMC7mN7KRgXrCjRVoEEEAgzwL6jbt8W+bMmaPuChbK/zp16uS43y+99FJgfRo6dKjjdpMRAS8Ecn2u9S9+2saNG72oijJcCOQapyDnZuZfFwNLVkOBU045xfTYrF+6Ypi3UDYwL3j/nZTvZYXy6aGfCCAQNQF1h3LfFg6oHFB927koODCB/v37m/4x0aJFi8DaRsWHBJh/mX8P7Q2F8YpAR+5xZl5gXsi9l5ACAQQQiIeAr5euqJt+vfjii7Ju3Tr57rvvZPny5fL111+bPv7NzxNaateuLY0aNZL69etL27ZtTW+maNYOdeqn6tdXX32VuMP7ihUrZO/evWZZPNl25plnyuOPPy6tW7f2pDwKQcCugD7tSZ06dRKfZ6O8jz76qNx+++1Gm1mfJwHmX2+hmX+99fSjNC5dya3KvJDbyE4K5gU7WqRFAAEE8ivga6AjW1d+/vlneeedd2Ty5MmiXwIiO3fuzJbMk3XHHnusdO/eXS666CLRf2WWKlWqeFJueiEqyPHBBx/Iq6++KqNHj5atW7emJ3H8vmzZsnLFFVdI37595eyzz3ZcDhkR8ELgww8/lLPOOsu0qC+//FJOPPFE0zRsDEaA+deeO/OvPa+gUxPocDYCzAv23JgX7HmRGgEEEAhMIMgTU/THT2o33HCD6WnwOoyj7UOGDNF2796d9+7t2LFDO+eccxy1Obmv6j4HvXv31vSgSd77QIUIGAkMGjTIdN/Wz5gyysr6kAkw/xofW5h/Q7azWmwOl65YhDJJxrzAvGCye7AJAQQQiJSAr/fosCpxyy23mP7xlBwAsPJ6xIgRVqv2Jd327ds1ddMzK23NlkZ/Iow2f/58X9pGoQi4EdB/MTXdrwcPHuymePIGIMD8m/qHDfNvADuhR1US6PAIUi+GeYF5wbu9iZIQQACBYATyfumK/od91kVdmjFq1Kis2+ys1M+mkEWLFtnJ4kvabt26ySuvvGKr7NKlS8tdd90l+q/mcvjhh9vKS2IE/Bb44osvRD2W2Wz56KOPpGnTpmZJ2BZCAeZfEebfEO6YNpvEpSs2wXIkZ15gXsixi7AZAQQQCLVAaAIdepwncYNQdf8ON0u/fv1EP6PDTRGe5L3uuutk7Nixlss66qijEoGRdu3aWc5DQgTyKfDII48kAnFGdaqblK5du9ZoM+tDLMD8y/wb4t3TctMIdFimspSQeYF5wdKOQiIEEEAgpAKhCXQon48//liaNWsmBw8edMylnzovDzzwgOP8XmXM9YUruZ5atWrJjBkz5LTTTktezWsEQiXQvHlzWbx4sWGbBgwYIMOHDzfczoZwCzD/Mv+Gew/N3bpcx139klJRTx1hsS7AvMC8YH1vISUCCCAQLoFQBToUjXpKyqRJkxwrXXXVVTJhwgTH+b3I+P3330u1atUsFdWkSROZPn261KxZ01J6EiEQhMD69evluOOOM3009Lx58+S8884LonnU6ZEA869HkBQTiACBDn/YmRf8caVUBBBAAAF/BUIX6Hjvvffk3HPPddxrdUaIetRrkMvNN98sTzzxRM4mtG/fPhHUqVChQs60JEAgSIF///vf0qdPH8MmVK5cWTZt2iSHHXaYYRo2hF+A+Tf8Y0QLjQUIdBjbuNnCvOBGj7wIIIAAAkEJhC7QoSDUDUXff/99RyZHHHGE6I9klXLlyjnK7zaT+kLQunVrOXDggGlRHTp0kGnTpnHTUVMlNoZFQO2vb731lmFzevbsKc8//7zhdjZER4D5NzpjRUtTBQh0pHp4+Y55wUtNykIAAQQQyIdAKAMd6g+mXr16Oe7/5MmTpUuXLo7zO824cePGxD1Gcl0DrG44+uqrr4oKyrAgEHYB/XHJUrVqVdm3b59hU1XQ7pJLLjHczoboCDD/RmesaGmqAIGOVA8v3zEveKlJWQgggAAC+RAIZaBj9+7dUqNGDdmxY4cjgx49esj48eMd5XWaSbW5bdu2OS+badmypcycOTOwM06c9o98hSugPkvXXHONIcCRRx4pW7ZskbJlyxqmYUN0BJh/ozNWtDRVgEBHqoeX75gXvNSkLAQQQACBfAiEMtChOq4eEzty5EhHBuoPLnV2RcWKFR3lt5tJPSWma9euMnXqVNOs6qkq6vG5+WqXaWPYGBuBZcuWyejRo037M2TIEDn66KNN0xht7NatW+LRx0bb1b1m1B8YZoub+s3KZZs/Asy//rhSqr8CBDr89WVe8NeX0hFAAAEEvBUIbaBD/fHWuHFjx7196qmnpG/fvo7z28moHqv55JNPmmapV6+eLFiwQNTj7VgQ8FLg2muvlRdffNG0yHXr1jl6ss+ePXukSpUqsmvXLsPyW7VqJe+++67hdrXBaf+n34AAAEAASURBVP2mhbLRNwHmX99oKdhHAQIdPuLqRTMv+OtL6QgggAAC3gqENtChuqku81i4cKGjHqsgydKlSx3ltZNp+PDhcsstt5hmUU+kUDcpPfHEE03TsREBJwJ//vOfZdy4caZZ1eNh1eVgdhd1741LL73UMFvp0qUTZzO99NJLhmnUBqf1mxbKRl8FmH995aVwHwQIdPiAmlYk80IaCG8RQAABBEIrEOpAh/qVWv1a7XRRwYXmzZs7zZ4z35QpU0Sd1q8uXTFa1A1HZ8+eLS1atDBKwnoEXAn4GehQT1N54YUXDNunnsaiblTqV6DFsGI2+C7A/Os7MRV4LECgw2PQLMUxL2RBYRUCCCCAQCgFQh3oUKfN16xZU9RTH5wsfj7yUj3+9vzzzxd1gy6jpWTJkjJx4sREMMQoDesRcCvgV6Bj//79Uq1aNdm2bZthE//9738nzroi0GFIFNkNzL+RHbqCbTiBDv+HnnnBf2NqQAABBBDwSEAL+aLf/0LTu+rov3Llymk//vij5z1cs2aNpv+KnbNNjz32mOd1UyAC6QL6E1Fy7ov6pSPp2XK+nzNnjmm5JUqU0PRHKWt+1Z+zgSTwXYD513diKvBQ4JRTTjGds/R7ZHlYW+EWxbxQuGNPzxFAAIEoCUjYG/vZZ5+ZfnHJFQQZMWKEp1384YcftFxfplSb9LuTe1ovhSFgJOBXoOGmm24y/ezpl2MlmuRX/Ub9ZX3+BJh/82dNTe4Fch2bCXS4N1YlMC9440gpCCCAAAL+CoT60pWik1batGkj8+fPL3pr61/1SNdPP/3UVh6jxHv37pWOHTvKvHnzjJIk1nfu3FkmT54s6tIVFgT8FvDr0pU6derIt99+a9j8Rx55RO644w7xq37DitmQVwHm37xyU5kLAS5dcYFnMyvzgk0wkiOAAAII5F0gEoGOCRMmyNVXX+0YRz25xYubgeq/XMv48eNN23HWWWclAiH6ZTOm6diIgFcCfgQaPvroI2nWrJlpE1etWiX169cn0GGqFP2NzL/RH8NC6QGBjvyNNPNC/qypCQEEEEDAoYC/J4x4U/ovv/yiHXvssaan0evdN9yuP7nFdUPuuecew/KL6q5bt662adMm13VRAAJ2BPy4dGTQoEGm+/upp55a3EQ/6i8unBeBCzD/Bj4ENMCiAJeuWITyIBnzggeIFIEAAggg4KtA6O/RUdT7W2+91fQPr6JgQ7Z/9Ue8avqTW4qKsv3v888/n7PuSpUqJa5btV04GRBwKeBHoEH/ZdR0nx88eHBxq/2ov7hwXoRCgPk3FMNAI3IIEOjIAeTxZuYFj0EpDgEEEEDAU4FIXLqiBy9EnSbfoEED9dLR8uSTT0r//v1t5501a5ZcdNFFsm/fPsO8ZcqUkZkzZ8p5551nmIYNCPgl4PWlK1Y+a+rSlqZNmya65HX9fjlRrnMBK/uEWenMv2Y6bPNKgEtXvJK0Vg7zgjUnUiGAAAIIBCMQmUCH4rngggtk7ty5jqQaNWoky5Yts5V3+fLl0qpVK9mxY4dpPnXfjh49epimYSMCfgl4HWh49NFH5c477zRsrrpJ6dq1a4u3e11/ccG8CJUA82+ohoPGZBEg0JEFxedVzAs+A1M8AggggIBzAU/PD/G5sP/85z+mp9PrCqbbFyxYYLmFGzZs0GrXrm1anqpv2LBhlsskIQJ+CHh96Ujz5s1N93v12Nnkxev6k8vmdXgEmH/DMxa0JLsAl65kd/FzLfOCn7qUjQACCCDgRiBSZ3Sox7vWqlVLtmzZ4iiyo355Hjt2bM68u3btEvXotCVLlpimveGGG+TZZ581TcNGBPwW8PKMCj3Al/iM6ZOKYbPVWVVt27Yt3u5l/cWF8iJ0Asy/oRsSGpQmwBkdaSB5eMu8kAdkqkAAAQQQcCbgJkoSRN477rjD9NdmXcFwu7op6Q8//GDa7P3792t/+MMfDMsoKr9jx46aft8O07LYiEA+BLw8o2LUqFGm+37lypU19RlJXrysP7lcXodPgPk3fGNCiw4JcEbHIYt8vmJeyKc2dSGAAAIIWBWIzFNXijr01VdfaSVKlDD9Y6woGJHt3yeeeKKoqKz/9unTJ2fZTZo00X766aes+VmJQL4FvAw0tG/f3nT/79mzZ0b3vKw/o3BWhEqA+TdUw0Fj0gQIdKSB5Okt80KeoKkGAQQQQMCWQKQuXdEDF4mlQ4cO8tZbbxW9tfWvOrV1xYoVWfM89thjctttt2XdVrRSXTqzaNEiqVmzZtEq/kUgUAGvLh358ccf5Xe/+53pE4amTZsml1xySUp/vao/pVDehFaA+Te0Q1PwDePSleB2AeaF4OypGQEEEEAgu0AkAx2TJk2S7t27Z++RhbXz589PPE0lOenLL78sV1xxhTrDJXl1yusKFSrIu+++K40bN05ZzxsEghTwKtAwYcIEufrqqw27Ur58edm6dauULVs2JY1X9acUypvQCjD/hnZoCr5hBDqC2wWYF4Kzp2YEEEAAgewCkQx06PfGEP2JKLJp06bsvcqxVv0xN27cuOJU7733nrRr10727NlTvC79RalSpWT69OmifrVgQSBMAl4FGlTwUH1ZNVq6desmKiCYvnhVf3q5vA+nAPNvOMeFVokQ6AhuL2BeCM6emhFAAAEEDARsXegSosR333236b0E9O4abtd/kda2bduW6I26trRKlSqGaYvKee6550LUe5qCwCEBL+6RsXv3bk0/Y8P0czB+/PhDlSa98qL+pOJ4GQEB5t8IDFIBNpF7dAQ76MwLwfpTOwIIIIBAqkAkz+hQMZu1a9fKCSecIAcPHlRvbS+PP/64qF+iW7RoIatWrTLNP2jQIBk2bJhpGjYiEJSAF2dUqHtvXHrppYZdKF26tGzevFkqVqyYkcaL+jMKZUWoBZh/Qz08Bds4zugIduiZF4L1p3YEEEAAgVSByAY6VDc6deokb7zxRmqPLL47/vjjpUaNGol7bphl6dGjR+IyF/1JL2bJ2IZAYAJeBBquv/56GTNmjGEf1CVbb775ZtbtXtSftWBWhlqA+TfUw1OQjSPQEfywMy8EPwa0AAEEEEDgN4FIBzqmTJkil112mW9j2bZt28Qfd2XKlPGtDgpGwK2A20DDgQMHpGrVqqJfzmXYlFGjRknv3r2zbndbf9ZCWRl6Aebf0A9RwTWQQEfwQ868EPwY0AIEEEAAgd8EIh3o2L9/v9SpU0c2bNjg+Xjq1/rKggULpFKlSp6XTYEIeCngNtAwb948Of/88w2bpM5mWr9+vVSvXj1rGrf1Zy2UlaEXYP4N/RAVXAMJdAQ/5MwLwY8BLUAAAQQQ+E0g0oEO1YX77rtPhg4d6ul4ql+3Fy1aJHXr1vW0XApDwA8Bt4GGAQMGyJNPPmnYtObNm4t6MpHR4rZ+o3JZH34B5t/wj1EhtZBARzhGm3khHONAKxBAAIFCF4h8oOO7775LBCSc3pQ0fQcoV66cvP3229KsWbP0TbxHIJQCbgMN6qyob7/91rBvjzzyiNxxxx2G293Wb1gwG0IvwPwb+iEqqAYS6AjHcDMvhGMcaAUCCCBQ6AKRD3SoAbzkkkvktddecz2WJUuWlMmTJ0vnzp1dl0UBCORLwE2gYcmSJXLmmWeaNlU9lah+/fqGadzUb1goGyIjwPwbmaGKfUMJdIRniJkXwjMWtAQBBBAoVIFYBDpUkEMdVN0uI0aMkH79+rkthvwI5FXATaDhnnvuMX108qmnnirLly837Y+b+k0LZmMkBJh/IzFMBdFIAh3hGWbmhfCMBS1BAAEEClUgFoEO9dSIevXqiTpd0ukycOBAeeyxx5xmJx8CgQm4CTQ0atRIVqxYYdj2QYMGmQZCVEY39RtWzIbICDD/RmaoYt9QAh3hGWLmhfCMBS1BAAEEClUgFoEONXjqhqTqBlhOly1btkjlypWdZo9FPnWfk2nTpon6t0uXLqIu5WEJv4DTQIO6JKVBgwamHfzwww9zXtritH7TitkYKQHmX3+Ga+LEibJ9+/aUwtVZVq1atUpZx5vfBAh0hGtPYF7IPR67du1KPDlw48aNiX9/+uknOeqoo+SYY46RY489VtQTANW941gQQAABBOwLxCbQoR5/qW6qqH5FcLIMHz5c1NMnCnFRgQ31hVp9KVm5cmWCYOfOnVK+fPlC5Ihcn50GGh599FG58847Dftbu3Zt+eabbwy3F21wWn9Rfv6NvgDzr/djqObkK6+8MqPgPn36yMiRIzPWs0KEQEe49gLmhczxUI/fVTe8nzp1auI/sxuBq9ylSpWS0047Tc4991z561//Ko0bN84slDUIIIAAAtkFtBgtl156qab30tF/+in8MZKw1hU9wKHpX6Y1/RfCDDM90GGtEFIFLnDNNddkjF/650D/wpnRTv2xsab5brrppow82VY4rT9bWayLrgDzr3djp1+Gqem/6Gb9fOqBDu8qillJ+q/fWc2K5sPq1avHrMfh7w7zwm9jtHnzZk2/B5xWqVIl0320aF81+vfCCy/U5syZE/6Bp4UIIIBACAQkBG3wrAmvv/66qwPIwoULPWtLmAtSAY5JkyZp+q8Ehl4EOsI8gqltcxJoUIGPEiVKGI6/+pI1d+7c1IoM3jmp36AoVkdYgPnXm8FT83O7du0MP5sEOoydCXQY2wS1pdDnhT179mgPP/ywpl+OYviZNgpqmK1v1qxZ4oeqoMaVehFAAIEoCMQq0KFftqLpl684Ppj07NkzCmPmqo1TpkzRTj/99JxGBDpcMec1s5NAw7///W/TfUC/X42mn2JrqR9O6rdUMIkiJcD8681w6TfFNv1sEugwdibQYWwT1JZCnhcWLFig6ZeAmn6ezYIZVrb96U9/0lQwhQUBBBBAIFMgNvfo0A8IiaeuqBu1/fzzz+qt7UXd8EndEErdCCpui3rU2/333y8fffSRpa5xjw5LTKFI5OQeGR07dpSZM2catv+6666TMWPGGG5P3uCk/uT8vI6HgHrqFfOvu7FcunSpnHPOOfLrr78aFsQ9OgxpuEeHMU1gWwp1XtDPmpWrr75afvnlF9/t1Zyh7vlRtWpV3+uiAgQQQCBSApmxj2iu+fHHHzV1nw0d39V/o0aNiiaAQatnzJihnXXWWbZNOKPDADSEq+2eUaE/xUErXbq06T6hf2my3FO79VsumISREWD+dT9U6ldZK8cwzugwtuaMDmObILYU6rzwr3/9S9OfWmd6jHX7XTU9vzpzZPny5UEMM3UigAACoRWIxaUre/fuNb2mOf2AYPa+adOmoR0sOw178803tVw3mzRzINBhRzvYtHYDDePHjzf9AqY/bcfWqbB26w9Wi9q9FmD+9Ub05ptvNv1cFs3XBDqMvQl0GNvke0uhzgvqfhxFn9V8/3v88cdr+uNp8z3U1IcAAgiEViAWgY5rr73W0wPLhx9+GNoBy9WwWbNmaS1btnTtQaAjl3R4ttsNNHTv3t10/+jWrZutztmt31bhJA69APOv+yFSgelcNwcu+qOJQIexN4EOY5t8bynEeWHatGl5P5OjaF4o+rdHjx75HmrqQwABBEIrEPlAx3333Wf6R1vR5G/n3xtvvDG0A2bUMPWEjDZt2nhmQaDDSDp86+0EGtTp8eqMDbPPw7hx42x10k79tgomcegFmH/dD9HWrVu1GjVqmH4mkz+vBDqMzQl0GNvkc0shzgsrVqzQKlSoYPg5PuywwzT93ljagw8+qKkfpFR69Rjp1atXa++9956mbhT/P//zP5o6q9hq0DN5Xkh+PXbs2HwON3UhgAACoRWIdKDjxRdfNDyoJE/6dl+rx4BF6Q/99Lv0H3744VqnTp009WQNdTBdu3atpqxy/YGb7BSl/of205WnhtkJNKhfnJLHOf21uneHuoeHncVO/XbKJW24BZh/vRkfdQZV+ufQ7D2BDmN3Ah3GNvnaUojzgnoktH5D0KyfYxXg6Nevn7ZmzRrLQ6DfFF+7/fbbNf0G+VnLNJsf1LYjjzxS+/777y3XR0IEEEAgrgKRDXS8/fbbWpkyZRwdBHIdJNT20aNHR2bMBw8enHBQ9+RQkXyjIIX6pd5K31UaozIig1JADbUTaFCPUDbbB9q3b29bzk79tgsnQygFmH+9GZbnn3/e9POY7bNKoMPYnkCHsU0+thTqvGD03eq4447T3nnnHcf0mzZt0vQnt9ieI9S88fe//91xvWREAAEE4iIQyUDHF198oR1zzDGmk3/ZsmW1k046yTRNti+RRetU0CAqi/5IQk39l2tRly2YnVpZ1Hf1L4GOXJrh2W410LB//36tcuXKpp8JJ08dslp/eMRoiRsB5l83eofyfvXVV4lfXpPnXSuvCXQcMkx/RaAjXSR/7wt1Xti1a5dWq1atjOPqiSeeqKkzM7xYhg8frpUqVSqjDrP5QtWvzjRhQQABBApZIHKBDnU9s5rAzSZ4dX3jf//7X+399983TWdWhtr26aefxm7fOP300y2ZEOiIztBbDTTMmzfPdOzV52b9+vW2O261ftsFkyF0Asy/3gzJvn37tBYtWqR8HtXnr3///inrsh2jCHQYjwGBDmMbP7cU8rzw9NNPZ3xma9asqX399deekr/88su2790xe/ZsT9tAYQgggEDUBCIV6Pj1118t3XBTPcO8aFE3dsr2ZdHKOvWlM26LujTBSt8JdERn5K0GGgYMGGA69k7PYrJaf3REaWk2AebfbCrO1t1///0Zn0V1vHn11Vcz1qfP1wQ6jM0JdBjb+LWl0OeFs88+O+UzW7JkSVeXq5iNk92bvPIEFjNNtiGAQCEIRCrQYeVxZeqPueTlf//3f1MOQulfGs3eV6pUSVOXe8Rp6dKliyUPAh3RGXWrgYY6deqYjr3Ta3qt1h8dUVqaTYD5N5uK/XXqCQvpp6E3bNhQ2717N4EO+5wpOQh0pHDk5U0hzwvLli3LOKbedtttvrmrS1Hatm2bUafR99hTTz3Vt7ZQMAIIIBAFgcgEOh566KGck3vXrl21AwcOpLj//PPPlu9Lke1gYfdRmymVh/ANgY4QDorLJlkJNLzxxhs5Pz/qGmsni5X6nVwS46Qt5PFHgPnXG1d1PEq/9FI96eijjz5KVMAZHe6cCXS487Obu9DnhYEDB6YcV48//njtl19+sctoK/3ChQtT6sz2vbVonXrSHgsCCCBQyAKRCHSo54vneq64ut5Z/SKWbendu7flA0PRAaLo3zZt2mQrMrLrCHREdugMG24l0JDrshX1i7LTxUr9BDqc6gafj/nXuzHo1atXxrFI/bFYtBDoKJJw9i+BDmduTnIxL2gZQcsJEyY4obSd58ILL8yYR4q+s6b/u2XLFtvlkwEBBBCIi0DoAx3qaSLqmeDpk3fy+/r162tmk/knn3ximj+5rGyvP//887iMt0agIzZDWdwRK4GGXE8gGjRoUHF5dl9YqZ9Ah13VcKRn/vVuHCZNmpRxHGrVqlXKWYgEOtx5E+hw52c1N/OCpq1Zsybl89ykSZO8PeXkpZdeSqk72/fWonUffPCB1WElHQIIIBA7gVAHOtQzxHPdV6BKlSqaekxfriX9DvdFBwEr//p5zWWudnu9nUCH16LBl2cl0JBrP//www8dd8RK/QQ6HPMGlpH51zt6tf8fe+yxKX+cqEd9qz+WkhcCHcka9l8T6LBvZjcH88JvYun3f1NnuORr2bZtm6ZueprruK62T506NV/Noh4EEEAgdAKhDXSoy1DS72adPqkfccQR2qJFiyyhjh071tJBIb0O9V4FU9SdxeOwEOiIwyim9sFKoCHbfl20rnbt2qkF2nxnpX4CHTZRA07O/OvdAKgbCHbs2DHj+DNmzJiMSgh0ZJDYWkGgwxaX7cTMC4fIunXrVvyZVvfdSb8/3KGU/rzK9f246Pg+Y8YMfxpAqQgggEAEBEIZ6FBfDC+//PLig0jRhJ38r4pmT5482TKxOkCrp6gkl2Hn9cSJEy3XFeaEBDrCPDrO2mYl0GC2r7t9jLKV+gl0OBvbIHIx/3qr/sQTT2Qcd9QfSdkWAh3ZVKyvI9Bh3cpuSuaFVLHk75MjRoxI3ZiHd3/+858z5pVsx3l181IWBBBAoFAFQhnouPvuu3NO4E4OLDfffHPOcrMdKNS63//+97HYRwh0xGIYUzphJdBgtF+r9XPmzEkpz+4bK/UT6LCrGlx65l/v7NXjJ8uWLZty3Klevbq2devWrJUQ6MjKYnklgQ7LVLYTMi+kkv3jH//QOnfurJ122mnazp07Uzfm4Z26pNrsuF60beXKlXloDVUggAAC4RQIXaBDnc5bNEEb/Xvrrbc60lQTvlGZudarp76kX0/tqBEBZyLQEfAA+FC9lUCD0f6t7huwf/9+V62yUj+BDlfEecvM/OsdtXrMpLpBYfpn7/XXXzeshECHIY2lDQQ6LDHZTsS8YJvM9wwPP/xwxtySPteo763qkdYsCCCAQKEKhCrQoX5ZLl26tOnkfcUVV7i6s3Xbtm1Ny08/UCS/V79oRH0h0BH1Ecxsv5VAQ/J+nPz6uuuuyyzQ5hor9RPosIkaQHLmX2/RVUA++bOmXvft29e0EgIdpjw5NxLoyElkOwHzgm2yvGQYOnRoxvySPt+op62xIIAAAoUsEJpAhzrbIvmax/QJW71v3bq1pn4lc7P85z//yXlwyFa3WlejRg1t3759bqoPPC+BjsCHwPMGWAk0GO3TXtwp3kr9BDo8H3ZPC2T+9ZRTmzVrlqZ+TU3+3J188smauleU2UKgw0wn9zYCHbmN7KRgXrCjld+0Vi7FvvLKK/PbKGpDAAEEQiYQikDH5s2bteOPPz7lS2HyF0T1Wn1JVI/Ucruop6f87ne/M60rve7k9178Yei2D27yE+hwoxfOvFYCDcn7cNHr8uXL5/zDy0qPrdRPoMOKZDBpmH+9dVfHqVq1aqUcY9SZilYe4Uygw91YEOhw55ecm3khWSN8r3v06JEyxxQd15P/dXIvu/D1lBYhgAACzgUCD3SoX7iaN29uOmFXrVrV0/tj3HXXXab1JR8o0l9ffPHFzrVDkJNARwgGweMmWAk0pO/H6n3Xrl09aYmV+gl0eELteSHMv56TauryyvTP27BhwyxVRKDDEpNhIgIdhjS2NjAv2OIKJLG6CWr6PJP8Xp1Rtm7dukDaRqUIIIBAWAQCDXSo544nP4s8eZIueq1+df7ggw889Vq9enXGacVF9eX697DDDtO+++47T9uTz8IIdORTOz91WQk0ZNuvx40b50kDrdRPoMMTak8LYf71lDNR2NixYzP++GjZsqXlG/4S6HA3JgQ63Pmp3MwL7g39LmHXrl2a+i6a7bhetE79gMiCAAIIFLpAoIGOgQMHmk7UaiJ/7bXXfBmjCy+80LTuooNFtn+HDBniS5vyUSiBjnwo57cOK4GG9P1YnUq/fft2TxpqpX4CHZ5Qe1oI86+nnImzDo866qiU40qFChU0FVi3uhDosCqVPR2BjuwudtYyL9jRCibtu+++mzLPpB/f1fsnn3wymMZRKwIIIBAigcACHWoSzjY5J697+umnfaOaPHlyzvqT25L8uk6dOolfPXxrnI8FE+jwETegoq0EGpL3X/W6ffv2nrXWSv0EOjzj9qQg5l9PGIsLUY9oVmdupH/ORo8eXZzGygsCHVaUjNMQ6DC2sbKFecGKUvBp7r333oy5JnnuUTf257GywY8TLUAAgeAFAgl0TJo0SStZsqTpRK3uo+Hnor6Y1qxZ07QNyQeO9NczZszws3m+lU2gwzfawAq2EmhI339HjhzpWXut1E+gwzNu1wUx/7omzChA3YMj/TN22WWXZaTLtYJARy4h8+0EOsx9zLYyL5jphGtbw4YNM+ab5PnH7+/P4dKgNQgggICxQN4DHfPnz9fKli1rOklfddVV2sGDB41b7dGW++67z7QdyQeO9NdOvsR61GxXxRDocMUXysxWAg3J+6+6SZmXgQcr9XtZXygHISKNYv71fqAWL16slSpVKuVYUq1aNW3Lli22KyPQYZssJQOBjhQOy2+YFyxTBZ7ws88+S5lrko/t6nW5cuW0DRs2BN5OGoAAAgiEQSCvgY7ly5drxxxzjOkk3bZtW009AjYfi7qpaK4bOqUfRIreqy+2GzduzEczPa2DQIennKEozEqgoWi/Vf+ec845nrbbSv0EOjwld1QY868jNtNMO3fu1E466aSMY9r06dNN8xltJNBhJGNtPYEOa07JqZgXkjXC/3rw4MEZ803y8f3+++8PfydoIQIIIJAngbwFOr7++mutRo0aphP0qaee6tkNEq36XXrppaZtSj6ApL9++OGHrVYTmnQEOkIzFJ41xEqgIXnf/fvf/+5Z3aogK/UT6PCU3HZhzL+2ySxl+Otf/5px/Ojdu7elvNkSEejIpmJ9HYEO61YqJfOCPa+gU+/Zs0erUqVKxpxTdHyvXbu2ph4NzIIAAggg8JtAXgIdmzZt0k488UTDyVlN0tWrV9e++eabvI/L66+/btquogNItn9Vn/JxiY2XKAQ6vNQMR1lWAg3J++8XX3zhacOt1E+gw1NyW4Ux/9rispx4ypQpGceOBg0aaOrRj04XAh1O5X7LR6DDuh/zgnWrsKR89tlnM+ac5GP7Sy+9FJam0g4EEEAgFAK+BzrUIyybNGliOjkfeeSR2pIlSwIBUTclrVy5smn7kg8k6a9nz54dSLudVkqgw6lcePNZCTQU7bfqDwGvFyv1E+jwWt1aecy/1pzsplKXLab/sqouZ3z//fftFpWSnkBHCoftNwQ6rJExL1hzClMq9aOa2U1Iu3XrFqbm0hYEEEAgFAK+BjrUL1vZHrlX9EdX0b/PPPNMoBjXX3+940BH9+7dA2273coJdNgVC396K4GGos/a3Xff7XmHrNRPoMNz9pwFMv/mJHKc4KKLLso4ZgwdOtRxeUUZCXQUSTj7l0BHbjfmhdxGYUwxfvz4jDmn6LiuzojeunVrGJtNmxBAAIFABXwLdKjrBDt06GA4MRdN0BdccEGgAKpyK18ui9qb/q+6mWkQl9w4RSPQ4VQuvPmsBBqK9tsPPvjA845YqZ9Ah+fspgUy/5ryuNr41FNPZRzXWrRooamzA90uVo5Fffr0cVtNbPMT6DAfWuYFc5+wblX35qhTp07GvFN0XFeXYLMggAACCGQK+BLoUL8YqABG0SRs9G/58uW1NWvWZLYqz2t++eWXnI+8NeqDWn/77bfnucXOqyPQ4dwurDmtBBrUfnrcccf50gUr9RPo8IU+a6HMv1lZPFm5YsUK7Ygjjkg5tqlLL7/66itPyifQ4Y6RQIexH/OCsU3YtzzyyCMpc07y99E77rgj7M2nfQgggEBgAp4HOn7++WetTZs2hpNy8gR97733Btbx9IpzfUFKbnf664oVK+b9aTHp7bf6nkCHVanopLMSaFD7bP/+/X3plJX6CXT4Qp9RKPNvBolnK9Rjz88444yMY5u6QaBXC4EOd5K5juPqFP9CXJgXojvqGzZs0I4++uiMeUcd0zt27KgdOHAgup2j5QgggIDPAp4GOn788Uft3HPPzTohpwcH1Psvv/zS5+5ZL75Tp06W252tL37c+8B6662nJNBh3SoqKa0EGtQ+69eNc63UT6DD/72J+ddf4zvvvDPjGKEeT+7lQqDDnSaBjkw/5oVMkyitueSSSzLmHXU8V0/9UzeVZUEAAQQQMBYooTbpk6brZfXq1dK5c2f57LPPLJVVs2ZNWbdunaW0+Uik35BUxowZ47gq/TIc+fzzz6VWrVqOy8hHxssuu0z0xyLmrGrnzp2i+sTym8DixYtFD2YFxrFjxw7RL/PKWr9+SrLs3bs367bklfqZR1KiRInkVZ68tlK/2pfKlCmTUV/VqlWlRo0aGevztaJHjx6iPvtRX5h//Z1/582bJ+3atRP9yQfFu4rad5ctWyb601eK17l98dprr4n+h41pMfo9OmTkyJGmaQp1o/5UClm5cqVh9/UzOkT/hdxwe9w2MC/4Oy/4vb/oNyAV/YeEjGr0Mzxk4cKFovZ3FgQQQAABEwHjGIj1LXPmzNGOPfbYrFFnveqs6+vXr2+9gjykVL/MGbXV6vrzzz8/9KcRckaHs51p+vTprvcPq/sR6bLPGX64tGrVytkOEaJczL+/7S9+zb/qV9PatWtnfP7V2RdeL5zR4U6UMzoO+TEv+DsvHJL255V6hPUxxxyTMe+ULVtWe/vtt/2plFIRQACBmAm4unRF3WX+n//8p1aqVKmMyTjXHyXqaSX6WQOh4cz1BSlXf4q233TTTZp63nlYFwIdzkaGQEf+gg9Fn6V8/BvlQAfzb+Y+6cf8+6c//Snj+HbjjTc6m0hy5CLQkQMox+Zcx/FCuEcH80J+5oUcu6Krzep+QK1bt86Yd9T35ldeecVV2WRGAAEECknAcaBjyZIlWrNmzTImYjt/nDz//POhsJ45c6arfqT3+corr9Q2b94cir6lN4JAR7qItfcEOjK/PKbv91F8H9VAB/Ov8f7o5fw7bty4jGPDSSed5FuQnkCHtfnYKFWhBzqYF/IzLxjtf16t1y+nzJh31PH1mWee8aoKykEAAQQKQsB2oOOjjz7Srr32Wk1Flt3+YaPKeOGFFwKDVsGIhx9+2NWjZY0MKlSooN11113ahx9+GFj/slVMoCObSu51BDqMv0AafQaisD5qgQ7mX2v7oRfz79q1azOedqDOXtTv15N7wnCYgkCHQ7j/n61QAx3MC/mbF9ztoblz/+tf/8r63Vp9V2VBAAEEELAnkPNmpHpx8vHHH4v+xIbETSzVDZC8Xho0aCAXXXSR6E8+kZNPPlmqVasmpUuX9qSaffv2iR7QSPz37bffytdffy1ffPGF6AEI+eSTT0Q/zdOTeswKUTdA089+kdNPP10aNWok9erVS/xXuXJls2y+bONmpM5YZ8yYIRdffLGzzOQKrYAe6JD58+eHtn3Mv+6Hxsn8q9zbtm0r77zzTkoD1I0B77///pR1Xr7R76sgf/nLX0yLVMfJp556yjSN2liyZEmpW7duznRxSlAoNyNlXnC/1zqZF9zXal7CG2+8IX/4wx9Ef2RsSsJBgwbJsGHDUtbxBgEEEEDAgoB+wDRd7r333qzRZb1oX9cffvjhicdnbdmyxbR9Zhtvu+02X9vo1qBr165mzfdlG2d0OGPljA5/P+9uP0tO84f9jA7mX//2O7P5V10j73SfClO+5557ztmEF9FchXJGB/NCMPOCnx8L/YmFGWeQqblkwIABflZL2QgggECsBXJeujJ48OBAv/DpZ104HoB+/foF2vZcX3j1yL3jvjnNSKDDmRyBDv++WOb6nPi5PeyBDuZf//Y7s/k3LoEO/TG0zia8iOYqlEAH80Iw84JfH4tt27YlfthLP9bdcMMNob65vV8elIsAAgh4JRDrQId+ql+oAx29evXyahwtl0OgwzJVSkJ1r5X0LyG89+/LZr5sCXSYj6GbQHOU518CHSnTX2TeEOgw/zx7Na8W6rzgxwdBv7xau+CCCzK+X1x11VWafgmLH1VSJgIIIFAwAjnv0aEfGFliJMA9OuIzmOr+Aeedd55hh0qUKCHfffed1KxZ0zANGxBAIFNg7969ol8+mbkhYmv0MzqkT58+EWu18+YWyj06nAuRM0wC+l8aot/cX/SnO6U0S/9BSv773/+KfvPjlPW8QQABBBCwJ0Cgw55X5FMT6Ij8EBZ34JZbbpHhw4cXv09/cfbZZ4v+hIj01bxHAIEcAgQ6cgCFdDOBjpAODM3KKqBfXi0qGJm8dOzYUaZNmyZlypRJXs1rBBBAAAEHAgQ6HKBFOQuBjiiPXmrb1dN79Edgpq5Meqc/jk70RxwnreElAghYESDQYUUpfGkIdIRvTGhRdoG7775b1DE6eWnTpo2oJ68cccQRyat5jQACCCDgUIBAh0O4qGYj0BHVkUttt3rkc9OmTVNXpr37/PPPRT26mQUBBOwJxCXQMWrUKOndu7e9zkc4NYGOCA9eATX9kUceyfgRQp2BOWvWLKlQoUIBSdBVBBBAwF8BAh3++oaudAIdoRsSRw3SHy8oDzzwgGFe/aZ8oj+uznA7GxBAwFhAXTs/d+5c4wQ+bfnyyy//H3v3HqzXdD8OeCWICCoqIeTiUinq1iKaVFTIkKFCKuoPcUubGXWraiuMMEp1vsPUuMSlo3UJybQM4j7uDXEJRQdRrbpEQkTiFiVBEuf3rre/RBJnv+ec993vefe797NnMjnvXnuvtT7PWlk553P2Jfz85z+vWPtBBx0USq+crHhMLOzatWsYMmRILp410maw//8AiY72SjmuUQJXXnnl156bs9NOO4Vp06aFDTfcsFHd0i4BAgRyKSDRkcthTQ5KoiPZpplK4jdGL774YmKX42Wxv//97xPLFRAgkD2B0tsswve+972KHYsPF139vv6KJxSoUKKjQIPdhKFOmTIlHHXUUeHLL79c0ft41WV8sPjGG2+8Yp8vCBAgQCAdAYmOdBybphaJjqYZqsSOvvrqq2HgwIGJ5bHg6aefDoMGDap4jEICBLIlINFR23hIdNTm5+z6CcQHjI4ePTosXbp0RSPxOVvTp0/vtDej3XLLLeG+++4L48aNC/FWGRsBAgTyLiDRkfcRXi0+iY7VQJrw4x/+8Idw6qmnJva8f//+Yfbs2YnlCggQyKaAREdt4yLRUZufs+sj8NBDD4Uf/ehH4fPPP1/RQHzte0xyxGRHZ2xz584N22+/ffjoo4/CoYceWn59bWe0qw0CBAg0UkCio5H6DWhboqMB6Ck3uccee4Qnnngisdb4yrqJEycmlisgQCCbAhIdtY2LREdtfs5OX2DGjBlh3333DZ988smKyuNtKo888kjYdtttV+yr5xfxmUMHHHBA+Y0usZ3bbrstHHzwwfVsUt0ECBDIhIBERyaGofM6IdHRedb1aGnevHnly1xXvsd39Xbib4/22Wef1Xf7TIBAxgUkOmobIImO2vycna7ACy+8EIYNGxY+/PDDFRXHB47GBx3vvPPOK/bV+4sLLrggnHbaaeVm4pUkb775ZlhjjTXq3az6CRAg0HABiY6GD0HndkCio3O9027tqquuCscee2xitd/85jfDu+++G9Zcc83EYxQQIJBNAYmO2sZFoqM2P2enJxDfoLTnnnuW/z9eXmt8dWx8hWxnPh/jhhtuCGPHjg3Lli0rdyO+se2cc85Z3iV/EyBAINcCEh25Ht6vBxcvV4wPxWpri5dZrrvuum0dpryTBfbff/8Vl5+21vTRRx8drrvuutaK7CNAIOMCEh21DZBER21+zk5HYM6cOWHo0KGrPCtrnXXWKf/f/cMf/jCdRtpRy7XXXlt+8OjyK0DjK6ffeOONMGDAgHac7RACBAg0v4BER/OPYYci2Hvvvcvva2/rJImOtoQ6v3zhwoXlV9B98cUXiY1PnTo1jBo1KrFcAQEC2RWQ6KhtbCQ6avNzdu0C8+fPL1/J8corr6yorFu3buVfMI0YMWLFvnp+EW+Nic/pis/iiM/nWL7FB6Leddddyz/6mwABArkXkOjI/RCvGuB3v/vd8Pzzz6+6s5VP8cncG2ywQSsldjVK4C9/+Us4/PDDE5vv0aNHeO+990L8zZGNAIHmE5DoqG3MJDpq83N2bQLx+6b4TI7Vv8eKz8Oo5y8gYjIjth3//4/P8YrJlta2eDXvyJEjWyuyjwABArkUkOjI5bC2HtSSJUtCz549w6JFi1o/YKW9M2fOLL+KbKVdvmywwGGHHVbxlXDx+Su33nprg3upeQIEqhWQ6KhW7n/nSXTU5ufs6gU+/fTT8ttVnnzyyeorqeOZ/fr1C7NmzfIQ0joaq5oAgewJSHRkb0zq1qP4mrMhQ4a0q/54eWO8zNGWDYHPPvss9O7de5VX1K3es+uvvz4ceeSRq+/2mQCBJhGQ6KhtoCQ6avNzdnUCn3/+eTjwwAPLDxqtrob6n3X22WeH3/72t/VvSAsECBDIkIBER4YGo95diU/ebu+DKs8///wwfvz4endJ/e0UuPvuu8vfSCUdHt+yEi9Xja+usxEg0JwCEh21jZtER21+zu64wNKlS8NPfvKT8vMwOn5255wRb52JV3PEqzpsBAgQKJKAREdBRvvhhx8O++2334pXjLUV9nrrrReeeuqpEL9xtDVeYNy4ceHqq69O7Mjw4cMz/dukxI4rIEBghYBExwqKqr6Q6KiKzUlVCsRnY8Q3ncVXuGZ5i1eb3HnnnVnuor4RIECgLgISHXVhzU6lixcvDpdffnmYMGFCqPS2jtZ6/O1vfztMnjw5DBo0qLVi+zpJYNmyZWHTTTcNCxYsSGzxsssuCyeccEJiuQICBLIvINFR2xhJdNTm5+yOCZx44onl7686dlbnHx2THDHZYSNAgEDRBCQ6cjLiL7/8cvnWhfha2Pjk7TfffDPEb5ofeuih8PHHH9cUZfzmMT7bY9tttw19+vQpPysivtmje/fuIb7FJb46zVY/gUcffTTstddeiQ106dIlzJkzJ/Tt2zfxGAUECGRfQKKjtjGS6KjNz9ntFzjjjDPC//3f/7X/hAYd2b9///DGG294CGmD/DVLgEBjBSQ6GuufWut77LFHeOKJJ1Krr70Vvfbaa2GrrbZq7+GOq0LglFNOCRdffHHimbvvvnv5NqPEAxQQINAUAhIdtQ2TREdtfs5un8Dbb7/dNM+7iA8gjQ8itREgQKCIAhIdORn1Qw45JEydOrXTo3n99dfDlltu2entFqnB6BsfJJa0xd8qnX766UnF9hMg0CQCb731Vthiiy0qPkvp+OOPb4rL5RtBLtHRCPXitblw4cLy1a3xbWhZ3uJDSOPVva72zPIo6RsBAvUUkOiop666CdQo8Pzzz5dvD6pUzb/+9a+wzTbbVDpEGQECBHIvINGR+yEWIAECBAgQaLeAREe7qRxIoPMFZs+eHe65557Ehtdee+0QXxtsI0CAQNEF4gOZ4/OKkrb4+u1JkyYlFdtPgAABAgQI5EhAoiNHgykUAgQIECBAgAABAgQIECBQdAGJjqLPAPETIECAAAECBAgQIECAAIEcCUh05GgwhUKAAAECBAgQIECAAAECBIouINFR9BkgfgIECBAgQIAAAQIECBAgkCMBiY4cDaZQCBAgQIAAAQIECBAgQIBA0QUkOoo+A8RPgAABAgQIECBAgAABAgRyJCDRkaPBFAoBAgQIECBAgAABAgQIECi6gERH0WeA+AkQIECAAAECBAgQIECAQI4EJDpyNJhCIUCAAAECBAgQIECAAAECRReQ6Cj6DBA/AQIECBAgQIAAAQIECBDIkYBER44GUygECBAgQIAAAQIECBAgQKDoAhIdRZ8B4idAgAABAgQIECBAgAABAjkSkOjI0WAKhQABAgQIECBAgAABAgQIFF1AoqPoM0D8BAgQIECAAAECBAgQIEAgRwISHTkaTKEQIECAAAECBAgQIECAAIGiC0h0FH0GiJ8AAQIECBAgQIAAAQIECORIQKIjR4MpFAIECBAgQIAAAQIECBAgUHQBiY6izwDxEyBAgAABAgQIECBAgACBHAlIdORoMIVCgAABAgQIECBAgAABAgSKLiDRUfQZIH4CBAgQIECAAAECBAgQIJAjAYmOHA2mUAgQIECAAAECBAgQIECAQNEFJDqKPgPET4AAAQIECBAgQIAAAQIEciQg0ZGjwRQKAQIECBAgQIAAAQIECBAouoBER9FngPgJECBAgAABAgQIECBAgECOBCQ6cjSYQiFAgAABAgQIECBAgAABAkUXkOgo+gwQPwECBAgQIECAAAECBAgQyJGAREeOBlMoBAgQIECAAAECBAgQIECg6AISHUWfAeInQIAAAQIECBAgQIAAAQI5EpDoyNFgCoUAAQIECBAgQIAAAQIECBRdQKKj6DNA/AQIECBAgAABAgQIECBAIEcCEh05GkyhECBAgAABAgQIECBAgACBogtIdBR9BoifAAECBAgQIECAAAECBAjkSECiI0eDKRQCBAgQIECAAAECBAgQIFB0AYmOos8A8RMgQIAAAQIECBAgQIAAgRwJSHTkaDCFQoAAAQIECBAgQIAAAQIEii4g0VH0GSB+AgQIECBAgAABAgQIECCQIwGJjhwNplAIECBAgAABAgQIECBAgEDRBSQ6ij4DxE+AAAECBAgQIECAAAECBHIkINGRo8EUCgECBAgQIECAAAECBAgQKLqAREfRZ4D4CRAgQIAAAQIECBAgQIBAjgQkOnI0mEIhQIAAAQIECBAgQIAAAQJFF5DoKPoMED8BAgQIECBAgAABAgQIEMiRgERHjgZTKAQIECBAgAABAgQIECBAoOgCEh1FnwHiJ0CAAAECBAgQIECAAAECORKQ6MjRYAqFAAECBAgQIECAAAECBAgUXUCio+gzQPwECBAgQIAAAQIECBAgQCBHAhIdORpMoRAgQIAAAQIECBAgQIAAgaILSHQUfQaInwABAgQIECBAgAABAgQI5EhAoiNHgykUAgQIECBAgAABAgQIECBQdAGJjqLPAPETIECAAAECBAgQIECAAIEcCUh05GgwhUKAAAECBAgQIECAAAECBIouINFR9BkgfgIECBAgQIAAAQIECBAgkCMBiY4cDaZQCBAgQIAAAQIECBAgQIBA0QUkOoo+A8RPgAABAgQIECBAgAABAgRyJCDRkaPBFAoBAgQIECBAgAABAgQIECi6gERH0WeA+AkQIECAAAECBAgQIECAQI4EJDpyNJhCIUCAAAECBAgQIECAAAECRReQ6Cj6DBA/AQIECBAgQIAAAQIECBDIkYBER44GUygECBAgQIAAAQIECBAgQKDoAhIdRZ8B4idAgAABAgQIECBAgAABAjkSkOjI0WAKhQABAgQIECBAgAABAgQIFF1AoqPoM0D8BAgQIECAAAECBAgQIEAgRwISHTkaTKEQIECAAAECBAgQIECAAIGiC0h0FH0GiJ8AAQIECBAgQIAAAQIECORIQKIjR4MpFAIECBAgQIAAAQIECBAgUHQBiY6izwDxEyBAgAABAgQIECBAgACBHAlIdORoMIVCgAABAgQIECBAgAABAgSKLiDRUfQZIH4CBAgQIECAAAECBAgQIJAjAYmOHA2mUAgQIECAAAECBAgQIECAQNEFJDqKPgPET4AAAQIECBAgQIAAAQIEciQg0ZGjwRQKAQIECBAgQIAAAQIECBAouoBER9FngPgJECBAgAABAgQIECBAgECOBCQ6cjSYQiFAgAABAgQIECBAgAABAkUXkOgo+gwQPwECBAgQIECAAAECBAgQyJGAREeOBlMoBAgQIECAAAECBAgQIECg6AISHUWfAeInQIAAAQIECBAgQIAAAQI5EpDoyNFgCoUAAQIECBAgQIAAAQIECBRdQKKj6DNA/AQIECBAgAABAgQIECBAIEcCEh05GkyhECBAgAABAgQIECBAgACBogtIdBR9BoifAAECBAgQIECAAAECBAjkSECiI0eDKRQCBAgQIECAAAECBAgQIFB0AYmOos8A8RMgQIAAAQIECBAgQIAAgRwJSHTkaDCFQoAAAQIECBAgQIAAAQIEii4g0VH0GSB+AgQIECBAgAABAgQIECCQIwGJjhwNplAIECBAgAABAgQIECBAgEDRBSQ6ij4DxE+AAAECBAgQIECAAAECBHIkINGRo8EUCgECBAgQIECAAAECBAgQKLqAREfRZ4D4CRAgQIAAAQIECBAgQIBAjgQkOnI0mEIhQIAAAQIECBAgQIAAAQJFF5DoKPoMED8BAgQIECBAgAABAgQIEMiRgERHjgZTKAQIECBAgAABAgQIECBAoOgCEh1FnwHiJ0CAAAECBAgQIECAAAECORKQ6MjRYAqFAAECBAgQIECAAAECBAgUXUCio+gzQPwECBAgQIAAAQIECBAgQCBHAhIdORpMoRAgQIAAAQIECBAgQIAAgaILSHQUfQaInwABAgQIECBAgAABAgQI5EhAoiNHgykUAgQIECBAgAABAgQIECBQdAGJjqLPAPETIECAAAECBAgQIECAAIEcCUh05GgwhUKAAAECBAgQIECAAAECBIouINFR9BkgfgIECBAgQIAAAQIECBAgkCMBiY4cDaZQCBAgQIAAAQIECBAgQIBA0QUkOoo+A8RPgAABAgQIECBAgAABAgRyJCDRkaPBFAoBAgQIECBAgAABAgQIECi6gERH0WeA+AkQIECAAAECBAgQIECAQI4EJDpyNJhCIUCAAAECBAgQIECAAAECRReQ6Cj6DBA/AQIECBAgQIAAAQIECBDIkYBER44GUygECBAgQIAAAQIECBAgQKDoAhIdRZ8B4idAgAABAgQIECBAgAABAjkSkOjI0WAKhQABAgQIECBAgAABAgQIFF1AoqPoM0D8BAgQIECAAAECBAgQIEAgRwISHTkaTKEQIECAAAECBAgQIECAAIGiC0h0FH0GiJ8AAQIECBAgQIAAAQIECORIQKIjR4MpFAIECBAgQIAAAQIECBAgUHQBiY6izwDxEyBAgAABAgQIECBAgACBHAlIdORoMIVCgAABAgQIECBAgAABAgSKLiDRUfQZIH4CBAgQIECAAAECBAgQIJAjAYmOHA2mUAgQIECAAAECBAgQIECAQNEFJDqKPgPET4AAAQIECBAgQIAAAQIEciQg0ZGjwRQKAQIECBAgQIAAAQIECBAouoBER9FngPgJECBAgAABAgQIECBAgECOBCQ6cjSYQiFAgAABAgQIECBAgAABAkUXkOgo+gwQPwECBAgQIECAAAECBAgQyJGAREeOBlMoBAgQIECAAAECBAgQIECg6AISHUWfAeInQIAAAQIECBAgQIAAAQI5EpDoyNFgCoUAAQIECBAgQIAAAQIECBRdQKKj6DNA/AQIECBAgAABAgQIECBAIEcCEh05GkyhECBAgAABAgQIECBAgACBogtIdBR9BoifAAECBAgQIECAAAECBAjkSECiI0eDKRQCBAgQIECAAAECBAgQIFB0AYmOos8A8RMgQIAAAQIECBAgQIAAgRwJSHTkaDCFQoAAAQIECBAgQIAAAQIEii4g0VH0GSB+AgQIECBAgAABAgQIECCQIwGJjhwNplAIECBAgAABAgQIECBAgEDRBSQ6ij4DxE+AAAECBAgQIECAAAECBHIkINGRo8EUCgECBAgQIECAAAECBAgQKLqAREfRZ4D4CVQp8Nprr4XFixcnnt2vX7/Qs2fPxHIFBAgQSFNgyZIloaWlJbHKNddcM3Tt2jWxXAEBAgQIECCQHwGJjvyMpUgIdJpATHD06tUrLFq0KLHNm2++OYwePTqxXAEBAgTSFPjOd74TXn755cQqhw8fHh588MHEcgUECBAgQIBAfgQkOvIzliIh0GkCt99+exg1alRie926dQvz588PG2ywQeIxCggQIJCmQFuJjk033TTMnTs3zSbVRYAAAQIECGRUQKIjowOjWwSyLHDMMceESZMmJXZxxIgR4d57700sV0CAAIG0BSQ60hZVHwECBAgQaF6BuiY64j38V111VSZ1tt122zB27Niq+vbCCy+EKVOmVHVuLSd16dIljBkzJuy44461VONcAjUJLF26NPTp0ye8//77ifX88Y9/DMcee2xiuYL6C1h/0zW2/qbrWY/aJDraVrUutG3UkSOsCx3RciwBAgQ6WaD04K66bQ8//HB8Klgm/+y///5Vx33jjTc2LKZzzz236n47kUAaAm39uy5949fyzjvvpNGUOmoQaGucGrk2W39rGFinJgpst912Ff9vLt26knhuUQqsC+l/T+r7sqL86xEnAQLNJhCfUF63zX+o/kOt2+RYbNXOAAAS6UlEQVRSccMETjrppIo/TAwZMqRhfdPwVwLWX+vvV7OhGF9JdLQ9ztYF60Lbs8QRBAgQyIdAXW9diQ/9uv7668Nbb70V5syZE2bOnBneeOONiq9/q+cFLQMGDAg77LBDGDhwYBg2bFjFhylW6ke89DPG9eqrr5af8P7SSy+FL774otIpqZTtuuuu4aKLLgp77rlnKvWphEBHBUrLXth8883L/56Tzr3gggvCqaeemlRsfycJWH/Thbb+putZj9rcutK2qnWhbaOOHGFd6IiWYwkQINC5AnVNdLQWyn//+9/w6KOPhqlTp4bSLSDhk08+ae2wVPZttNFG4dBDDw0HHHBAKP2WOfTu3TuVelevJCY5/v73v4c777wzXH311eG9995b/ZCqP3fv3j0cdthh4YQTTgi777571fU4kUAaAs8880wYNGhQxar+85//hK233rriMQobI2D97Zi79bdjXo0+WqKjuhGwLnTMzbrQMS9HEyBAoGECjbwwpfT6yZZx48ZVvAy+BFNV+TnnnNOyaNGiTg9v4cKFLd///ver6vPKscbnHBx33HEtpaRJp8egQQJJAhMmTKg4t0tXTCWdan/GBKy/yf+3WH8zNlnb2R23rrQTqsJh1gXrQoXpoYgAAQJNJVDXZ3S0V+KUU06p+MPTygmA9nw9ceLE9jZdl+M+/PDDlvjQs/b0tbVjSm+EaZk+fXpd+qZSArUIlH5jWnFen3nmmbVU79wGCFh/V/3BxvrbgEmYUpMSHSlBlqqxLlgX0ptNaiJAgEBjBDr91pXSD/atbvHWjCuuuKLVso7sLF1NEWbMmNGRU+py7OjRo8Ott97aobrXWmutcPrpp4fSb83D2muv3aFzHUyg3gL//ve/Q3wtc6Xt2WefDbvsskulQ5RlUMD6G4L1N4MTs4NdcutKB8HaONy6YF1oY4ooJkCAQKYFMpPoKOV5yg8Ijc/vqGU78cQTQ+mKjlqqSOXcY445JkyaNKnddX3jG98oJ0aGDx/e7nMcSKAzBc4///xyIi6pzfiQ0lmzZiUV259hAeuv9TfD07PdXZPoaDdVuw60LlgX2jVRHESAAIGMCmQm0RF9/vGPf4TddtstfPnll1VzlS6dD7/73e+qPj+tE9v6hmvldvr16xfuueeesOOOO66829cEMiUwePDg8NRTTyX26eSTTw4XX3xxYrmCbAtYf62/2Z6hbfeurf93S7eUhvjWEVv7BawL1oX2zxZHEiBAIFsCmUp0RJr4lpRbbrmlaqXDDz88TJkyperz0zjx3XffDX369GlXVTvvvHO4++67Q9++fdt1vIMINELg7bffDv3796/4auhp06aFvfbaqxHd02ZKAtbflCBV0xABiY76sFsX6uOqVgIECBCor0DmEh1PPvlk+MEPflB11PGKkPiq10Zuv/zlL8Mll1zSZhf23XffclJn/fXXb/NYBxBopMCVV14Zjj/++MQu9OrVK8ybNy+sscYaiccoyL6A9Tf7Y6SHyQISHck2tZRYF2rRcy4BAgQINEogc4mOCBEfKPr0009XZbLOOuuE0itZQ48ePao6v9aT4jcEe+65Z1i2bFnFqvbbb79wxx13eOhoRSWFWRGI8/WBBx5I7M7YsWPDNddck1iuoHkErL/NM1Z6uqqARMeqHml+si6kqakuAgQIEOgMgUwmOuIPTD/72c+qjn/q1Klh1KhRVZ9f7YnvvPNO+Rkjbd0DHB84euedd4aYlLERyLpA6XXJYZNNNglLlixJ7GpM2o0cOTKxXEHzCFh/m2es9HRVAYmOVT3S/GRdSFNTXQQIECDQGQKZTHQsWrQobLbZZmHhwoVVGYwZMyZMnjy5qnOrPSn2ediwYW3eNrPHHnuE+++/v2FXnFQbn/OKKxD/LR155JGJAOutt15YsGBB6N69e+IxCppHwPrbPGOlp6sKSHSs6pHmJ+tCmprqIkCAAIHOEMhkoiMGHl8Te/nll1dlEH/gildX9OzZs6rzO3pSfEvMIYccEm6//faKp8a3qsTX53ZWvyp2RmFuBF588cVw9dVXV4znnHPOCRtssEHFY5IKR48eXX71cVJ5fNZM/AGj0lZL+5XqVVYfAetvfVzVWl8BiY76+loX6uurdgIECBBIVyCziY74w9tOO+1UdbSXXXZZOOGEE6o+vyMnxtdqXnrppRVP2XLLLcPjjz8e4uvtbATSFDj66KPD9ddfX7HKt956q6o3+yxevDj07t07fPrpp4n1Dx06NDz22GOJ5bGg2vYrVqqwbgLW37rRqriOAhIddcQtVW1dqK+v2gkQIEAgXYHMJjpimPE2jyeeeKKqiGOS5Pnnn6/q3I6cdPHFF4dTTjml4inxjRTxIaVbb711xeMUEqhG4Kijjgo33HBDxVPj62Hj7WAd3eKzNw4++ODE09Zaa63y1Uw33nhj4jGxoNr2K1aqsK4C1t+68qq8DgISHXVAXa1K68JqID4SIECAQGYFMp3oiL+ljr+trnaLyYXBgwdXe3qb5912220hXtYfb11J2uIDRx966KEwZMiQpEPsJ1CTQD0THfFtKtddd11i/+LbWOKDSuuVaElsWEHdBay/dSfWQMoCEh0pg7ZSnXWhFRS7CBAgQCCTAplOdMTL5vv27RviWx+q2er5ysv4+tu99947xAd0JW1du3YNN910UzkZknSM/QRqFahXomPp0qWhT58+4f3330/s4pVXXlm+6kqiI5GoaQusv007dIXtuERH/YfeulB/Yy0QIECAQEoCLRnfSs+/aCmFWtWfHj16tHz00UepR/j666+3lH6L3WafLrzwwtTbViGB1QVKb0Rpcy6Wbh1Z/bQ2Pz/88MMV6+3SpUtL6VXKLfVqv80OOqDuAtbfuhNrIEWB7bbbruKaVXpGVoqtFbcq60Jxx17kBAgQaCaBkPXO/vOf/6z4jUtbSZCJEyemGuIHH3zQ0tY3U7FPpaeTp9quyggkCdQr0fCLX/yi4r+90u1Y5S7Vq/2keO3vPAHrb+dZa6l2gbb+b5boqN041mBdSMdRLQQIECBQX4FM37qy/KKVH/7wh2H69OnLP3bo7/hK1xdeeKFD5yQd/MUXX4QRI0aEadOmJR1S3n/QQQeFqVOnhnjrio1AvQXqdevK5ptvHmbPnp3Y/fPPPz+MHz8+1Kv9xIYVdKqA9bdTuTVWg4BbV2rA6+Cp1oUOgjmcAAECBDpdoCkSHVOmTAlHHHFE1TjxzS1pPAy09JvrMHny5Ir9GDRoUDkRUrptpuJxCgmkJVCPRMOzzz4bdtttt4pdfOWVV8LAgQMlOioqNX+h9bf5x7AoEUh0dN5IWxc6z1pLBAgQIFClQH0vGEmn9s8++6xlo402qngZfSn8xPLSm1tq7shZZ52VWP/ytrfYYouWefPm1dyWCgh0RKAet45MmDCh4nzffvvtV3SxHu2vqNwXDRew/jZ8CHSgnQJuXWknVAqHWRdSQFQFAQIECNRVIPPP6Fge/a9//euKP3gtTza09nfpFa8tpTe3LK+qw39fc801bba94YYblu9b7XDlTiBQo0A9Eg2l34xWnPNnnnnmil7Xo/0VlfsiEwLW30wMg060ISDR0QZQysXWhZRBVUeAAAECqQo0xa0rpeRFiJfJb7PNNvHLqrZLL700nHTSSR0+98EHHwwHHHBAWLJkSeK53bp1C/fff3/Ya6+9Eo9RQKBeAmnfutKef2vx1pZddtmlHFLa7dfLSb3VC7RnTlSq3fpbSUdZWgJuXUlLsn31WBfa5+QoAgQIEGiMQNMkOiLPPvvsE/72t79VJbXDDjuEF198sUPnzpw5MwwdOjQsXLiw4nnxuR1jxoypeIxCAvUSSDvRcMEFF4TTTjstsbvxIaWzZs1aUZ52+ysq9kWmBKy/mRoOnWlFQKKjFZQ677Iu1BlY9QQIECBQvUCq14fUubK//vWvFS+nLylULH/88cfb3cO5c+e2DBgwoGJ9sb3zzjuv3XU6kEA9BNK+dWTw4MEV53187ezKW9rtr1y3r7MjYP3NzljoSesCbl1p3aWee60L9dRVNwECBAjUItBUV3TE17v269cvLFiwoKrMTvzN86RJk9o899NPPw3x1WnPPfdcxWPHjRsX/vSnP1U8RiGBegukeUVFKcFX/jdWWlQSux2vqho2bNiK8jTbX1GpLzInYP3N3JDo0GoCruhYDaQTPloXOgFZEwQIECBQnUAtWZJGnDt+/PiKv20uKSSWx4eSfvDBBxW7vXTp0pYDDzwwsY7l9Y8YMaKl9NyOinUpJNAZAmleUXHFFVdUnPu9evVqif9GVt7SbH/len2dPQHrb/bGRI++EnBFx1cWnfmVdaEztbVFgAABAu0VaJq3riwP6NVXX23p0qVLxR/GlicjWvv7kksuWV5Vq38ff/zxbda98847t3z88cetnm8ngc4WSDPRsO+++1ac/2PHjv1aeGm2/7XK7ciUgPU3U8OhM6sJSHSsBtJJH60LnQStGQIECBDokEBT3bpSSlyUt/322y888MADyz926O94aetLL73U6jkXXnhh+M1vftNq2fKd8daZGTNmhL59+y7f5W8CDRVI69aRjz76KGy88cYV3zB0xx13hJEjR64Sb1rtr1KpD5kVsP5mdmgK3zG3rjRuClgXGmevZQIECBBoXaApEx233HJLOPTQQ1uPqB17p0+fXn6bysqH3nzzzeGwww6LV7isvHuVr9dff/3w2GOPhZ122mmV/T4QaKRAWomGKVOmhCOOOCIxlHXXXTe89957oXv37qsck1b7q1TqQ2YFrL+ZHZrCd0yio3FTwLrQOHstEyBAgEDrAk2Z6Cg9GyOU3ogS5s2b13pUbeyNP8zdcMMNK4568sknw/Dhw8PixYtX7Fv9izXXXDPcfffdIf7WwkYgSwJpJRpi8jB+s5q0jR49OsSE4OpbWu2vXq/P2RSw/mZzXPQqBImOxs0C60Lj7LVMgAABAgkCHbrRJUMHn3HGGRWfJVAKN7G89Bvplvfff78cTby3tHfv3onHLq/nz3/+c4ai1xUCXwmk8YyMRYsWtZSu2Kj472Dy5MlfNbrSV2m0v1J1vmwCAetvEwxSAbvoGR2NHXTrQmP9tU6AAAECqwo05RUdMWcza9as8K1vfSt8+eWX8WOHt4suuijE30QPGTIkvPLKKxXPnzBhQjjvvPMqHqOQQKME0riiIj574+CDD04MYa211grz588PPXv2/NoxabT/tUrtyLSA9TfTw1PYzrmio7FDb11orL/WCRAgQGBVgaZNdMQw9t9//3DvvfeuGlE7P2211VZhs802Kz9zo9IpY8aMKd/mUnrTS6XDlBFomEAaiYaf/vSn4dprr02MId6ydd9997Vankb7rVZsZ6YFrL+ZHp5Cdk6io/HDbl1o/BjoAQECBAj8T6CpEx233XZb+PGPf1y3sRw2bFj5h7tu3brVrQ0VE6hVoNZEw7Jly8Imm2wSSrdzJXbliiuuCMcdd1yr5bW232qldmZewPqb+SEqXAclOho/5NaFxo+BHhAgQIDA/wSaOtGxdOnSsPnmm4e5c+emPp6le33D448/HjbccMPU61YhgTQFak00TJs2Ley9996JXYpXM7399tth0003bfWYWttvtVI7My9g/c38EBWugxIdjR9y60Ljx0APCBAgQOB/Ak2d6IghnH322eHcc89NdTzjb7dnzJgRtthii1TrVRmBegjUmmg4+eSTw6WXXprYtcGDB4f4ZqKkrdb2k+q1P/sC1t/sj1GReijRkY3Rti5kYxz0ggABAkUXaPpEx5w5c8oJiWofSrr6BOjRo0d45JFHwm677bZ6kc8EMilQa6IhXhU1e/bsxNjOP//8MH78+MTyWttPrFhB5gWsv5kfokJ1UKIjG8NtXcjGOOgFAQIEii7Q9ImOOIAjR44Md911V81j2bVr1zB16tRw0EEH1VyXCgh0lkAtiYbnnnsu7LrrrhW7Gt9KNHDgwMRjamk/sVIFTSNg/W2aocp9RyU6sjPE1oXsjIWeECBAoKgCuUh0xCRH/E+11m3ixInhxBNPrLUa5xPoVIFaEg1nnXVWxVcnb7/99mHmzJkV46ml/YoVK2wKAetvUwxTITop0ZGdYbYuZGcs9IQAAQJFFchFoiO+NWLLLbcM8XLJardf/epX4cILL6z2dOcRaJhALYmGHXbYIbz00kuJfZ8wYULFREg8sZb2ExtW0DQC1t+mGarcd1SiIztDbF3IzljoCQECBIoqkItERxy8+EDS+ACsarcFCxaEXr16VXt6Ls6Lzzm54447Qvx71KhRId7KY8u+QLWJhnhLyjbbbFMxwGeeeabNW1uqbb9iwwqbSsD6W5/huummm8KHH364SuXxKquhQ4euss+H/wlIdGRrJlgX2h6PTz75pPxWs/nz54f454MPPgjrr79+6N+/fxgwYEDYbLPNwhprrNF2RY4gQIAAga8J/D8AAAD//+M8L7UAAEAASURBVOydCfhV0/7/VymVVFSUShnTLyJjQpSQMYTrISJcQygy/s2Fa7iGSLgylLiGIpJMZYqIDCkypKLBkKQUKdn//fl2T86w573OWXuf81rP833OOXsNn7Vea63P3t/33nutapYdVBmE+fPnq1atWqnVq1dHas2gQYNUv379IuVNe6a//vpLPfnkk2rgwIFqxowZVc1ZtmyZqlu3btqbVhH179WrlxoxYoRnW2V+NGvWLCfNzTffrC655JKcY9k/WrZsqb755pvsQ47fo9p3LIyDqSSA/9XfbeKTjz322IKC+/Tpo4YMGVJwnANKtW3bdu05zInHJptsohYsWOAUxbEiEMAvFEKVa9R3331XvfTSS+rll19W77//vpJrMLewzjrrKBm3nTp1Uqeeeqrad999VbVq1dyScxwCEIAABLIJiNBRLuHwww8X0SbS33bbbVcuGAK3wz65WvbFtLXtttsWMLOFjsDlkNAsgRNPPLGg//LngX3BWVDJ3Xff3TNf3759C/I4HYhq36ksjqWXAP5XX9/NnTvXatiwoeP8tIUOfYbKrKT/+7//c2SW8Yf2P4xl1uLkNwe/sKaPVq1aZQ0bNsxq3bq15xjNjFW3z80228waMGCA5XROT/5ooIYQgAAESktAldZcca298MILsU4gkyZNKm4FE1K6CBxPPfWU1a5dO1deCB0J6awA1YgiNMhFkn1XyLX/5SLrtddeC2DdsqLYD1QwiVJFAP+rp7vEP3ft2tV1biJ0uHNG6HBnYyoGv2BZjz/+uLXFFlu4zmk3UcPr+AYbbGCNHDnSVLdiFwIQgEAqCJSV0GE/EmjZr69EPpn07t07FZ0Wp5LPPPOM1b59e19GCB1xKJc2bxSh4Z577vEcA40bN7b+/PPPQA2JYj9QwSRKFQH8r57uuvXWWz3nJkKHO2eEDnc2pmIq2S8sX77ckutKL8EibtwZZ5xh/fbbb6a6F7sQgAAEEk2gmtTOdrRlEezHfZX9Gob69ddfI7VnvfXWU999952qX79+pPxJzjR27Fh1zTXXqA8++CBQNVmjIxCmRCSKskZGt27dqt4PdmvAySefrB566CG36JzjUeznFMCPsiCA/43fjVOnTlUdOnRQf/zxh2thrNHhioY1OtzRGIupVL8g650dffTR6rPPPis6+wMOOEDZT86o6tWrF90WBiAAAQikikCiZZgQlfvll18sWWfDhh/r7+677w5hNflJx40bZ+26666hmfBER/L7NlPDsE9ULF682KpZs6bnmHj22Wczxft+hrXvWyAJUkcA/xu/y37//fdA5zCe6HBnzRMd7mxMxFSqX5g+fbolT0XGvR4Nk99eWNxEF2MTAhCAQKIJlMUTHfYiT+qggw5SEyZMiC0y7bTTToGfeohtrIgFyGreV199ddXq3lHM8ERHFGpm8oR9ouLRRx9VJ5xwgmtlZbedn376SdWuXds1TXZEWPvZefmefgL4Xz19eP755yvZ/csv8ESHOyF2XXFnU+qYSvULX3zxhdpnn33UDz/84Im8Ro0aavPNN1dbbbWVatSokfr555+rdjn79NNPPfN5RcpOTcccc4xXEuIgAAEIVBaBRMswASt30kknaVXOp0yZEtBy8pKNHz/e2nPPPWPz4ImO5PWtW43CPlFhP07rOT6OOuooN1OOx8PadyyEg6klgP+N33X2VpO+iwPbVyZV85YnOtx580SHO5tSx1SiX5A1Obx2VZEdU/7zn/9YM2fOtGQXFqdgvz5tDR061LK3g/c8T2f8QfbnpptuGnhtLSfbHIMABCBQbgRSvxip/dRC6JNB9onB6bss7pS2IDtk7L333tpYIHSkZwSEERrk8Xj7iQ3PcTJixIhQjQ9jP1TBJE48Afxv/C6yn54K9U8NQoc7c4QOdzaljKlUv3DmmWc6nltF4BDxYuXKlYG7QV77kfL8dkfLv4YdPXp0YBskhAAEIFDuBFItdDz88MOOJ5V8xx/2t70YqZWmf/TzV+mvVauWZb/KY8nOGvZjkNacOXMsYeX3D242pzS1v9wnqV/7wggNY8aM8ZwzsnaHrOERJoSxH6Zc0iabAP5XT//IE1TZvtfvO0KHO3eEDnc2pYqpVL/wyiuvOM7jq666KpTAkd9Pb731VqitaWVragIEIAABCKwhkFqh44033rDWXXddxxOL34VikPgHHnggNWPkiiuuqOKw++67W8OHD3cVaeROfZC2SxqEjtR0vxVGaPDb6m7//fcP3fAw9kMXToZEEsD/6umWBx98MLBPzvhuhA539ggd7mxKEVPJfsFp0ffbbrtNC3Z7tzzLXtMjsK/48ccftdilEAhAAAJpJ5BKocNe7Mlq2LChp9O3F1L0fFcyc9Ho9imiQVqCvSWhJX9+QV5bqFevnie3DA+EDj+ayYkPKjT8+eefvivBR9l1KKj95BCjJnEI4H/j0Ps7r7ynv/766wfyxxm/LJ8IHX8zzP+G0JFPpHS/K9kvPPfccznzWF43uffee7XCv/LKK3NsZPuE/O/vvvuuVtsUBgEIQCCtBFIndMj7zPYq1Z4OX04yI0eOtN577z3PdPknh/zfn3zySVr71bXe7du3D8QEocMVYeIiggoNr7/+umffy7yZP39+6PYFtR+6YDIkjgD+V0+XyEKEHTt2zJmPMv/OPffcnGP55yT5jdDh3gcIHe5sihlT6X5hl112WTtvZR7L6zu6wx9//GFtv/32a+04+YbMsccee0y3ecqDAAQgkEoCqRI6xNEHWXAz+3FBe7vYQCeGzAki+1MuOsstyKsJ2W10+47QkZ6eDyo09OvXz7Pvoz7FFNR+eohSUycC+F8nKtGOXXPNNQVzUc43+XeGnfwzQoc7c4QOdzbFiql0vzB58uScudy3b99iobYmTJiQY8vJP8ixf/3rX0WrAwVDAAIQSBOBVAkdQbYrk3/msoNs5eV2MvA7vuGGG1ryukc5hSOOOCIQD4SO9PR6UKGhVatWnn1/4403Rmp0UPuRCidTYgjgf/V0xTvvvFPwvn3btm2t3377DaEjJmKEjpgAI2SvdL9w6qmnrj2vytPGssVssYK8firXpX7Xrv379y9WFSgXAhCAQKoIpEboEIXaz7n36NHDWr16dU4H/Prrr4HXpXAqP+xWmznGE/gDoSOBnRKzSkGEhhdffNF3/sg71lFCEPtRXomJUhfyFIcA/lcPVzkf5b96KTsdyWKDEniiIx5nhI54/MLmrnS/sHTp0rW72VWvXt2aOHFiWISh08t1rtO1avYxeWKMAAEIQAAClpUKoeOZZ57x3Utc3neWO2JO4ayzzvI9MWSfJLK/y6sy5RQQOsqpN9e0JYjQ4PfaitxRjhqC2EfoiErXfD78r74+yL77mznPZD9mjtARjzVCRzx+YXLjFyxr6NCha68tzzvvvDD4IqcVOxnf4fY5ZMiQyOWTEQIQgEA5EUi80CG7ifitTL/11ltbCxcudO2Xjz/+2PfE4HbCkOOff/65a9lpi0DoSFuP+dc3iNDQunVrzzlw+eWX+xtySRHEPkKHC7yEH8b/6uugp556qmAO7rXXXjlPISJ0xOON0BGPX9Dc+IU1pGSBb3nConPnzq432oIyDZpuwIABBX4k//p17NixQYsjHQQgAIGyJpBooeP777+3/NYV2GijjSzZps8v5K9wn39i8Pp94YUX+hWfmniEjtR0VeCKBhEavMa3xE2ZMiWwvfyEQewjdORTS/5v/K++PpLx36hRo5x/UGSr71mzZuUYQejIwRH6B0JHaGShM+AXQiPTmuGCCy7I8SP55/YaNWpY8koNAQIQgAAEEvzqiryGsttuu3k69Dp16lhB9wsfPny4Z1n5J4vs3yKmyMri5RAQOsqhF3PbEERoyB7P+d9btmyZW2DIX0HsI3SEhGo4Of5XXwf89ddfVrdu3QrOPw899FCBEYSOAiShDiB0hMIVOjF+ITQy7RmOO+64Al+SfU7fZ599tNukQAhAAAJpJZDIJzrkwvCYY47xdOay8NPo0aMDc5cTdJDVqrNPGNnfn3zyycC2kpwQoSPJvROtbkGEhuyxnP897jbKQewjdETrWxO58L96qd9xxx0F57KjjjrK0QhChyOWwAcROgKjCp0QvxAaWVEytGvXrsCfZJ/Tn3322aLYpVAIQAACaSSQSKHjsssu83Tk4tQHDx4cmneQRZyyTxjZ3/fbb7/Q9pKYAaEjib0Sr05BhIbssZz//dVXX41VgSD2ETpiIS5pZvyvPtzTpk2zateunXM+22STTayffvrJ0QhChyOWwAcROgKjCp0QvxAamfYMc+bMyfEl+efyDh06aLdJgRCAAATSTCBxQoc8zpvvvPN/yzuKUcKMGTN8y863lfldrVq1gvepo9TBdB6EDtM9oN9+EKEhM47zP2XdgD///DNWpYLYR+iIhbhkmfG/+lCvWLHC2mGHHQrOOS+88IKrEYQOVzSBIhA6AmEKnQi/EBpZUTI4PR2WOaeLoPr+++8XxS6FQgACEEgrgUQJHXJnuWbNmgUXhhlHLp//+Mc/LHmEMmqQ1bGzywvzXe5opD0gdKS9BwvrH0RocBvnJ598cmGBIY8EsY/QERKqgeT4X73QnRYNPPvssz2NIHR44vGNROjwRRQ6AX4hNLKiZFi1apXltXvasGHDimKXQiEAAQikmUBihA552sJvDY1OnTpZcpcsTnj88ccjCx3NmjWz5GST5oDQkebec657EKHBTeh45plnnAsNcTSIfYSOEEANJMX/6oU+fvx4S54CzJ53bdq08d2CEqEjXj8gdMTjl58bv5BPxNzvoUOH5viTbN9y8cUXm6sYliEAAQgkmEAihI4ff/zR2mKLLVyduDh0uUhctGhRbJSye8rGG2/saSv7BJL/Xcc/hrEbEaMAhI4Y8BKaNYjQkD+O5XfdunV9//EK0uQg9hE6gpA0kwb/q5e7nKdatGiRc46RJxWDbOGM0BGvLxA64vHLzo1fyKZh9rv4lObNm+f4lMw5feDAgWYrh3UIQAACCSZgXOiQ3VB23313RweeceRNmjTRuj7GpZde6mkvY9fp85BDDklwd/pXDaHDn1HaUgQRGpzGco8ePbQ0NYh9hA4tqLUXgv/VjrTq9cr8+XbdddcFMoTQEQiTayKEDlc0oSLwC6FwFTWxPEXctWvXgmtW2XnwnnvuKaptCocABCCQdgJGhY7Vq1dbss1e/kVh9m+566x7gaWvv/664LHibJte39dZZx1r7ty5qe13hI7Udp1rxYMIDU5jesSIEa5lhokIYh+hIwzR0qTF/+rnPHz48ILz2Z577hl4wV+Ejnh9gtARj5/kxi/EZ6izhD59+hT4FNm5Ke5uaTrrSFkQgAAEkkrAqNDRv3//Agee/Q+ZiApjx44tCrsDDzzQ03Z2PfK/DxgwoCh1KkWhCB2loFxaG0GEhvwxLI/SL168WEtFg9hH6NCCWmsh+F+tOKueOqxfv37OeaVevXqWCOtBA0JHUFLO6RA6nLmEOYpfCEOreGlXrlxpOZ1b5dpVXisiQAACEICAPwFjQsedd96Zc0GY/4+Y/L733nv9WxAxxejRo33tO9VJjrVq1arqrkdE00azIXQYxV8U404XQ25jN3N8//3311aXIPYROrTh1lIQ/lcLxrWFyBbN8uRGZn5lPh944IG1aYJ8QegIQsk9DUKHO5sgMfiFIJSKn+bnn392fF1F/ErHjh0tWSsuzu6DxW8BFiAAAQgkg4ARoeOpp56y5P3CzMWg06eso1HMIBembos7OdUn/9i4ceOKWb2ilY3QUTS0xgoOIjTkj98hQ4Zoq28Q+wgd2nDHLgj/GxthQQGyBkf+HDvyyCML0vkdQOjwI+Qdj9DhzccrFr/gRad0cSNHjrSaNm1a4E/y/YuM9TFjxpSuYliCAAQgkEICJRc6Jk6caNWuXdvTiR9//PElUauvvvpqz3rkn1iyf0e5iE3C+EDoSEIv6K1DEKEhe+zKtpc6hYcg9nXa00uvskrD/+rv78mTJ1s1atTIOZfIPyoLFy4MbQyhIzSynAwIHTk4Av/ALwRGVbSEn332mXX44Yfn+JHs87bb9y5dulgzZ84sWr0oGAIQgECaCZRU6Jg+fbrVsGFDT0feuXNnS7aALUWQRUVlHRC3E4jXcbmw/e6770pRTa02EDq04kxEYUGEhuyx3KFDB631DmIfoUMr8kiF4X8jYfPMtGzZMqt169YF55Dnn3/eM59bJEKHG5lgxxE6gnHKToVfyKZR+u8ilMp1mdyAyD5Ph/kuawE99thjpa88FiEAAQgknEDJhI7Zs2dbzZo183Tk2267rbYFEoNyj6KgZ05AN9xwQ1AziUmH0JGYrtBWkSBCQ2bMyueNN96ozbYUFMQ+QodW5KELw/+GRhYow+mnn15wTjvrrLMC5XVKhNDhRCX4MYSO4KwkJX4hHC9dqX/99VfroYcesjp16lTgP7LP1WG/Dxo0SFcVKQcCEIBAWRAoidDx/fffW1tttZWnQ5ftsr755puSQ33hhRc86+V1opE2pW1BKISOkg+xohsMIjRkj+MvvvhCa52C2Efo0Io8VGH431C4AieWBQGz55V832abbazly5cHLiM/IUJHPpFwvxE6gvPCLwRnpSvlG2+8YfXu3dtaf/31C3xHvi+J+vvuu+/WVV3KgQAEIJB6AkUXOmQLyx122MHTqYvT//DDD43AlEVJGzdu7Fk/rxPOhAkTjNQ7qlGEjqjkkpsviNCQGcPyj4DuEMQ+Qodu6sHKw/8G4xQ2lby2uNFGG+WcN+R1xvfeey9sUTnpETpycIT+gdARDBl+IRgnnamWLFmS4y8y52Tdn+uuu641ZcoUnVWnLAhAAAKpJVBUoUPubDltuZfv2O+77z6jAE855ZTIJ6Cjjz7aaN3DGkfoCEss+emDCA2ZOXfZZZdpb1AQ+wgd2rH7Foj/9UUUOcHBBx9ccM4YOHBg5PIyGRE6MiSifSJ0+HPDL/gzKkaKpUuXWnXr1q1ajL9mzZq+Ow9mztlRPrfccktL7BEgAAEIVDqBogkdv/32m3XAAQcUXAzmO+19993XeB8EubjMr3fmtyxmauKVm6jQEDqikktuviBCQ2a8vv/++9obEsQ+Qod27J4F4n898cSKvOuuuwrOax07drTk6cC4Ici5qE+fPnHNlG1+hA7vrsUvePMpdawsvP/DDz9YX375pfXqq69a8trJqaeeasmr3JlzdtTPfv36lbo52IMABCCQOAJFETrkjoEIGH4OWtTtWbNmGYeyYsUK3y1vvdpy0UUXGW9D0AogdAQllZ50QYQGGb+bbrppURoVxD5CR1HQOxaK/3XEouXgp59+atWpUyfn3CavXura3hGhI143IXS488MvuLNJWoys/Sbrx/m99u11XSrX14sWLUpa06gPBCAAgZIS0C50yGrSe++9d86FoJszvuqqq0raWC9jfhdIbm2Q4xtssEHJd4vxaotXHEKHF510xgURGmScnnvuuUVpYBD7CB1FQV9QKP63AIm2A3L3dccddyw4tw0dOlSbDYSOeCj9zuNyp7wSA34hnb2+evVqa8SIEVarVq0K/I7XNWkm7rrrrktnw6k1BCAAAU0EtAodv/zyi7XHHnsEdshfffWVpmbEL+aggw4KXO/MSST7sxhrH8RvVWEJCB2FTNJ+JIjQIGO1WAvnBrGP0FH8UYb/LS7jSy65pOAcIduT6wwIHfFoInQU8sMvFDJJ2xF56vj666+3qlWrVuCDsq9D8783bdo0dTsDpq1vqC8EIJBsAtWkerZzjB2+/vpr1b17d/XZZ58FKqt58+Zq3rx5gdKWIpG9IKmy9zWPbMp+TFB9/vnnqkWLFpHLKEXGI488UtnbIvqaWrZsmZI2EdYQmDx5srLFLGM47BXblf2al6N9+5FktXLlSse47IP2k0fKvlDKPqTlexD7Mpbs1eAL7DVp0kQ1a9as4HipDvTs2VPJ3E97wP8W1/++/vrrqmvXrsp+pHztUJGxO23aNGXvvrL2WNwvY8eOVYcddphnMfYaHWrIkCGeaSo1sm3btmrGjBmuzbef6FALFixwjS+3CPxCcf1CqcfLnXfeqey1N0KZ/fjjj5X9CkyoPCSGAAQgUDYEdOgwsohSo0aNQinNW2+9tQ7T2sqQO3N2p8b669KliyWPGiY58ERHtN55/vnnY42NuGOL/PHmphu/vfbaK9qASFAu/O+asVEs/ytbcbZs2bJg/svTF7oDT3TEI8oTHX/zwy8U1y/8Tbq036699toCX+R2fpPjgwYNKm0FsQYBCEAgQQRivboiq8zfcsstVo0aNUI5XnG+sluJ/dRAYlD4XSB5nUiy4/r27ZvoRwUROqINOYSO4ggN2XPHxPc0Cx3438IxWQz/e9xxxxWc384444xojsQnF0KHDyCfaL/zeCWs0YFfKI1f8BmKRY2WBfCDni/lmo8AAQhAoFIJRBY6PvzwQ2uXXXYJ7GydnPKDDz6YCO4vv/xyrHbkt+3YY4+1fvzxx0S0Lb8SCB35RIL9RugovHjMH/dp/J1WoQP/6z4edfpfWQgwf1y3bt26aCI9Qkcwf+yWqtKFDvxCafyC2/gr5fEOHToU+KZ8XyW/ZSFTAgQgAIFKJRBa6Pjggw+sk046qeqJDCenGuaYPNUxbNgwY+xFjLjhhhtibS3r1t569epZl156qTVlyhRj7XMyjNDhRMX/GEKH+wWk2xxIw/G0CR3432DjUIf/nTNnjtWgQYOcfybk6UV7vR5/hxExBUJHRHD/y1apQgd+oXR+Id4I1Zf72WefzfFNbufb9dZbT59RSoIABCCQMgK+i5Ha7VEfffSRsndsqFrEctKkSbY/1Ru22WYbdfDBByt75xPVpk0bZa8UrWrWrKnFyKpVq5QtaFT9ffvtt2r27Nnqiy++ULYAoWSRJvsxTy12vAqRBdDsp19U+/bt1Xbbbac233zzqr/GjRt7ZStKHIuRRsM6btw4dcghh0TLTK7EErCFDjVx4sTE1g//G79rovhf4d65c2f15ptv5lTA3mFIXXPNNTnHdP6w11VQ//znPz2LlPPkXXfd5ZlGIqtXr64222wz33TllKBSFiPFL8QftVH8Qnyr+kqQMbD99tur6dOn+xb622+/qTp16vimIwEEIACBsiNgO0vPcNVVVwVSjW0wWtPVqlXL2mqrrayFCxd61s8r8sILL9RaJ91t7NGjh1f1ixLHEx3RsPJEh975rXsuRS0v6U904H+LN+68/O8ff/yR6HNH0PF+//33R3N4Kc1VKU904BfM+IWkTYtHHnkkkJ+yb/IlrerUBwIQgEBJCPi+unLFFVcEcqRBL7zCprOfuogM4pxzzjFad7+2HnrooZHbFjUjQkc0cggdxbuw9JsnxYxPutCB/y3euPPyv+UidNjb0EZzeCnNVSlCB37BjF9I2rSQhWebN2/ue5376aefJq3q1AcCEIBASQiUtdBx3XXX+Z4AivlPlF/Zp556akk6OdsIQkc2jeDfZa0Vv/4kvngXn8Vii9Dh3WdxhOY0+1+EjuC+MUkpETq857MuP1qpfiFJYz1TFxFs/fp11qxZmeR8QgACEKgoAr5rdNgOlFBGBFijo3w6U9YP2GeffVwbVK1aNTV37lxl3/FxTUMEBCBQSGDlypXKfn2yMCJlR+wnOlSfPn1SVuvo1a2UNTqiEyJnuRHo37+/uv322z2bZb8CrkysCedZKSIhAAEIlIAAQkcJICfJBEJHknojXl3OP/98NWjQINdCdtttN2XvEOEaTwQEIOBMAKHDmUvSjyJ0JL2HqJ9uAvfcc4+nmGnvFKVkMVJdC/zrrj/lQQACECgmAYSOYtJNYNkIHQnslIhVkt177C0wXXPbWycre4tj13giIAABZwIIHc5ckn4UoSPpPUT9dBN45ZVX1AEHHOBabLt27dQnn3ziGk8EBCAAgXImgNBRzr3r0DaEDgcoKTwkWz7vtNNOnjX//PPPlWzdTIAABMIRKBeh4+6771ZnnXVWuManODVCR4o7j6pHIvDFF1+oNm3auObt1auXGj58uGs8ERCAAATKmQBCRzn3rkPbEDocoKTwkL29oLr22mtda24vyqc+++wz13giIAABdwL2Sl3qtddec09QpJivvvpKnXnmmZ6ld+/eXfXr188zjURWr15ddezYsSzWGvFt7P8SIHQEJUW6ciEwdepU1b59e9fmyPod5513nms8ERCAAATKmQBCRzn3rkPbEDocoKTw0Pbbb6+mTZvmWvPLLrtMXX/99a7xREAAAskjYO9moXbccUfPisniorLIKKGQAEJHIROOlDcBv1dXZNHyTp06lTcEWgcBCEDAhQBChwuYcj2M0JH+np05c6baeuutPRvy3nvvqV133dUzDZEQgECyCCB0xOsPhI54/MidPgIPPfSQOuWUUxwr3qJFi6p1vNZZZx3HeA5CAAIQKHcCCB3l3sN57UPoyAOSwp+33HKLuuiii1xrvummm6pvv/3WNZ4ICEAgmQQQOuL1C0JHPH7kTh+B3r17q2HDhjlWXF5xHTBggGMcByEAAQhUAgGEjkro5aw2InRkwUjp1z333FNNmjTJtfbnnHOOGjx4sGs8ERCAQDIJIHTE6xeEjnj8yJ0+AnJjY968eQUVlzV6Zs+erVq2bFkQxwEIQAAClUIAoaNSevp/7UToSHeHf//996p58+bqr7/+cm3IhAkT1L777usaTwQEIJBMAggd8foFoSMeP3Kni4BsG7vDDjs4VvqQQw5RY8eOdYzjIAQgAIFKIYDQUSk9/b92InSku8Pvu+8+dcYZZ7g2omHDhuqHH35QNWrUcE1DBAQgkEwCCB3x+gWhIx4/cqeLwMknn+y4dWytWrWU7MbC9vLp6k9qCwEI6CeA0KGfaaJLPPzww9WYMWN867hs2TJVt25d33QkKC2Bgw46SL344ouuRk866STX93VdMxEBAQgkggBCR7xuQOiIx4/c6SEwd+5cteWWW6pVq1YVVHrgwIHqyiuvLDjOAQhAAAKVRgCho8J6vEuXLur111/3bTVChy+ikidYsmSJ2njjjdXKlStdbY8ePVodccQRrvFEQAACySWA0BGvbxA64vEjd3oIHH/88eqxxx4rqPC2226rPvroI1WzZs2COA5AAAIQqDQCCB0V1uPt27eveqTRr9m//PKLatCggV8y4ktIQC5q5OLGLay33nrqp59+UnXq1HFLwnEIQCDBBBA64nUOQkc8fuQOT0BuCv373/+uuoH0zTffVC3+2aFDB7X77rsrWSejdu3a4Qv1yfHwww8reXozP9SvX1+98cYbSq7zCBCAAAQgoBRCRwWNAnnEcYMNNlC//fabb6unT5+u5M4AITkE/vGPf6iRI0e6VkjWX3n66add44mAAASSTQChI17/IHTE40fucAR+//13tfPOO6sZM2Y4ZmzSpInq37+/6tu3rzbBQ9be6NSpk/r1119zbMqNjpdfflnJrmwECEAAAhBYQwCho4JGwrvvvqs6duwYqMWyWrfcjSAkg8CKFSvURhttpOTukVuQuzwnnniiWzTHIQCBhBNA6IjXQQgd8fiROxwBeZLj4osv9s3UqlUrdfPNNyu5WREnvPPOO+rggw9W8sRtdpDFR5977jm1//77Zx/mOwQgAIGKJ4DQUUFDoHfv3oEXqrzpppsCncArCJ/Rpj7//PPq0EMPda2D7LLy448/qg033NA1DREQgECyCSB0xOsfhI54/MgdjsAxxxyjRo0aFTiTrJF21113KRmnYcPw4cPV2WefrZYvX56TVdbtkpsc3bp1yznODwhAAAIQ4NWVihkDr776qjrggAPU6tWrA7V5/fXXV5MnT450Qg5kgEShCJx22mnqgQcecM3TtWtXNX78eNd4IiAAgeQTQOiI10cIHfH4kTscgaC72GWXKouEyhbxF154oZInPfyC+IR+/fqpN998syBpjx491L333lv1tGdBJAcgAAEIQIA1Osp9DMg7pEOGDFGXX365524dThxat26tHnnkEbXrrrs6RXOsRAREnNpkk03UwoULXS3KXSK520OAAATSSwChI17fIXTE40fucARuvfXWKsEiXK41qddZZx0l62rJK8KdO3dWzZs3V3Lshx9+ULJ17GuvvaYef/xxJT4hP8haa4MHD1YnnHBCfhS/IQABCEAgiwCvrmTBSPNXWQxLXl2QNRxk5w1Z/VtOkBMmTFBLly6N1TS5eJS1Pdq0aaOaNm1adfdAdvaQ1cRlde911103Vvlk9iYgd3L22Wcf10TVqlWrujCSCyUCBCCQXgIIHfH6DqEjHj9yhyPw5ZdfVl0DyQ0lHUHO5ZZluRZVr149dfLJJ6tLLrmkShhxTUgEBCAAAQhUEUDoKJOBICttT5o0qeSt+frrr9UWW2xRcruVZPD8889XgwYNcm3ybrvtVvWakWsCIiAAgVQQQOiI100IHfH4kTs8gRdffFHJKywrV64Mnzlgjm222Uadc845VVvKithBgAAEIACBYAQQOoJxSnwqeVdz9OjRJa/nrFmz1Oabb15yu5VkUPjOmTPHtck33HCDuvTSS13jiYAABNJBYN68eWqzzTbzXEupT58+Va8jpqNFpa0lQkdpeWNtDQF56lJuSHz44YfakGy66aZq7733rtpJTdZXk6c9CBCAAAQgEI4AQkc4XqSGQEkJTJ06terRWC+jn3/+uZI7PgQIQAAClUwAoaOSe99s2+WVk1deeUU9/fTTSnZJE9EyTNhyyy2rhA15TVUEDm4ghaFHWghAAALOBBA6nLlwFAKJIPDtt9+qcePGudalVq1aSrYNJkAAAhCodAKyILMs5OgWZPtt2aaTAIFiE1i8eLGStdNkvbRff/216m/FihVKdrTbaKONcv4aN26s5FxOgAAEIAABvQQQOvTypDQIQAACEIAABCAAAQhAAAIQgAAEDBJA6DAIH9MQgAAEIAABCEAAAhCAAAQgAAEI6CWA0KGXJ6VBAAIQgAAEIAABCEAAAhCAAAQgYJAAQodB+JiGAAQgAAEIQAACEIAABCAAAQhAQC8BhA69PCkNAhCAAAQgAAEIQAACEIAABCAAAYMEEDoMwsc0BCAAAQhAAAIQgAAEIAABCEAAAnoJIHTo5UlpEIAABCAAAQhAAAIQgAAEIAABCBgkgNBhED6mIQABCEAAAhCAAAQgAAEIQAACENBLAKFDL09KgwAEIAABCEAAAhCAAAQgAAEIQMAgAYQOg/AxDQEIQAACEIAABCAAAQhAAAIQgIBeAggdenlSGgQgAAEIQAACEIAABCAAAQhAAAIGCSB0GISPaQhAAAIQgAAEIAABCEAAAhCAAAT0EkDo0MuT0iAAAQhAAAIQgAAEIAABCEAAAhAwSAChwyB8TEMAAhCAAAQgAAEIQAACEIAABCCglwBCh16elAYBCEAAAhCAAAQgAAEIQAACEICAQQIIHQbhYxoCEIAABCAAAQhAAAIQgAAEIAABvQQQOvTypDQIQAACEIAABCAAAQhAAAIQgAAEDBJA6DAIH9MQgAAEIAABCEAAAhCAAAQgAAEI6CWA0KGXJ6VBAAIQgAAEIAABCEAAAhCAAAQgYJAAQodB+JiGAAQgAAEIQAACEIAABCAAAQhAQC8BhA69PCkNAhCAAAQgAAEIQAACEIAABCAAAYMEEDoMwsc0BCAAAQhAAAIQgAAEIAABCEAAAnoJIHTo5UlpEIAABCAAAQhAAAIQgAAEIAABCBgkgNBhED6mIQABCEAAAhCAAAQgAAEIQAACENBLAKFDL09KgwAEIAABCEAAAhCAAAQgAAEIQMAgAYQOg/AxDQEIQAACEIAABCAAAQhAAAIQgIBeAggdenlSGgQgAAEIQAACEIAABCAAAQhAAAIGCSB0GISPaQhAAAIQgAAEIAABCEAAAhCAAAT0EkDo0MuT0iAAAQhAAAIQgAAEIAABCEAAAhAwSAChwyB8TEMAAhCAAAQgAAEIQAACEIAABCCglwBCh16elAYBCEAAAhCAAAQgAAEIQAACEICAQQIIHQbhYxoCEIAABCAAAQhAAAIQgAAEIAABvQQQOvTypDQIQAACEIAABCAAAQhAAAIQgAAEDBJA6DAIH9MQgAAEIAABCEAAAhCAAAQgAAEI6CWA0KGXJ6VBAAIQgAAEIAABCEAAAhCAAAQgYJAAQodB+JiGAAQgAAEIQAACEIAABCAAAQhAQC8BhA69PCkNAhCAAAQgAAEIQAACEIAABCAAAYMEEDoMwsc0BCAAAQhAAAIQgAAEIAABCEAAAnoJIHTo5UlpEIAABCAAAQhAAAIQgAAEIAABCBgkgNBhED6mIQABCEAAAhCAAAQgAAEIQAACENBLAKFDL09KgwAEIAABCEAAAhCAAAQgAAEIQMAgAYQOg/AxDQEIQAACEIAABCAAAQhAAAIQgIBeAggdenlSGgQgAAEIQAACEIAABCAAAQhAAAIGCSB0GISPaQhAAAIQgAAEIAABCEAAAhCAAAT0EkDo0MuT0iAAAQhAAAIQgAAEIAABCEAAAhAwSAChwyB8TEMAAhCAAAQgAAEIQAACEIAABCCglwBCh16elAYBCEAAAhCAAAQgAAEIQAACEICAQQIIHQbhYxoCEIAABCAAAQhAAAIQgAAEIAABvQQQOvTypDQIQAACEIAABCAAAQhAAAIQgAAEDBJA6DAIH9MQgAAEIAABCEAAAhCAAAQgAAEI6CWA0KGXJ6VBAAIQgAAEIAABCEAAAhCAAAQgYJAAQodB+JiGAAQgAAEIQAACEIAABCAAAQhAQC8BhA69PCkNAhCAAAQgAAEIQAACEIAABCAAAYMEEDoMwsc0BCAAAQhAAAIQgAAEIAABCEAAAnoJIHTo5UlpEIAABCAAAQhAAAIQgAAEIAABCBgkgNBhED6mIQABCEAAAhCAAAQgAAEIQAACENBLAKFDL09KgwAEIAABCEAAAhCAAAQgAAEIQMAgAYQOg/AxDQEIQAACEIAABCAAAQhAAAIQgIBeAggdenlSGgQgAAEIQAACEIAABCAAAQhAAAIGCSB0GISPaQhAAAIQgAAEIAABCEAAAhCAAAT0EkDo0MuT0iAAAQhAAAIQgAAEIAABCEAAAhAwSAChwyB8TEMAAhCAAAQgAAEIQAACEIAABCCglwBCh16elAYBCEAAAhCAAAQgAAEIQAACEICAQQIIHQbhYxoCEIAABCAAAQhAAAIQgAAEIAABvQQQOvTypDQIQAACEIAABCAAAQhAAAIQgAAEDBJA6DAIH9MQgAAEIAABCEAAAhCAAAQgAAEI6CWA0KGXJ6VBAAIQgAAEIAABCEAAAhCAAAQgYJAAQodB+JiGAAQgAAEIQAACEIAABCAAAQhAQC8BhA69PCkNAhCAAAQgAAEIQAACEIAABCAAAYMEEDoMwsc0BCAAAQhAAAIQgAAEIAABCEAAAnoJIHTo5UlpEIAABCAAAQhAAAIQgAAEIAABCBgkgNBhED6mIQABCEAAAhCAAAQgAAEIQAACENBLAKFDL09KgwAEIAABCEAAAhCAAAQgAAEIQMAgAYQOg/AxDQEIQAACEIAABCAAAQhAAAIQgIBeAggdenlSGgQgAAEIQAACEIAABCAAAQhAAAIGCSB0GISPaQhAAAIQgAAEIAABCEAAAhCAAAT0EkDo0MuT0iAAAQhAAAIQgAAEIAABCEAAAhAwSAChwyB8TEMAAhCAAAQgAAEIQAACEIAABCCglwBCh16elAYBCEAAAhCAAAQgAAEIQAACEICAQQIIHQbhYxoCEIAABCAAAQhAAAIQgAAEIAABvQQQOvTypDQIQAACEIAABCAAAQhAAAIQgAAEDBJA6DAIH9MQgAAEIAABCEAAAhCAAAQgAAEI6CWA0KGXJ6VBAAIQgAAEIAABCEAAAhCAAAQgYJAAQodB+JiGAAQgAAEIQAACEIAABCAAAQhAQC8BhA69PCkNAhCAAAQgAAEIQAACEIAABCAAAYMEEDoMwsc0BCAAAQhAAAIQgAAEIAABCEAAAnoJIHTo5UlpEIAABCAAAQhAAAIQgAAEIAABCBgkgNBhED6mIQABCEAAAhCAAAQgAAEIQAACENBLAKFDL09KgwAEIAABCEAAAhCAAAQgAAEIQMAgAYQOg/AxDQEIQAACEIAABCAAAQhAAAIQgIBeAggdenlSGgQgAAEIQAACEIAABCAAAQhAAAIGCSB0GISPaQhAAAIQgAAEIAABCEAAAhCAAAT0EkDo0MuT0iAAAQhAAAIQgAAEIAABCEAAAhAwSAChwyB8TEMAAhCAAAQgAAEIQAACEIAABCCglwBCh16elAYBCEAAAhCAAAQgAAEIQAACEICAQQIIHQbhYxoCEIAABCAAAQhAAAIQgAAEIAABvQQQOvTypDQIQAACEIAABCAAAQhAAAIQgAAEDBJA6DAIH9MQgAAEIAABCEAAAhCAAAQgAAEI6CWA0KGXJ6VBAAIQgAAEIAABCEAAAhCAAAQgYJAAQodB+JiGAAQgAAEIQAACEIAABCAAAQhAQC8BhA69PCkNAhCAAAQgAAEIQAACEIAABCAAAYMEEDoMwsc0BCAAAQhAAAIQgAAEIAABCEAAAnoJIHTo5UlpEIAABCAAAQhAAAIQgAAEIAABCBgkgNBhED6mIQABCEAAAhCAAAQgAAEIQAACENBLAKFDL09KgwAEIAABCEAAAhCAAAQgAAEIQMAgAYQOg/AxDQEIQAACEIAABCAAAQhAAAIQgIBeAggdenlSGgQgAAEIQAACEIAABCAAAQhAAAIGCSB0GISPaQhAAAIQgAAEIAABCEAAAhCAAAT0EkDo0MuT0iAAAQhAAAIQgAAEIAABCEAAAhAwSAChwyB8TEMAAhCAAAQgAAEIQAACEIAABCCglwBCh16elAYBCEAAAhCAAAQgAAEIQAACEICAQQIIHQbhYxoCEIAABCAAAQhAAAIQgAAEIAABvQQQOvTypDQIQAACEIAABCAAAQhAAAIQgAAEDBJA6DAIH9MQgAAEIAABCEAAAhCAAAQgAAEI6CWA0KGXJ6VBAAIQgAAEIAABCEAAAhCAAAQgYJAAQodB+JiGAAQgAAEIQAACEIAABCAAAQhAQC8BhA69PCkNAhCAAAQgAAEIQAACEIAABCAAAYMEEDoMwsc0BCAAAQhAAAIQgAAEIAABCEAAAnoJIHTo5UlpEIAABCAAAQhAAAIQgAAEIAABCBgkgNBhED6mIQABCEAAAhCAAAQgAAEIQAACENBLAKFDL09KgwAEIAABCEAAAhCAAAQgAAEIQMAgAYQOg/AxDQEIQAACEIAABCAAAQhAAAIQgIBeAggdenlSGgQgAAEIQAACEIAABCAAAQhAAAIGCSB0GISPaQhAAAIQgAAEIAABCEAAAhCAAAT0EkDo0MuT0iAAAQhAAAIQgAAEIAABCEAAAhAwSAChwyB8TEMAAhCAAAQgAAEIQAACEIAABCCglwBCh16elAYBCEAAAhCAAAQgAAEIQAACEICAQQIIHQbhYxoCEIAABCAAAQhAAAIQgAAEIAABvQQQOvTypDQIQAACEIAABCAAAQhAAAIQgAAEDBJA6DAIH9MQgAAEIAABCEAAAhCAAAQgAAEI6CWA0KGXJ6VBAAIQgAAEIAABCEAAAhCAAAQgYJAAQodB+JiGAAQgAAEIQAACEIAABCAAAQhAQC8BhA69PCkNAhCAAAQgAAEIQAACEIAABCAAAYMEEDoMwsc0BCAAAQhAAAIQgAAEIAABCEAAAnoJIHTo5UlpEIAABCAAAQhAAAIQgAAEIAABCBgkgNBhED6mIQABCEAAAhDQQ2DVqlXKsizXwmrUqKGqV6/uGk9EeAJ//PGHmjVrlpo5c6aaM2eOWrp0qVq+fHnVX+vWrdXZZ58dvlByQAACEIBAKgj8+eefaujQoapatWqqbt26VX8NGzZUW221lWrevHnVcZMNQegwSR/bEIAABCAAAQhoIdC2bVs1Y8YM17K6du2qxo8f7xpPhD8BETImTJigXnvtNfXqq69W8f7rr78cM4qotHr1asc4DkIAAhCAQPoJPPPMM+rII490bEidOnWqBI+OHTuqLl26VP01adLEMW2xDiJ0FIss5UIAAhCAAAQgUDICfkLHJptsohYsWFCy+pSToYkTJ6r7779fjRo1Sv3222+OTWvatKk6+eST1e67765atWpV9bfhhhs6puUgBCAAAQikn4CI3x988IH65ptvqp7qe+6559SHH37o2DB56qNz587q1FNPVUcddZSqXbu2YzqdBxE6dNKkLAhAAAIQgAAEjBBA6NCPfd68eercc89VctfOLWy++ebq1ltvVYcddpiS14MIEIAABCBQuQRE6LjjjjvUww8/7ApBbjxImmOOOcY1jY6IogodX3/9tbrvvvt01FN7GW3atFG9e/eOVO4nn3yiHn300Uh542QSJaxnz56qXbt2cYohLwQgUAEE8L96Oxn/q5dnMUpD6NBHVV45ufPOO9VVV12lli1b5lqwXJPcfffdqn79+q5pdEbg13TSVFXvz3NdqZdp2kpjTuntMa4V/ub57LPPVj29sWjRor8P5n07+OCD1ZAhQ9Rmm22WF6Ppp71wV9GC/f6mrAqWyL+DDjoocrufeOIJY20aOHBg5HqTEQIQqBwC+F/95x78b7Lnz//93/95npvtO0jJbkBCajd//nxrp5128mQp13YXX3xxyWuMX8OvlXzQlblB5hRzqphD3H6lxWrRooXn+WS99dazbGG9KNWQFcqLFpg8TJ6iDS4KhgAEPAngf/G/ngOkDCMROuJ36k8//WTZT8Z4XpSKyGE/BWDZi5DGNxiyBPwafi3kkCG5DwHmFHPKZ4jEjp4+fbq1wQYb+J5Xbrvttti28gso6qsrsuiXvJ8j73jOnTtX2Q1Vs2fP9tz+TdODKo7FtGzZUm233XZq6623rloM5YgjjnBM53dQHvOSdsl2arLC+6effqpWrlzply12/M4776xuv/121alTp9hlUQAEIFDeBPC/evsX/6uXZzFK49WVeFRlUTnZmWbKlCmeBcm2gXI9V6tWLc90xYjEr+mlil/TyzONpTGn9PYac8qZp7zG4vd/t7z2I4ten3LKKc6FRDmar3wU+7d9IrXGjh1r2SuuWuuvv76vumO3KXKaRo0aWWeccYZlw7V+/PHHojXN3kfeeuutt6xLLrnEaty4ceT6OrXVXpHW6tWrlzV58uSi1Z+CIQCByiCA/w13PsH/pmte8ERHvP6yRY5A1y/jxo2LZ0hzbvwafk3zkKr44phTzKliTAJ7PQ7fc4y9LXnV/+267Bf11RW/Sor4cNppp/k22kkA8Ds2YMAAy94Cza8K2uOXLFlidejQIXabbFXLOuussyx5jJQAAQhAQDcB/K/7hQz+V/doK015CB3ROf/3v/8NdN2y3377RTdSgpz4NfxaCYZZRZlgTjGndA34L7/80hIhw+9/+ObNm1vLly/XYtao0JFpwfnnn+/baD8o2fGDBw/OFG3kc/HixZYsepZdpzDf7R1hLHvPeiN1xygEIFBZBPC/uRcx+N/0jn+Ejmh9JzeF7Fd7A12zjBw5MpqREufCr+HXSjzkyt4cc4o5pWOQd+vWLdC55uqrr9ZhzkqE0CEt6dOnT6CG+wkG8jRFEkKPHj1Ct6dmzZrWlVdeaa1YsSIJTaAOEIBAhRDA/yoL/5v+wY7QEa0Pb7jhhkDXK/Jqrr0eWTQjBnLh1/BrBoZdWZtkTjGn4g7wUaNGBTrfyE4ssgNY3JAYoUNW7957770DNd5L7DjnnHPiMtGS/6STTgrVFnsPemv8+PFabFMIBCAAgTAE8L/43zDjJalpETqi9cw222wT6HrlkEMOiWbAUC78Gn7N0NArW7PMKeZU3MEtbz14/R+fHXfjjTfGNZecJzqkJR9++GGgd3eyIeR/v+KKK2JD0VGA3wVXdr1lf+FPPvlEh1nKgAAEIBCJAP43EjYyJYiA33lXXikl5BKYOnVq4IvO/v3752ZOwS/8Wgo6iSqmigBzKlXdlcjKNmnSJNB5Z6eddopd/8Q80ZFpyVFHHRWo8dlCQfb3448/PlOUsc/vv/8+cBt22GEHy95+11hdMQwBCEAgQwD/myHBZxoJIHSE77Vrrrkm8PXKfffdF95AAnLg1xLQCVShrAgwp8qqO0vemH322SfweWf27Nmx6pc4oWPSpEmBG58tcGS+77LLLrGA6Mjcr1+/QG3Yf//9LdnCiQABCEAgCQTwv0noBeoQlQBCR3hy3bt3D3S9ItdYb775ZngDCciBX0tAJ1CFsiLAnCqr7ix5Y04//fTA550nn3wyVv2qSW77BJaoYC8oqt57771IdapTp46yt2RV9iImkfLHzfTOO++oTp06qdWrV3sWdcABB6gxY8aoWrVqeaYjEgIQgEApCeB/S0kbWzoJtG3bVs2YMcO1SPvVFbVgwQLX+EqM2HLLLdWsWbMCNf27775TTZs2DZQ2aYnwa0nrEeqTdgLMqbT3oLn633777cp+FTJQBexNOtTAgQMDpXVMFEsmKVLmBx54ILDSYzeqIO3o0aOLVDPvYu0LKKtZs2YF9cmvY9euXS3Zzo0AAQhAIGkE8L9J6xHqE5QAT3QEJfV3OvvmkO81S+YaZsmSJX9nTNk3/FrKOozqJp4AcyrxXZTYCt5///2Bzzu9e/eO1Y5EPtFhiwDKFgyUfVJ1FGf8Dvbs2VM98sgjfsm0xkudO3furN5//33Pcvfcc0/18ssvG3vixLNyREIAAhVPAP9b8UMgtQB4oiNc19lXj6p69eqBM8k1mb1DXOD0SUqIX0tSb1CXciDAnCqHXjTTBlskU6eddlog40cffbQaOXJkoLROiRIpdEhF7W1i1ZAhQ5zq7Husdu3aSh6x3GCDDXzT6khgb7ekevTooZ599lnP4tq1a6fsd1xLVi/PyhBZNgSmTZumxGl4hQEDBqgGDRp4JYkcZ9p+5IqT0ZUA/tcVDREJJoDQEa5zKknoEDL4tXDjg9QQ8CPAnPIjRLwTgTBCh73wrRo1apRTMcGOxXoepIiZZbtVuwWR/+66664i1i636L59+/rWc/PNN7fk1RYCBHQT6NWrl+/4K+bOPqbt6+ZJeVbVdtf4X0ZC2gjw6kq4HrNv0vieO7L9QJpfXREyXFeGGx+khoAfAeaUHyHinQiEeXVFdviJExK360p2Y/bYY49QJ+HsE/L222+fXVTRvtsLqvjWsXHjxtZXX31VtDpQcGUTOPHEE33H4Pz584sGybT9ojWswgvG/1b4AEhh8xE6wnVapQkdQge/Fm6MkBoCfgSYU36EiM8ngNDxPyLDhw/3/QcuW9zI/27vgJLPVutvWfTUfr/Vs46y0Jdsw0SAQLEImBYaTNsvFtdKLxf/W+kjIH3tR+gI12eVKHTg18KNEVJDwI8Ac8qPEPH5BBA6/kfEXujG2nDDDT2FhHxxI/t33JVa8zsm+/fkyZMtewtbz7qJCGK/V5Sdje8Q0E7AtNBg2r52oBRYRQD/y0BIGwGEjnA9VolCB34t3BghNQT8CDCn/AgRn08AoSOLSL9+/TzFhGxhI/+7CBG//PJLVml6vtp7zltNmjTxrdett96qxyClQMCDgGmhwbR9DzRExSSA/40JkOwlJYDQEQ53JQodQgi/Fm6ckBoCfgSYU36EiM8mgNCRReOzzz7zFRTyBY7s34MHD84qLf7Xn3/+2fK7mBL79krE8Y1RAgQCEDAtNJi2HwARSSISwP9GBEc2IwT8zs2bbLKJkXol1WilCh34taSOSOqVVgLMqbT2nJl6I3Tkce/UqVNkscPe0jWvtOg///jjD6tz586+denN9B94AABAAElEQVTevbu1evXq6IbICYEQBEwLDabth0BF0ggE8L8RoJHFCAGEjnDYK1XoEEr4tXBjhdQQ8CPAnPIjRHyGAEJHhsT/Ph955BFfcSH7KY7877oWAz3hhBN867Hrrrtay5cvz2sBPyFQPAKmhQbT9otHlpKFAP6XcZAWAggd4XqqkoUO/Fq4sUJqCPgRYE75ESI+QwChI0Pif58rVqywGjVq5Csy5Ascmd8nnXRSXonhf1555ZW+9jfbbDPr+++/D184OSAQg4BpocG0/RjoyBqAAP43ACSSJIIAQke4bqhkoQO/Fm6skBoCfgSYU36EiM8QQOjIkMj6vOCCC3yFhoywkf8pW7wuXrw4q7RwXx988EFf27I7jLyjRoBAqQmYFhpM2y8170q0h/+txF5PX5sROsL1WSULHUIKvxZuvJAaAn4EmFN+hIgXAggdDuPgiy++8BUb8gWO7N933nmnQ6n+h1555RWrZs2anrbXXXdd6/XXX/cvjBQQKAIB00KDaftFQEqReQTwv3lA+JlIAggd4bql0oUO/Fq48UJqCPgRYE75ESJeCCB0uIyDLl26eAoO2cJG/vftttvOpVT3w9OmTbMaNGjga1PeSyNAwBQB00KDafumuFeaXfxvpfV4+tqL0BGuzypd6BBa+LVwY4bUEPAjwJzyI0Q8QofLGHj88cd9RYd8gSP799tvv+1ScuHhBQsWWC1btvS1d9111xVm5ggESkjAtNBg2n4JUVe0KfxvRXd/KhqP0BGumxA6LAu/Fm7MkBoCfgSYU36EiEfocBkDsr3rRhtt5Cs+ZIsb2d979erlUnLu4WXLllk77bSTr53TTjstNyO/IGCAgGmhwbR9A8gr0iT+tyK7PVWNRugI110IHZaFXws3ZkgNAT8CzCk/QsQjdHiMgYsvvthXgMgWN7K/y6KkP//8s0fplvXnn39ahx56qK+Nbt26WatWrfIsi0gIlIKAaaHBtP1SMMbGGgL4X0ZCkgkgdITrHYQO/Fq4EUNqCAQjwLVCME6Vmgqhw6PnZ86caVWrVs1XiMgWOLK/33HHHR6lW1afPn18y95hhx2spUuXepZDJARKRcC00GDafqk4Y8ey8L+MgiQTQOgI1zsIHWt44dfCjRtSQ8CPAHPKj1BlxyN0+PT//vvv7ytGZIsb2d/btm3rWvott9ziW26LFi2sefPmuZZBBARKTcC00GDafql5V7o9/G+lj4Dkth+hI1zfIHT8zQu/9jcLvkFABwHmlA6K5VkGQodPv44aNcpXkMgWN/K/T5w4scDCyJEjfZ8UqVevnjV16tSCvByAgEkCpoUG0/ZNsq9E2/jfSuz1dLQZoSNcPyF0/M0Lv/Y3C75BQAcB5pQOiuVZBkKHT7+uXLnSatq0aWSx44QTTsixMGnSJEvW78gXRLJ/16hRw3rppZdy8vEDAkkgYFpoMG0/CX1QSXXA/1ZSb6errQgd4foLoeNvXvi1v1nwDQI6CDCndFAszzIQOgL062WXXeYpTGSLFPnfa9eubS1atKjKirxHFmQnF+kUAgSSSMC00GDafhL7pNzrhP8t9x5OZ/sQOsL1G0JHLi/8Wi4PfkEgLgHmVFyC5ZkfoSNAv86ePduqXr16ZLHj9ttvrxI7Wrdu7VvG5ZdfHqBGJIGAGQKmhQbT9s1Qr2yr+N/K7v+kth6hI1zPIHTk8sKv5fLgFwTiEmBOxSVYnvlLKXRUE4T2Ew+pDAcddJB68cUXI9V9iy22UM2aNVNvvfWWZ/6ePXuqESNGKHunF890RELAFIFevXpVjVEv+/Pnz68a715posaZth+13uSLRwD/G48fufUTsBcbVzNmzHAteJNNNlELFixwja+0CLn8s28YBW72kiVLVP369QOnT2NC/Foae406J5kAcyrJvWOmbg888IA67bTTAhk/6qijlL3eS6C0TolSLXQ888wz6sgjj3Rql5ZjnTt3Vva6HGrdddfVUh6FQKAYBEwLDabtF4MpZfoTwP/6MyJFaQkgdITjjdBRyAu/VsiEIxCIQ4A5FYdeeeZF6AjYr3/++adq1apVUe7Q2I/AqrffflttuOGGAWtDMgiYIWBaaDBt3wx1rOJ/GQNJI4DQEa5HEDoKeeHXCplwBAJxCDCn4tArz7wIHSH69eqrr1YDBw4MkcM/aZMmTdS7776rNttsM//EpICAYQKmhQbT9g3jr2jz+N+K7v7ENR6hI1yXIHQ488KvOXPhKASiEmBORSVXnvkQOkL069y5c6sECXtRrRC53JOut9566o033lC77LKLeyJiIJAgAqaFBtP2E9QVFVcV/G/FdXmiG4zQEa57wgodS5cuVfXq1QtnJIWp8Wsp7DSqnGgCzKlEd0/JK4fQERL5YYcdpsaOHRsyV2FyWZRr9OjRqnv37oWRHIFAQgmYFhpM209ot1RMtfC/FdPViW8oQke4LgojdMj1kTyCXikLs+PXwo0lUkPAjwBzyo9Q5cT/97//VbLZR5BQ0YuRZgCJyCETKG4YPHiwOuecc+IWQ34IlJSAaaHBtP2SwsZYAQH8bwESDhgigNARDnwYoaNhw4Zq0aJF4QykODV+LcWdR9UTSYA5lchuMVKpMWPGqMMPPzyQbYQOG9Pq1avV5ptvruTRqKihf//+6tZbb42anXwQMEbAtNBg2r4x8BiuIoD/ZSAkhQBCR7ieWL58uVp//fUDZdpyyy3VzJkzA6Uth0T4tXLoRdqQJALMqST1htm6vPrqq6pr166BKnHooYeq5557LlBap0Sp3l42u0GyIKksdhM1LFy4UDVu3Dhq9rLIJ+uciMomn0cccYSSR1UJySdgWmgwbT/5PVT+NcT/FqePn3zySbV48eKcwrfddlu111575RzjxxoCCB3hRsK0adPU9ttvHyjTrrvuqt57771AacslEX7NvydFLFuwYIH67rvvqj5lHZf69esreQKoUaNGSnYwlLXvCBAQAswp73GwbNkyNX/+fPXjjz9W/f38889V6yJtuummqmXLlqpZs2ZqnXXW8S4kBbEfffSR2mmnnQLVtF27duqTTz4JlNYxkf3oYlmEefPmWXbnW3YjI/0NGjSoLDhEaYStslqPPfaYZZ+Q1rKzJ1uUoshjgMCJJ564tt/cxr/tOItWM9P2i9YwCg5MAP8bGFXghE888YTjvO7Tp0/gMiotYfY5zMkXbrLJJpWGxLO9zzzzjOMYc2J3yCGHeJZVjpH4tcJeXbVqlTV+/Hjr3HPPtex/vHzHT40aNawdd9zROvvss62pU6cWFsiRiiLAnMrtbnvdI+utt96yrrzySqtDhw6WfYPZc07J/7ktWrSwjjvuuKp5aN+Yzi0wJb9sgdS3rZnzUN26dWO1SsXKnbDM9vs+ngMkA83pc7vttktYa4pfHZkg9h1Dy75DWMANoaP4/HVZMC00mLaviyPlxCOA/43HLzu3/RqmZd8RLfDLcu5C6MgmlfsdoSOXh9+v2267zXGMOV0jXX/99X7FlWU8fm1Nt9p3mC17DTtrww03DDxmnMbRgQceaNmPrZflWKFRwQgwpyxLBMNhw4ZZrVu3jjWfNttsM2vAgAFWMW9mBuvV8Kns1yEDt/2HH34Ib+B/OcpK6HjhhRcCQ3NywJMmTYoMMk0ZReB46qmnLPtxIFdeCB3p6VHTQoNp++npqfKuKf5XT/+Kf7bfXXX1zQgd7pwROtzZOMXIP65O10JOx959912nIsr+WKX7td9//9264YYbLPt1lMBjxWn85B/bZZddqm60lf0AooEFBCp9Tj3++OPWFltsoXU+bbDBBtbIkSMLWCf5gL3IaGAG77zzTuSmlJXQIa9gtGrVKjC4fMfbu3fvyCDTklEeVW3fvr0vI4SOtPSoZZkWGkzbT09PlXdN8b96+tdeFNvTPyN0uHNG6HBnkx+zYsUKy37v23OsZa6R5J9cecS6EkMl+7W333470OspmXES5VMewRcxhVA5BCp1TsnrGvJ/ZpR5EjTPGWecYf3222+pGEwjRowIzEJe7Ykaykro+Pbbb6169eoFBpc/cOwFk6wlS5ZEZZnofPaKtdbOO+8cmA1CR6K7M6dypoUG0/ZzYPDDGAH8b3z0H3/8sVWrVi1PP43Q4c4ZocOdTX6Mn6CWfX107LHH5mevmN+V6tdGjRpl1a5d29MXZY+RON9lbYLvv/++YsZUpTe0EufUZ599ZtmLZZdkPh1wwAGWiElJD/bCxYF9jL07mCWvz0UJZSN0/PLLL5assxHH2Ureu+++OwrHxOYZN26cZa+WHpoLQkdiu7SgYqaFBtP2C4BwoOQE8L/xkctdzSDnMIQOd9YIHe5ssmPkho69y1yg6wJZTPLzzz/Pzl4x3yvVr8naLX6LIsa91s7PLwubTp8+vWLGVqU2tBLnlIzroP42f15E/X3JJZekYojJEyhB29ivX79IbSoLoWPlypWe7zQHhSjp7O1uIoFMWqaXXnrJ2n333QMPoHxGCB1J61H3+pgWGkzbdydDTCkI4H/1UD7vvPMC+WuEDnfeCB3ubLJjzj///EBjTa4LZLeMSgyV6tdkPY7868FS/ZZ1C+QuL6E8CVTinBKRuEmTJr5zSgTlrbfe2jrooIOsE044wTr44IMdN4oIMxdls4mkB3lKo0GDBr58pN3rrruu9dVXX4VuUlkIHSeddFIgSEEHyJQpU0KDTEoG2fZrzz33jM0DoSMpPepfD9NCg2n7/oRIUUwC+N/4dEWYrlatWiC/jdDhzhuhw52NxMjjzGEWIG3evLm1cOFC70LLNLYS/dqYMWNK/iRH/nV5z549y3RE0axKm1OyJofXriqyY8p//vMfa+bMmVW7sDiNkO+++84aOnSo1axZs0DXB9nzSdZgSsPaSrI4qwg92XV3+y5bxH/00UdOqFyPpV7ouPrqqwPBcYPmdFwepUlbeO2116y9995bGwuEjvSMANNCg2n76emp8qsp/jd+n/7000+hLmIQOtyZI3S4s5EF6o488sjA1wiysPvXX3/tXmAZx1SiX/v0008917hbZ511rG7dulmyzbDcUJP0sg22jBHZEUEWuv9//+//VT0VHVS0dbr+lmPDhw8v49FVmU2rxDl15plnOvpbEThEvJAnXIIGeeVHygs7t0aPHh3UhNF0shNP3bp1HXnl+wlZi1NuDgUNqRY6Hn744UBQ8iH5/ZYVxtP0j37+omKymJ08/nTPPfdUnYzmzJljCaugg0j4pKn9QQd7uaYzLTSYtl+u/Zr0duF/9fRQmC3WxDcjdLhzR+hwZiOL3MqCj37XPpn4rbbaypLrhkoMlejXZEtrt/EhAoc8BTRr1qzAw0HuQl900UWWLPCfGVNhPmXhwR9++CGwPRImm0AlzqlXXnnFcexfddVVoQSO/J596623Qm1NK1vVpyVMnjw58FomNWvWtAYPHhzoiZXUCh1vvPFG1fs6YZxnmLQPPPBAWsaGdcUVV1RNKFmTQ5RwN5EizFY+bmWkBkoFVdS00GDafgV1dWKaiv/V0xUPPvig48WQ17kKocOdPUJHLhsRK+R976ALS8ouG7KNnzxyXYmhUv2a27WhPPr+5ptvRh4KspOKjD8vf+YWd+ONN0a2S8bkEKjUOeW0CYQs8qsjfPDBB4Ff9ZD5FXW3Eh11DVuGrGmy3377BfYZcs6Xp8m8QiqFji+++MJq2LChJwg5YXu9G+XmXDPHRTRIS5g6daolf35BVvUPuv0uQocfzeTEmxYaTNtPTk9URk3wv3r6Wd7LlTuXmXNO0E+EDnf+CB1r2CxevNiSBUf9tirOjLkNNtjAOuuss6zZs2e7wy3zmEr1ayJqtWjRosAPyVM98mSGjjBo0KBQ/5jJuBT78qQJIb0EKnVOPffccznzSV43uffee7V2pAjSGf/t9/nuu+9qtV2KwmQ7XjknBX0TQdamlKddnELqhA55n1kcoFfHyqAaOXKk9d5773mm8ypD4j755BMnZqk+1r59+0BMEDrS082mhQbT9tPTU+mvKf5XTx+uWrXK6tixY44vlvPWueeem3PM6RyF0OHeBwgda9jIBV/Q1wZEDHn77bfdoVZATCX7NfkHLN/PyCK0ukWvUaNGhV5fYMKECRUw+sqziZU8p3bZZZe1c0rO6/Lqju7wxx9/WNtvv/1aO/lzOPv3Y489ptt8ScqTHZhuuummQG2U9u6xxx6O9UqV0CEdG2TBzezHg2S72OwOD/NdLjrLLey///6BeCB0pKfnTQsNpu2np6fSXVP8r77+u+aaawr8sJxv8u8EOZ2vEDrc+wGh42828tqAPNVRp06dgrHmNK7kjphsRygiXCWFSvdru+22W874kNec4ryu4jV2wi5IyQ4sXjSTG1fJc0rWmcj2r3379i1aR4kQmG3L7fu//vWvotWhGAXLTl9hnuaQnViGDBniuvZJqoSOIFsT9evXL4e7bN3j1vl+xzfccENLXvcop3DEEUcE4oHQkZ5eNy00mLafnp5Kd03xv3r6T3YoyN9KrW3btpbsioHQEY8xQkchP3n94LzzzrPkdV6/ax6J32KLLazp06cXFlSmRyrZr02bNq1gTFx44YVF62l5FaVz584FNt3G5bbbblu0ulBw8QhU8pw69dRT145vefugmOsdydax8n+q2/zJHO/fv3/xOltjybL9uQgWQdokbWvUqJF18803V107eVUjNUKHKFKZTnP77NGjR9U+8dkN/vXXXwOvS+FUrizSVE4BoaOcenNNW0wLDabtl1+PJq9F+F89fSLno/xXL2X1cFlcTAJCRzzOCB3u/KZMmWLJnS+n65z8Yw0aNLAq4bWBSvdr8g9Qdt+LyLVixQr3QaQhZtKkSTk2s+3nf5f38wnpIlDJc0petcisKSFPRk2cOLHonSf/9+bPm/zf8gRp0oM8BXTYYYf5tiXTNnkSLejOTKkQOmRFVXnPKdNAp09531nuiDkFeQTGKU+QY/KqTDkFhI5y6s01bTEtNJi2X349mqwW4X/19Uf23Z7M+UcuDDMBoSNDItonQoc3t2+//dZq165doOshEeCK8W65dw1LF4tfswpE10cffbQkHXDggQcGGoPiI+UxdkI6CFT6nBo6dOjacS1P0ZUiiJ3MtYTbpzwlkeQgIsehhx7q245M+w4//PBQT8okXuiQ3UT8VqbfeuutPZ2h7CGfARTlU7a7KZeA0FEuPfl3O0wLDabt/02Cb7oJ4H/1EX3qqacKzkN77bVXzlOICB3xeCN0+POTu45hXh9I60J2XiTwa5Y1a9asHH+0ww47lGyXkyeeeCLHttd1+fvvv+/VlcQlhABzyrJef/11S56wEP/qduNdd3cNGDDAdy6NHTtWt1mt5TndAHLzCWeffXbONVOQiiRa6JDFtFq1auXZiRtttJEl2/T5hfwV7t0gOh0v5juLfvXWHY/QoZuo+fJMCw2m7ZvvgfKsAf5XX7/Onz+/6n3S7POLbPUt/2xkB4SObBrhvyN0BGMm10zyxEb2eHT7Lq+7iDhSLgG/tqYn89evk7vxpQqLFi2y5NF+tzGXffzZZ58tVbWwE5EAcyoiOA3ZLrjgAs95JOuBJdl/y4MIQX2BnN9lXZKwIbFCh6hh+atBZzs/+S6riQfdH3j48OGegyG/7OzfIqbIozXlEBA6yqEXc9tgWmgwbT+XBr90EMD/6qC4pgxZgK9bt24F55+HHnqowAhCRwGSUAcQOoLjkjtj2dc5Xt/T8I53kJbj1/6mdNRRR63tf1k3SBYCLGXwu77PjMdx48aVslrYCkmAORUSmObkxx133Np5nJkz2Z/77LOPZot6iwu6E6i06emnn45kPJFCh1wYHnPMMZ6dJwrQ6NGjAzdaJmPQlVyzB0nmu2y7Vg4BoaMcejG3DaaFBtP2c2nwKy4B/G9cgrn577jjjoJzmfyT4RQQOpyoBD+G0BGcldyFzSycl7nOcfvccsstgxec0JT4tdyOyb4eHjx4cG5kCX716tWrwC86jT9ZvJSQTALMKfP94rfmUpKfiJLXnZzmvNOxDh06RIadSKHjsssu8218FMccZNEWJ8BybL/99osMOUkZETqS1Bt66mJaaDBtXw9FSskQwP9mSMT/lO0b87f1lFcBfvrpJ8fCETocsQQ+iNARGFVVwt69e/tea2WuiSZPnhyu8ISlxq/ldsi///1vq3v37lWL0y5btiw3sgS/5JXwzNjy+pwxY0YJaoOJKASYU1Go6cszZ84czzkURxzQV0v3km677TbP+mf7hVGjRrkX5BOTOKFDHufNbpzTd3knKUoQh+lUXpBjsutL/vvUUepgOg9Ch+ke0G/ftNBg2r5+opVbIv5XX9/LNo2ywF/++eWFF15wNYLQ4YomUARCRyBMaxMF2QoyM37lH+O0Bvxa8nruhhtuKPCNmbGW+ZTrbtmSm5A8Aswp833i9LRoZu7IDZakL+QbZjvZOIJnooSOV1991XeBrH/84x+xVoYOs9p4ZsBkPkW9THtA6Eh7DxbW37TQYNp+IRGORCGA/41CzT2P0yJhsi6CV0Do8KLjH4fQ4c8oO8Xjjz/u+89m5vrnpJNOys6amu/4tWR21cCBA33HXuvWrZNZ+QqvFXPK/ABYtWqVJfMj45/zP4cNG2a+kh41kEVFGzRo4Fr/7PaI4Pn77797lOYdlRihQ9Sa7HcGsxuZ+d6pUydL7pLFCWFO7Bm7mc9mzZpZMrjSHBA60tx7znU3LTSYtu9MhaNhCOB/w9DyTzt+/HhLTs6Zc4d8tmnTxnfLOYQOf7ZeKRA6vOgUxr333ns5YzR7vOZ/32mnnQoLSPgR/FpyOyjIq+THHntschtQoTVjTiWj44cOHerquy+++OJkVNKjFvPmzXOtf/65p3nz5h4l+UclQuj48ccfrS222MKz0XKRKFtSxQ2ye8rGG2/saSsfcvbvUm7BFbetTvkROpyopPuYaaHBtP1095752uN/9faBnKdatGiRc46RrTynTJniawihwxeRZwKEDk88BZGyVkz29Y3X9yZNmhTkT/IB/FqSe8eyevbs6Tv2oqzFl+xWp7t2zKlk9J9cY8g//07+Wp6USkOQ9cuc6u90TB5yiBOMCx2yG8ruu+/u2WA5wepcH+PSSy/1tOcEOnPskEMOicPbeF6EDuNdoL0CpoUG0/a1A62gAvG/+jtbXq/MnC8yn9ddd10gQwgdgTC5JkLocEXjGCG7JmTGqN+n7NCSloBfS35P+e0WIU/EyV1fQjIIMKeS0Q/yVkHXrl0L/LbsRHrPPfcko5IBavHmm28WtMHtHOS2S10AM1VJjAodsm939l7eTo2Uk6vuBVW+/vrrgseKnWw7HVtnnXWsuXPnBuWbuHQIHYnrktgVMi00mLYfG2CFFoD/1d/xw4cPLzh577nnnpa8jxokIHQEoeSeBqHDnY1TTBihQ/7xlPRJD/i1pPeQZS1fvtySa2mna+zMMbkBSkgGAeZUMvpBatGnT5+CeSM7ucm6KWkKsu1tZq77faZa6Ojfv79nQ8URjh07tih9d+CBB3ra9gI/YMCAotSpFIUidJSCcmltmBYaTNsvLe3ysYb/1duX8tRh/fr1c84r9erVs0RYDxoQOoKSck6H0OHMxe1oGKFDronSsAMGfs2tt5Nz/K233srxk07X23feeWdyKlzhNWFOmR8AK1eutJyuteV/WXmlKG1BFkt1mvdOx1IrdIgTc2pQ9rF77723aH03evRoX/vZdcn+3qpVK0sUzjQGhI409pp3nZ2cX/Z4le/z58/3LiRGrGn7MapesVnxv3q7Xp7YkCc38ufdAw88EMoQQkcoXAWJEToKkHgeCCt0LFmyxLM805H4NdM9EMz+VVddVeArs32nbEyQBlEtWGvTnYo5Zb7/fv75Z8fXVWTOdOzY0ZK1I9PwtF02Sa/FVLN9gXxPpdDx1FNPWfI+UX5jsn/LOhrFDHJh6raYS3Y93L6PGzeumNUrWtkIHUVDa6xg00KDafvGwKfUMP5Xf8fJGhz554ojjzwytCGEjtDIcjIgdOTg8P1RTkIHfs23uxOToG3btgX+Mtt/Fvv6PzEgEl4R5pT5Dho5cqTVtGlTz/kic0fOfWPGjDFf4YA1uP/++33blPEJqRM6Jk6caNWuXduzgccff3xJ1Kmrr77asx4ZyE6fUS5iA/Z/UZMhdBQVr5HCTQsNpu0bgZ5So/hf/R03efJkq0aNGjnnErkwWbhwYWhjCB2hkeVkQOjIweH7o1yEDvyab1cnJsFnn32W4yvzr6/XW289a8GCBYmpb6VWhDlltudlnhx++OGecyV/7sjvLl26WDNnzjRb+QDWy1bomD59utWwYUPPjuvcubMlW8CWIsiion4LIjkNJDkmF7bfffddKaqp1QZCh1aciSjMtNBg2n4iOiEFlcD/6u+kZcuWWa1bty44pz3//PORjCF0RMK2NhNCx1oUgb6Ug9CBXwvU1YlJdMUVVxT4y+zr7GuuuSYxda3UijCnzPW83DiR/9Nk8efseRHmu6wN9thjj5lrRADLZSl0zJ4922rWrJlnx2277bbW4sWLAyDSlySKYpYZcDfccIO+ipSoJISOEoEuoRnTQoNp+yVEnVpT+N/idN3pp59ecE4766yzIhtD6IiMriojQkc4fmkXOvBr4frbdOrff//d2mijjQp8ZuaaumXLlpZsY0owR4A5VXr2sh7NQw89ZHXq1Ml1bmTmSJjPQYMGlb4xAS2WndDx/fffW1tttZVnB8r2ON98801ARPqSvfDCC5718hpU0ia5UEhTQOhIU28Fq6tpocG0/WCUKjcV/rc4fS8LgOWfH7bZZpuqrROjWkToiEpuTT6EjnD80ix04NfC9XUSUvstQPjEE08YrabsbDFjxoyqxR0HDx5c9c/niy++aMlikJUQmFOl7eU33njD6t27t7X++usXXEvkX1tE/X333XeXtlEBrZWV0CFPaOywww6enSid/OGHHwbEozeZLErauHFjz/p5DbAJEyborVCRS0PoKDJgA8WbFhpM2zeAPDUm8b/F6Sp5bTH/zqS8zvjee+/FMojQEQtf1YJsXudruaFC+JtAWoUO/NrffZiWbzLWvBYhjbvgYBwOspvQlVde6foPp7xGsPPOO1uPPvpoandc9OPDnPIjpDdexpzXuUpX3LrrrmtNmTJFb+U1lFY2Qsfy5csdt9zL78D77rtPA7boRZxyyimRB9zRRx8d3bCBnAgdBqAX2aRpocG0/SLjTW3x+N/idd3BBx9ccM4YOHBgbIMIHfEQ8kRHOH5pFDrwa+H6OCmpH3nkkQKfmflfQATIn376yUhVZWeRRo0audYtU8fMpzy1J366nAJzqvS9uXTpUqtu3bpVm3PUrFnTdyfSzPiL8rnllltaYi9JoSyEDnnP7oADDvB1Hvvuu69x9kEuLt0GlyxmauKVm6jQEDqikktuPtNCg2n7ye0ZczXD/xaP/V133VVwXpO97OXpwLghyLmoT58+cc2UbX6EjnBdmzahA78Wrn+TklrW5mjVqlWB38xcV8sr5CbC1KlTLdnlJVOPoJ/Vq1e3hg0bZqLK2m0yp7QjjVygbMTxww8/WF9++aX16quvWvLayamnnmqJEBh0bLql69evX+R6FSNj6oUOUQdFwHADnjkuatasWbOKwTBUmStWrPDd8jZTZ6fPiy66KJQ9k4kROkzSL45t00KDafvFoZreUvG/xeu7Tz/91KpTp07OuU1evdS1nRtCR7y+Q+gIxy9NQgd+LVzfJin1TTfdlOMzs6+jL774YiNVlVc15E53dl3CfJfXWe69914jdddllDmli2RxyxE/LWKg3zIQXuNX/t9etGhRcSsaovRUCx2yeuzee+8dyHlcddVVIbAUN6nfBZLXANpggw1KvltMVBoIHVHJJTefaaHBtP3k9kzpa4b/LR5zuduy4447FpzbZIE9XQGhIx5Jv/M4a3Tk8k2L0IFfy+23NP1asGCB1aBBgwK/KdfU3bp1M7bmhfz/4XVdHzQubev0ZcYOcypDIj2fq1evtkaMGOH5dJTXuL3uuusS09jUCh2//PKLtcceewR2Hl999VVioB900EGB6+00kC677LLEtMWrIggdXnTSGWdaaDBtP529pr/W+F/9TLNLvOSSSwrOEbI9uc6A0BGPJkJHOH5pEDrwa+H6NGmpDzvssAK/KdfQsmuhPFVhKngtjOp0je92rE2bNpbs1pKmwJxKU28V1lXeQrj++ustearIbVw6HW/atGlidgotpdBRTRDaQGKHr7/+WnXv3l199tlngcpq3ry5mjdvXqC0pUhkL0iq7H2MI5uyHwtSn3/+uWrRokXkMkqR8cgjj1T2toi+ppYtW6akTYQ1BCZPnqxsMcsYDnuFZmW/5uVo3378UNknWse4zEHpS3v15cxPrZ9x7Ddp0kQ1a9ZMa33CFNazZ08lcz/tAf9bXP/7+uuvq65duyr7H8O1Q0XG7rRp05S9+8raY3G/jB07Vtn/GHgWY6/RoYYMGeKZplIj7X9elL09pGvz7Sc6lH2H2TW+0iLk8s9ebyBws+U8VL9+/cDp4ybErxXXr8XtH7/89gKkyr4RUpDMfsJDTZo0Scl8NRFWrVqlatWqpTT9+6NGjhyp7I0JTDQltE3mVLrnVHaH33nnncpeeyP7kO/3jz/+WNmvwPimK3aCBx54QJ122mmBzNg7MqlRo0YFSuuYSISOuEEWTQmzarFdEWvrrbeOa1ZrfrkzJ/WK89elSxdjj+EFhcETHUFJ5aZ7/vnnY42NOOOKvPHmpRe/vfbaK7ejU/gL/7tmfBTL/8pdx5YtWxbMf3n6QnfgiY54RHmiIxy/JD/RgV8rrl8LN1LCp5YtuBs2bFjgN2vXrm298cYb4QvUmGPu3LkF9fK6TvCLk1dw0hCYU+meU05j7Nprrw01lgcNGuRUTMmPlfKJDlE0IwdZZf6WW26xatSoEQq0OA3ZrcR+aiCybd0Z/S6Q/BxdJr5v376JeTTIiRFChxMV/2MIHcUTGzJzx8RnmoUO/G/hmCyG/z3uuOMKzm9nnHGGv9OIkAKhIwK0rCx+53HW6MiCZX9NotCBXyuNX8sdCXp/yXpGnTp1KvCbct3/9NNP6zUWobQvvviioG5xrj/kfyDZvSSpgTmV/jnlNbZkQ4yg41f+B0xCSIXQ8eGHH1q77LJLYLhOnfDggw8mgbf18ssvx2pHftuOPfZY68cff0xE2/IrgdCRTyTYb4SOwhNF/rhP4++0Ch34X/fxqNP/ysJf+eO6devWRRPpETqC+WO3VAgdbmScjydN6MCvlcavOY8GfUft10EL/Kb40fvuu0+fkRglyU3WfL8e9/fbb78do0bFy8qcKo855TdCOnToEGhMyzbPSQiJFjo++OAD66STTqp6IiOuYxB11+Re1CJG3HDDDbG2lnVjUK9ePevSSy+1pkyZkoQxtbYOCB1rUYT6gtDhfrJwmwNpOJ42oQP/G2wc6vC/c+bMKdgtQO7c2ev1hPIdYRIjdIShVZgWoaOQideRpAgd+LXS+TWv8aAj7rbbbnP8h0uutZMU7DWWHOsZ9bpl8ODBSWqexZwqnzkVZGA9++yzgcbzeuutF6S4oqcppdDhuxip3Vr10UcfKXsLpapFLGUBId1hm222UQcffLCydz5R9grGyl4ZVtWsWVOLGVl0yBY0qv6+/fZbNXv2bGU/tqZsAULJoiz2I11a7HgVIgug2U+/qPbt26vttttObb755lV/jRs39spWlDgWI42Gddy4ceqQQw6JlplciSVgCx1q4sSJia0f/jd+10Txv8K9c+fO6s0338ypgCysd8011+Qc0/nDfoda/fOf//QsUs6Td911l2caiZRFJjfbbDPfdOWUgMVIw/WmjHMTi5Hi18L1k1PqKH7NqRydx1588UV16KGHKnsbzJxiL7/8cmVvbZlzzPSPCy+8UN16663aqnHllVeqgQMHaisvbEHMqbDECtMncU4V1tL5iPT/9ttvr6ZPn+6cIOuo/ZqVqlOnTtaR0n9N1GKkuvaatjEGUpsy6ewVkau2n1q4cKHdf9GC7chC2czYLtVnjx49ojUsRi6e6IgGjyc6ws3fUs2huHaS/kQH/rd4487L/8o75nHHVhLyy12TSgo80RGut0090YFfM+PXwo2OcKntHRcLnoATH2jvChGuoBKllgVJN9xwQ21+/txzzy1RzZ3NMKfKb04597T7UXuXo0Dj2b7p715IiWJK+USH72KkV1xxRSBwxbqos5+6iIz9nHPOMVp3Pya28h25bVEzInREI4fQUbyTiN88KWZ80oUO/G/xxp2X/y0XocPehjaaw0tpLoSOcB1nSujAr5nxa+FGR/DUixYtqroxmX+utrePTPTi/G+99ZZVt25dLf8nXHDBBcGBFSElc6q85lSUISKLzjZv3tx3PH/66adRiteaB6Ej6+mPOEKH/aicb4fnO+ZS/j711FO1DpwghSF0BKFUmEbWWinl2MBW8U5a2WwROrw5V6r/Rego9IFpOILQEa6XEDrC8ZLUXFfmMrNfD7f23Xffguuj448/3rJfYclNnMBf9uvs1mGHHRZ73cGzzz7baOvSLHQwp/QNHbmBk32N6/R91qxZ+gxGLKmUQofvGh02JEIZEWCNjjLqTJoCAQgUhcDKlSuV/fpkUcouZaH2Ex2qT58+pTRp1BZrdITDb1+jGlmjI1wtSZ1UAjJ+7M0JlL07VU4V7RtqauTIkcpevDnneJJ/2K/Jq9GjR6vXX39dfffdd+qHH35Qch6wX2+pWl9P1hK0F4suWLcp06ZbbrlF2U91ZH7yCQEjBPr3769uv/12T9sy1k2sEZldqVKu0YHQkU2+Ar4jdFRAJ9NECEAgFgGEjlj4jGVG6AiHHqEjHC9S5xKwXw9XIqZmh27duqkxY8aoddddN/twWXyXRRxlwcqlS5cWtEdEEhF4CBAwSeCee+7xvLkh4qOMY10bfkRtK0JHVHLk8yWA0OGLiAQQgECFE0DoSOcAQOgI128IHeF4kfpvApdddpmyt4z9+4D9be+991ay84rpHR1yKqX5h+ygaG/dWlDqJ598otq1a1dwnAMQKCWBV155RR1wwAGuJmWMylg1HRA6TPdAGdtH6CjjzqVpEICAFgLlInTcfffd6qyzztLCJA2FIHSE6yWEjnC8SL2GwE033aQuvfTSHBy77babGj9+vKpXr17O8XL6Ya9po+rXr6+WL1+e0yx7AUj1zTffqHXWWSfnOD8gUGoCX3zxhWrTpo2r2V69eqnhw4e7xpcqAqGjVKQr0A5CRwV2Ok2GAARCEZB/AF977bVQeXQk/uqrr9SZZ57pWVT37t2VvWWjZxqJrF69uurYsWNZrDXi29j/JUDoCEpqTTqEjnC8SK2U06Px22+/fdXaFrKeRTkHe3FuteOOOxY0UZ5uuf766wuOcwACpSYwderUqjVl3OzK+h3nnXeeW3TJjiN0lAx15RlC6Ki8PqfFEIBAOgi4XUhn114WF81/Lz47vpK/I3SE632EjnC8Kj31o48+quSOsDzZkAmySOebb76pNt5448yhsv10WpNEGisC9VZbbVW27aZh6SHg9+qKzNVOnToZbxBCh/EuKN8KIHSUb9/SMghAIN0EEDri9R9CR3h+sruQvKoVJCxZsqTq0f0gaUlTXgRkgdGjjjpK/fnnn2sbtvnmm6uJEycqeXWjFOGpp55SL730kjrttNOUvCpTyiC7sIiYsWzZshyzXbt2rXplJ+cgPyBgiMBDDz2kTjnlFEfrLVq0UHPmzEnEK1ZhhI7jjjtO/fe//3VsU5CD7LoShFIZpUHoKKPOpCkQgEBZEUDoiNedCB3h+ckuEt9//32gjIsWLVINGzYMlJZE5UNgwoQJ6pBDDlF//PHH2kaJuCEih4gdpQgLFixQ2267rfrll1/U0UcfXbV9bSnsZmz885//VPfff3/mZ9WnrMkxZcoUz1cFcjLwAwJFJtC7d281bNgwRytXXXWVGjBggGNcqQ8OHTpUnX766YHMyjpjst5Y1IDQEZVcSvMhdKS046g2BCBQ9gQQOuJ1MUJHeH777rtv4PVo3n//fSW7ThAqh8C7776r9t9//5wnGeQ1lTfeeMNz0UOdhOQVq4MPPrhqRxcp95lnnlGHH364ThOeZcnj/l26dMl5ZUcynHvuuerOO+/0zEskBEpJYNNNN1Xz5s0rMClrds2ePVu1bNmyIM7EgSuuuCLwujaDBg0KtC6ZWzsQOtzIlOlxhI4y7ViaBQEIpJ4AQke8LkToCM+vb9++avDgwYEyPvLII6pnz56B0pIo/QRkG8rOnTurxYsXr22MLDgqCzXvsMMOa48V+8vNN9+sLrnkkiozpd7hRJ5iat++fcE/j02aNFGyw0WDBg2K3XzKh0AgAjJf3ealPJE1duzYQOWUItExxxyjRo0aFciU7OYkr4hFDQgdUcmlNB9CR0o7jmpDAAJlTwChI14XI3SE5zdu3Liq1xKC5JS7cNdee22QpKRJOQFZYFMWLZS1KTJBto6VfzpKuT7GiBEjlDyOv3r16qpqlPLx+1WrVlXNDVngMTvI3XGZN926dcs+zHcIGCVw8sknO24dK+swyW4ssnBwUoLs1DRt2jTf6tSpU0ctXLhQ1a1b1zetWwKEDjcyZXpcHveTRaX8giy4FGdg+ZVPPAQgAAEI5BJA6MjlEfYXQkdYYur/t3enoXKVZxzAX4NNxaWN0YpSbdO6VP0iGMSlYr6ISGltKCkWU22htaKmoNLiGiyWJor2U41goEsstOkSY5WotRSkFpdq9YsbIWpTl5QiuMQNEafnHRrJMveZyZ07957nzu9AMHeeMzPP/J5749z/nPOe7kKk9dPpuvZBv61+Cvf73/++327qyQVefPHFcuqpp5Z///vfH72S+gvHvffeW0477bSPbhv1X+rCinXh0W1XeZnOw+/rc9ZFEHt9v9cjTH74wx+O+uV7fAIDC9Sf2cMPP7zUcG7n7brrrivLly/f+eYZ+7r+bNXfL997772+PdQFkAc98mOiBxN0TCQzS2+v5xnef//9fV+doKMvkR0IECAwpQKCjuE4BR2T86ur9NdfKvtt9aoT9ZN+2+wV+O9//9s9kmPjxo0fvci5c+d2PyCbriMY6qkx9XSquhZHXZ9j2zZdh9/Xo0cuuOCCUq8MsfM27BUgdn48XxOYCoFzzjmn/Pa3v93loeoCvk888UT52Mc+tkttpm6op3wdffTRAz392rVry9lnnz3QvhPtJOiYSGaW3l7PNayHMPXb6qc7zj3sp6ROgACBqRMQdAxnKeiYnN+mTZu6V7QY5DKzDz74YDn55JMn90Tu1WqB+r6vrsmx83vEenWRxYsXj6z3GmbU53711Ve7VwCqYUuvrR6N/JWvfKVXacpue/vtt7tHctx11127PObpp5/eDXzq0S02Ar0E6ofEN954Y/cD5c2bN3cX/zzxxBPLSSed1D0Naq+99up1t6Fuu+2228q3vvWtXR7jE5/4RHfR4Pp7X5u2H/3oRwNd/aWealNPbxk2pBF0tGn6I+6lHtI0b9688s477/R9pieffLL7xqfvjnYgQIAAgSkREHQMxyjomLzfD37wg/LTn/607wN85zvf2eUym33vZIfWC9Rf8OvVVR566KFW9nrooYeWf/3rX6WGLqPatmzZ0g1S/vnPf+7yFGeccUb505/+VEbxi+ouT+aGlALvvvtuWbhwYXnmmWd69l9PEbzssstKXQB6qr6PaihZ19LZunXrDs+59957l/vuu6988Ytf3OH2mf6inrZSL0m9/WlxE/VUw8Yvf/nLE5UHv71JUm1jItD8D6weAzjQn2Z13jFR8TIJECDQDoHmENO+/z5fdNFF7Wi2hV0cc8wxod8hhxzSwq7b0VJzZY3OgQceGPrV9w/NaQyd5vSVdjStiykRaM6V7zRHK/Sd/aDvH0ex37XXXjslr3WiB2lCjM6nPvWpngZnnnlmp/kldqK7up1AV6BZu6Xn98/OPw+f/exnO7/73e+GVmuOrus0H17v8pzN4qOdJuQY+vFH8QDN0Se79LuzT/26/ns0VVs9/802JgLNirwDfYPVb7IbbrhhTFS8TAIECLRDQNAx3BwEHcP5/f3vf+80nwT2fZ/QrJUw3BO5d2sEmiN9O81pKX1n3uuXkem6rTmKo9MstjgSs+ZUg873vve9CV//97///U41shHoJ7BkyZIJv496/aw0ayZ2nnrqqX4P27P+q1/9qtMs6LnL8x100EGdZtHgnveZ6RvffPPNTv2woZfF9rd95jOf6TRHfExZu4KOKaNs9wP99a9/7dT/WWz/zRT9fd999530D2C7JXRHgACBdgoIOoabi6BjOL967/omuR61Eb0/qLVm8dLhn8wjzKhAcxh559xzz+07637fC6OuN4evj8zp6quv7vn6689AsxjpyJ7XA88+gbPOOqvn91L089GsP9FZtmxZpzktayCQ+h6hufJRz+f52te+1mnWtxnocWZip2aB3559b+9Tg5pmsdIpbU/QMaWc7XuwZj2OTrMwzkBvXLb/Zqt/P+qoozr/+Mc/2veidESAAIFZKCDoGG6ogo7h/Lbd+w9/+EPfD0bqG/S//OUv2+7ivwkFLr744r6/eOz8vnAmvm7O1R+Zbq9/c5t1FjrN2gcje04PPDsFbrrppkn/PNUPousRITVAfuGFFzrNwtCd5uo/nVdeeaXzyCOPdK6//vpOs6hoz8evp6/8+te/bjXqIDb1dTTrlE3567AYafOv9mzY6uI3daXquuJvXbm6rvZbF7ZrjuQozeFCQ73EusBbXWW9Xg7o4IMPLs15jKWuOl0X06mr+dZLj9kIECBAYDgBi5EO52cx0uH8tr/3Y4891r3E5uOPP779zTv8va7q37zBLs0nmTvc7ov2C1x11VVl5cqVrW/0sMMOK80vfiNdhPRLX/pSueeee8oBBxxQrrjiinLppZeO9Plaj67BSQnUSzLX34nqoqRTse2xxx71YIQJH2q//fYrzZIE5fLLLy+f/vSnJ9xvpgu33HJLaY5aCV/LokWLyq233lrqlVamehN0TLXoDD1eXVm3XvZturfnnnuufP7zn5/up/V8BAgQmHUCgo7hRiroGM5v53s3nyiWn/3sZ2X58uXdD1F2rm/7ur6JrZdUnKorCWx7XP8djcDLL79c6lVMMmz1UpTNQqQjbbVewrK+f/7mN79ZmnUPRvpcHnx2CzSn/pWvfvWrZZBLdU9WooYB9d/ceknZGna0dauXjD7//PPLH//4xwlbrOFic7RH97XUYGcUm6BjFKoz8JjNuVll/fr10/7Mzz//fPdSQdP+xJ6QAAECs0zgpZdeKgsWLCj1F8yJtuaqK2XVqlUTlcf6dkHHaMZfvy/rL5vNlQJKvQxpr62+YT3vvPNKs7Bj9+jPXvu4rR0Cb7zxRvfo3OZqK+1oaIIu6qVk69HJbf60eoLW3TzGAn/729+6RwVFR8PtLk89sqlZm6M0a+qUeqnjUYUCu9tXr/2bq3KV1atXl2bB1O4ZBr32qWcF1GBxxYoVpbnaV69dpuw2QceUUXogAgQIECBAYKYEBB2jld+6dWs37LjzzjtLfTNff2HutTXnWpfmEordD0Fm4gOYXj25jQABAtMlUE85adYwKrfffnvZsGFDqWHx7myHH354N9iop3TUgONzn/vc7tx9WvetSyfcfPPNpVlQtXua2bPPPtvzNJW6zMFJJ51UvvGNb5RzzjmnfPKTn5yWPgUd08LsSQgQIECAAIFRCjSLK5bmMpQTPsX+++9f1qxZM2FdYXCBetRR/cSynm5VP8HbtGlT941uXROsHvVR/9TAo7lM4OAPak8CBAjMQoHXXnut1ECgHqFUA+P6px5R1VzhsrvuYV37cNufeoTDxz/+8TQK69atK81Cqh/1O2fOnDJ//vxyxBFHdP8ceeSR5ZRTTil1iYV6JMd0b4KO6Rb3fAQIECBAgAABAgQIECBAILFADbXrRTDq+jb1z0yEGRGfoCPSUSNAgAABAgQIECBAgAABAgRSCQg6Uo1LswQIECBAgAABAgQIECBAgEAkIOiIdNQIECBAgAABAgQIECBAgACBVAKCjlTj0iwBAgQIECBAgAABAgQIECAQCQg6Ih01AgQIECBAgAABAgQIECBAIJWAoCPVuDRLgAABAgQIECBAgAABAgQIRAKCjkhHjQABAgQIECBAgAABAgQIEEglIOhINS7NEiBAgAABAgQIECBAgAABApGAoCPSUSNAgAABAgQIECBAgAABAgRSCQg6Uo1LswQIECBAgAABAgQIECBAgEAkIOiIdNQIECBAgAABAgQIECBAgACBVAKCjlTj0iwBAgQIECBAgAABAgQIECAQCQg6Ih01AgQIECBAgAABAgQIECBAIJWAoCPVuDRLgAABAgQIECBAgAABAgQIRAKCjkhHjQABAgQIECBAgAABAgQIEEglIOhINS7NEiBAgAABAgQIECBAgAABApGAoCPSUSNAgAABAgQIECBAgAABAgRSCQg6Uo1LswQIECBAgAABAgQIECBAgEAkIOiIdNQIECBAgAABAgQIECBAgACBVAKCjlTj0iwBAgQIECBAgAABAgQIECAQCQg6Ih01AgQIECBAgAABAgQIECBAIJWAoCPVuDRLgAABAgQIECBAgAABAgQIRAKCjkhHjQABAgQIECBAgAABAgQIEEglIOhINS7NEiBAgAABAgQIECBAgAABApGAoCPSUSNAgAABAgQIECBAgAABAgRSCQg6Uo1LswQIECBAgAABAgQIECBAgEAkIOiIdNQIECBAgAABAgQIECBAgACBVAKCjlTj0iwBAgQIECBAgAABAgQIECAQCQg6Ih01AgQIECBAgAABAgQIECBAIJWAoCPVuDRLgAABAgQIECBAgAABAgQIRAKCjkhHjQABAgQIECBAgAABAgQIEEglIOhINS7NEiBAgAABAgQIECBAgAABApGAoCPSUSNAgAABAgQIECBAgAABAgRSCQg6Uo1LswQIECBAgAABAgQIECBAgEAkIOiIdNQIECBAgAABAgQIECBAgACBVAKCjlTj0iwBAgQIECBAgAABAgQIECAQCQg6Ih01AgQIECBAgAABAgQIECBAIJWAoCPVuDRLgAABAgQIECBAgAABAgQIRAKCjkhHjQABAgQIECBAgAABAgQIEEglIOhINS7NEiBAgAABAgQIECBAgAABApGAoCPSUSNAgAABAgQIECBAgAABAgRSCQg6Uo1LswQIECBAgAABAgQIECBAgEAkIOiIdNQIECBAgAABAgQIECBAgACBVAKCjlTj0iwBAgQIECBAgAABAgQIECAQCQg6Ih01AgQIECBAgAABAgQIECBAIJWAoCPVuDRLgAABAgQIECBAgAABAgQIRAKCjkhHjQABAgQIECBAgAABAgQIEEglIOhINS7NEiBAgAABAgQIECBAgAABApGAoCPSUSNAgAABAgQIECBAgAABAgRSCQg6Uo1LswQIECBAgAABAgQIECBAgEAkIOiIdNQIECBAgAABAgQIECBAgACBVAKCjlTj0iwBAgQIECBAgAABAgQIECAQCQg6Ih01AgQIECBAgAABAgQIECBAIJWAoCPVuDRLgAABAgQIECBAgAABAgQIRAKCjkhHjQABAgQIECBAgAABAgQIEEglIOhINS7NEiBAgAABAgQIECBAgAABApGAoCPSUSNAgAABAgQIECBAgAABAgRSCQg6Uo1LswQIECBAgAABAgQIECBAgEAkIOiIdNQIECBAgAABAgQIECBAgACBVAKCjlTj0iwBAgQIECBAgAABAgQIECAQCQg6Ih01AgQIECBAgAABAgQIwKh45wAAE4lJREFUECBAIJWAoCPVuDRLgAABAgQIECBAgAABAgQIRAKCjkhHjQABAgQIECBAgAABAgQIEEglIOhINS7NEiBAgAABAgQIECBAgAABApGAoCPSUSNAgAABAgQIECBAgAABAgRSCQg6Uo1LswQIECBAgAABAgQIECBAgEAkIOiIdNQIECBAgAABAgQIECBAgACBVAKCjlTj0iwBAgQIECBAgAABAgQIECAQCQg6Ih01AgQIECBAgAABAgQIECBAIJWAoCPVuDRLgAABAgQIECBAgAABAgQIRAKCjkhHjQABAgQIECBAgAABAgQIEEglIOhINS7NEiBAgAABAgQIECBAgAABApGAoCPSUSNAgAABAgQIECBAgAABAgRSCQg6Uo1LswQIECBAgAABAgQIECBAgEAkIOiIdNQIECBAgAABAgQIECBAgACBVAKCjlTj0iwBAgQIECBAgAABAgQIECAQCQg6Ih01AgQIECBAgAABAgQIECBAIJWAoCPVuDRLgAABAgQIECBAgAABAgQIRAKCjkhHjQABAgQIECBAgAABAgQIEEglIOhINS7NEiBAgAABAgQIECBAgAABApGAoCPSUSNAgAABAgQIECBAgAABAgRSCQg6Uo1LswQIECBAgAABAgQIECBAgEAkIOiIdNQIECBAgAABAgQIECBAgACBVAKCjlTj0iwBAgQIECBAgAABAgQIECAQCQg6Ih01AgQIECBAgAABAgQIECBAIJWAoCPVuDRLgAABAgQIECBAgAABAgQIRAKCjkhHjQABAgQIECBAgAABAgQIEEglIOhINS7NEiBAgAABAgQIECBAgAABApGAoCPSUSNAgAABAgQIECBAgAABAgRSCQg6Uo1LswQIECBAgAABAgQIECBAgEAkIOiIdNQIECBAgAABAgQIECBAgACBVAKCjlTj0iwBAgQIECBAgAABAgQIECAQCQg6Ih01AgQIECBAgAABAgQIECBAIJWAoCPVuDRLgAABAgQIECBAgAABAgQIRAKCjkhHjQABAgQIECBAgAABAgQIEEglIOhINS7NEiBAgAABAgQIECBAgAABApGAoCPSUSNAgAABAgQIECBAgAABAgRSCQg6Uo1LswQIECBAgAABAgQIECBAgEAkIOiIdNQIECBAgAABAgQIECBAgACBVAKCjlTj0iwBAgQIECBAgAABAgQIECAQCQg6Ih01AgQIECBAgAABAgQIECBAIJWAoCPVuDRLgAABAgQIECBAgAABAgQIRAKCjkhHjQABAgQIECBAgAABAgQIEEglIOhINS7NEiBAgAABAgQIECBAgAABApGAoCPSUSNAgAABAgQIECBAgAABAgRSCQg6Uo1LswQIECBAgAABAgQIECBAgEAkIOiIdNQIECBAgAABAgQIECBAgACBVAKCjlTj0iwBAgQIECBAgAABAgQIECAQCQg6Ih01AgQIECBAgAABAgQIECBAIJWAoCPVuDRLgAABAgQIECBAgAABAgQIRAKCjkhHjQABAgQIECBAgAABAgQIEEglIOhINS7NEiBAgAABAgQIECBAgAABApGAoCPSUSNAgAABAgQIECBAgAABAgRSCQg6Uo1LswQIECBAgAABAgQIECBAgEAkIOiIdNQIECBAgAABAgQIECBAgACBVAKCjlTj0iwBAgQIECBAgAABAgQIECAQCQg6Ih01AgQIECBAgAABAgQIECBAIJWAoCPVuDRLgAABAgQIECBAgAABAgQIRAKCjkhHjQABAgQIECBAgAABAgQIEEglIOhINS7NEiBAgAABAgQIECBAgAABApGAoCPSUSNAgAABAgQIECBAgAABAgRSCQg6Uo1LswQIECBAgAABAgQIECBAgEAkIOiIdNQIECBAgAABAgQIECBAgACBVAKCjlTj0iwBAgQIECBAgAABAgQIECAQCQg6Ih01AgQIECBAgAABAgQIECBAIJWAoCPVuDRLgAABAgQIECBAgAABAgQIRAKCjkhHjQABAgQIECBAgAABAgQIEEglIOhINS7NEiBAgAABAgQIECBAgAABApGAoCPSUSNAgAABAgQIECBAgAABAgRSCQg6Uo1LswQIECBAgAABAgQIECBAgEAkIOiIdNQIECBAgAABAgQIECBAgACBVAKCjlTj0iwBAgQIECBAgAABAgQIECAQCQg6Ih01AgQIECBAgAABAgQIECBAIJWAoCPVuDRLgAABAgQIECBAgAABAgQIRAKCjkhHjQABAgQIECBAgAABAgQIEEglIOhINS7NEiBAgAABAgQIECBAgAABApGAoCPSUSNAgAABAgQIECBAgAABAgRSCQg6Uo1LswQIECBAgAABAgQIECBAgEAkIOiIdNQIECBAgAABAgQIECBAgACBVAKCjlTj0iwBAgQIECBAgAABAgQIECAQCQg6Ih01AgQIECBAgAABAgQIECBAIJWAoCPVuDRLgAABAgQIECBAgAABAgQIRAKCjkhHjQABAgQIECBAgAABAgQIEEglIOhINS7NEiBAgAABAgQIECBAgAABApGAoCPSUSNAgAABAgQIECBAgAABAgRSCQg6Uo1LswQIECBAgAABAgQIECBAgEAkIOiIdNQIECBAgAABAgQIECBAgACBVAKCjlTj0iwBAgQIECBAgAABAgQIECAQCQg6Ih01AgQIECBAgAABAgQIECBAIJWAoCPVuDRLgAABAgQIECBAgAABAgQIRAKCjkhHjQABAgQIECBAgAABAgQIEEglIOhINS7NEiBAgAABAgQIECBAgAABApGAoCPSUSNAgAABAgQIECBAgAABAgRSCQg6Uo1LswQIECBAgAABAgQIECBAgEAkIOiIdNQIECBAgAABAgQIECBAgACBVAKCjlTj0iwBAgQIECBAgAABAgQIECAQCQg6Ih01AgQIECBAgAABAgQIECBAIJWAoCPVuDRLgAABAgQIECBAgAABAgQIRAKCjkhHjQABAgQIECBAgAABAgQIEEglIOhINS7NEiBAgAABAgQIECBAgAABApGAoCPSUSNAgAABAgQIECBAgAABAgRSCQg6Uo1LswQIECBAgAABAgQIECBAgEAkIOiIdNQIECBAgAABAgQIECBAgACBVAKCjlTj0iwBAgQIECBAgAABAgQIECAQCQg6Ih01AgQIECBAgAABAgQIECBAIJWAoCPVuDRLgAABAgQIECBAgAABAgQIRAKCjkhHjQABAgQIECBAgAABAgQIEEglIOhINS7NEiBAgAABAgQIECBAgAABApGAoCPSUSNAgAABAgQIECBAgAABAgRSCQg6Uo1LswQIECBAgAABAgQIECBAgEAkIOiIdNQIECBAgAABAgQIECBAgACBVAKCjlTj0iwBAgQIECBAgAABAgQIECAQCQg6Ih01AgQIECBAgAABAgQIECBAIJWAoCPVuDRLgAABAgQIECBAgAABAgQIRAKCjkhHjQABAgQIECBAgAABAgQIEEglIOhINS7NEiBAgAABAgQIECBAgAABApGAoCPSUSNAgAABAgQIECBAgAABAgRSCQg6Uo1LswQIECBAgAABAgQIECBAgEAkIOiIdNQIECBAgAABAgQIECBAgACBVAKCjlTj0iwBAgQIECBAgAABAgQIECAQCQg6Ih01AgQIECBAgAABAgQIECBAIJWAoCPVuDRLgAABAgQIECBAgAABAgQIRAKCjkhHjQABAgQIECBAgAABAgQIEEglIOhINS7NEiBAgAABAgQIECBAgAABApGAoCPSUSNAgAABAgQIECBAgAABAgRSCQg6Uo1LswQIECBAgAABAgQIECBAgEAkIOiIdNQIECBAgAABAgQIECBAgACBVAKCjlTj0iwBAgQIECBAgAABAgQIECAQCQg6Ih01AgQIECBAgAABAgQIECBAIJWAoCPVuDRLgAABAgQIECBAgAABAgQIRAKCjkhHjQABAgQIECBAgAABAgQIEEglIOhINS7NEiBAgAABAgQIECBAgAABApGAoCPSUSNAgAABAgQIECBAgAABAgRSCQg6Uo1LswQIECBAgAABAgQIECBAgEAkIOiIdNQIECBAgAABAgQIECBAgACBVAKCjlTj0iwBAgQIECBAgAABAgQIECAQCQg6Ih01AgQIECBAgAABAgQIECBAIJWAoCPVuDRLgAABAgQIECBAgAABAgQIRAKCjkhHjQABAgQIECBAgAABAgQIEEglIOhINS7NEiBAgAABAgQIECBAgAABApGAoCPSUSNAgAABAgQIECBAgAABAgRSCQg6Uo1LswQIECBAgAABAgQIECBAgEAkIOiIdNQIECBAgAABAgQIECBAgACBVAKCjlTj0iwBAgQIECBAgAABAgQIECAQCQg6Ih01AgQIECBAgAABAgQIECBAIJWAoCPVuDRLgAABAgQIECBAgAABAgQIRAKCjkhHjQABAgQIECBAgAABAgQIEEglIOhINS7NEiBAgAABAgQIECBAgAABApGAoCPSUSNAgAABAgQIECBAgAABAgRSCQg6Uo1LswQIECBAgAABAgQIECBAgEAkIOiIdNQIECBAgAABAgQIECBAgACBVAKCjlTj0iwBAgQIECBAgAABAgQIECAQCQg6Ih01AgQIECBAgAABAgQIECBAIJWAoCPVuDRLgAABAgQIECBAgAABAgQIRAKCjkhHjQABAgQIECBAgAABAgQIEEglIOhINS7NEiBAgAABAgQIECBAgAABApGAoCPSUSNAgAABAgQIECBAgAABAgRSCQg6Uo1LswQIECBAgAABAgQIECBAgEAkIOjoofP666+XrVu3lkMPPbTssccePfaY/pva1lPb+pn+iXhGAgQIECBAgAABAgQIEGijgKDj/1PZsGFD+c1vflMeffTRsmnTptLpdMo+++xTjj322LJ06dJy4YUXlrlz507rDNvWU9v6mdZheDICBAgQIECAAAECBAgQSCEw9kFHPXLjkksuKb/4xS/CgS1YsKCsWbOmnHbaaeF+U1FsW09t62cqjD0GAQIECBAgQIAAAQIECMxOgbEOOt56662ycOHCsnHjxoGmO2/evPLwww+XL3zhCwPtP5md2tZT2/qZjKn7ECBAgAABAgQIECBAgMD4CIx10LFs2bKyatWq3Zr2EUccUR555JEyf/783brfoDu3rae29TOoo/0IECBAgAABAgQIECBAYDwFxjboeOCBB8qiRYu6a3Hs7ugXL15c1q9fv7t367t/23pqWz99Ae1AgAABAgQIECBAgAABAmMvMLZBx3e/+93y85//fFLfAHPmzCmbN2/uXpVlUg8wwZ3a1lPb+pmAzc0ECBAgQIAAAQIECBAgQOAjgbENOo4//vjyxBNPfASxu39ZvXp1Of/883f3buH+beupbf2EeIoECBAgQIAAAQIECBAgQKARGMug4/333y/77bdfqf+d7HbllVeWFStWTPbuu9yvbT21rZ9dwNxAgAABAgQIECBAgAABAgR6CIxl0FFPO6mXix1mW758ebnuuuuGeYgd7tu2ntrWzw5YviBAgAABAgQIECBAgAABAhMIjGXQ8e6775Z99tlnUguRbnO85ppryo9//ONtXw7937b11LZ+hgb2AAQIECBAgAABAgQIECAwFgJjGXTUyR5yyCHlP//5z6SH/Mtf/rJ8+9vfnvT9e92xbT21rZ9eZm4jQIAAAQIECBAgQIAAAQLbC4xt0HHBBReUuqDoZLa5c+eWLVu2lPnz50/m7hPep209ta2fCeEUCBAgQIAAAQIECBAgQIDA/wXGNuh48skny8KFCye1IOkVV1xRVq5cOeXfRG3rqW39TDm4ByRAgAABAgQIECBAgACBWScwtkFHneQdd9xRvv71r5cPPvhg4MEuXry4rFu3rsyZM2fg++zOjm3rqW397I6lfQkQIECAAAECBAgQIEBg/ATGOuio4167dm1ZunRp+fDDD/tOf9GiReXuu+8ue++9d999h9mhbT21rZ9hbN2XAAECBAgQIECAAAECBGa3wNgHHXW8DzzwQPnJT35S/vznP/ec9pFHHllWrFhRlixZ0rM+ihvb1lPb+hmFucckQIAAAQIECBAgQIAAgfwCgo7tZvj000+Xhx9+uDz77LPlvffeK8cee2w57rjjygknnFD23HPP7facvr+2rae29TN9k/BMBAgQIECAAAECBAgQIJBBQNCRYUp6JECAAAECBAgQIECAAAECBAYSEHQMxGQnAgQIECBAgAABAgQIECBAIIOAoCPDlPRIgAABAgQIECBAgAABAgQIDCQg6BiIyU4ECBAgQIAAAQIECBAgQIBABgFBR4Yp6ZEAAQIECBAgQIAAAQIECBAYSEDQMRCTnQgQIECAAAECBAgQIECAAIEMAoKODFPSIwECBAgQIECAAAECBAgQIDCQgKBjICY7ESBAgAABAgQIECBAgAABAhkEBB0ZpqRHAgQIECBAgAABAgQIECBAYCABQcdATHYiQIAAAQIECBAgQIAAAQIEMggIOjJMSY8ECBAgQIAAAQIECBAgQIDAQAKCjoGY7ESAAAECBAgQIECAAAECBAhkEBB0ZJiSHgkQIECAAAECBAgQIECAAIGBBAQdAzHZiQABAgQIECBAgAABAgQIEMggIOjIMCU9EiBAgAABAgQIECBAgAABAgMJ/A/jCjGs/8lq7gAAAABJRU5ErkJggg==;" parent="1" vertex="1">
          <mxGeometry x="-33" y="419" width="197.7" height="213.73" as="geometry" />
        </mxCell>
        <mxCell id="TqFhUypoWMyye-5qDEuy-62" value="&lt;font size=&quot;1&quot; style=&quot;&quot; face=&quot;Times New Roman&quot;&gt;&lt;span style=&quot;font-size: 26px;&quot;&gt;Statistical independencies&lt;/span&gt;&lt;/font&gt;" style="swimlane;fontStyle=0;childLayout=stackLayout;horizontal=1;startSize=70;horizontalStack=0;resizeParent=1;resizeParentMax=0;resizeLast=0;collapsible=1;marginBottom=0;whiteSpace=wrap;html=1;rounded=1;" parent="1" vertex="1">
          <mxGeometry x="-40" y="342" width="210" height="300" as="geometry" />
        </mxCell>
        <mxCell id="nFdvp77oTlpr-loI89Ck-17" value="" style="endArrow=classic;html=1;strokeWidth=3;fontFamily=Times New Roman;fontSize=23;curved=1;" parent="1" edge="1">
          <mxGeometry width="50" height="50" relative="1" as="geometry">
            <mxPoint x="670" y="520" as="sourcePoint" />
            <mxPoint x="910" y="190" as="targetPoint" />
          </mxGeometry>
        </mxCell>
        <mxCell id="nFdvp77oTlpr-loI89Ck-45" value="represents&lt;br&gt;features&lt;br&gt;common to" style="text;html=1;align=center;verticalAlign=middle;resizable=0;points=[];autosize=1;strokeColor=none;fillColor=none;fontSize=26;fontFamily=Times New Roman;" parent="1" vertex="1">
          <mxGeometry x="730" y="437" width="140" height="110" as="geometry" />
        </mxCell>
        <mxCell id="nFdvp77oTlpr-loI89Ck-47" value="" style="group" parent="1" vertex="1" connectable="0">
          <mxGeometry x="910" y="51" width="270" height="850" as="geometry" />
        </mxCell>
        <mxCell id="nFdvp77oTlpr-loI89Ck-15" value="&lt;font style=&quot;font-size: 26px;&quot;&gt;&lt;font style=&quot;font-size: 26px;&quot; face=&quot;Times New Roman&quot;&gt;Markov eq&lt;/font&gt;&lt;font style=&quot;font-size: 26px;&quot; face=&quot;Times New Roman&quot;&gt;uivalence&lt;br&gt;class of DMGs&lt;br&gt;&lt;/font&gt;&lt;/font&gt;" style="swimlane;fontStyle=0;childLayout=stackLayout;horizontal=1;startSize=70;horizontalStack=0;resizeParent=1;resizeParentMax=0;resizeLast=0;collapsible=1;marginBottom=0;whiteSpace=wrap;html=1;rounded=1;arcSize=17;" parent="nFdvp77oTlpr-loI89Ck-47" vertex="1">
          <mxGeometry y="31" width="270" height="790" as="geometry" />
        </mxCell>
        <mxCell id="nFdvp77oTlpr-loI89Ck-16" value="" style="endArrow=none;dashed=1;html=1;strokeWidth=4;rounded=0;dashPattern=1 2;" parent="nFdvp77oTlpr-loI89Ck-15" edge="1">
          <mxGeometry width="50" height="50" relative="1" as="geometry">
            <mxPoint x="138.3800000000001" y="722.75" as="sourcePoint" />
            <mxPoint x="138.3800000000001" y="758.1666666666666" as="targetPoint" />
          </mxGeometry>
        </mxCell>
        <mxCell id="kI--cs1PVj4nP42d70bh-3" value="" style="group" parent="nFdvp77oTlpr-loI89Ck-47" vertex="1" connectable="0">
          <mxGeometry x="51" y="145.35" width="184" height="583.65" as="geometry" />
        </mxCell>
        <mxCell id="kI--cs1PVj4nP42d70bh-6" value="" style="group;strokeWidth=2;" parent="kI--cs1PVj4nP42d70bh-3" vertex="1" connectable="0">
          <mxGeometry y="197.65" width="170" height="173.35" as="geometry" />
        </mxCell>
        <mxCell id="kI--cs1PVj4nP42d70bh-7" value="&lt;font face=&quot;Times New Roman&quot; style=&quot;font-size: 20px;&quot;&gt;&lt;b&gt;X&lt;sub&gt;1&lt;/sub&gt;&lt;/b&gt;&lt;/font&gt;" style="ellipse;whiteSpace=wrap;html=1;aspect=fixed;strokeWidth=2;" parent="kI--cs1PVj4nP42d70bh-6" vertex="1">
          <mxGeometry width="47.77867736989887" height="47.77867736989887" as="geometry" />
        </mxCell>
        <mxCell id="kI--cs1PVj4nP42d70bh-8" value="&lt;font face=&quot;Times New Roman&quot; style=&quot;font-size: 20px;&quot;&gt;&lt;b&gt;X&lt;sub&gt;2&lt;/sub&gt;&lt;/b&gt;&lt;/font&gt;" style="ellipse;whiteSpace=wrap;html=1;aspect=fixed;strokeWidth=2;" parent="kI--cs1PVj4nP42d70bh-6" vertex="1">
          <mxGeometry y="114.83692954859374" width="47.77867736989887" height="47.77867736989887" as="geometry" />
        </mxCell>
        <mxCell id="kI--cs1PVj4nP42d70bh-9" value="" style="endArrow=classic;html=1;rounded=0;entryX=0.5;entryY=0;entryDx=0;entryDy=0;exitX=0.5;exitY=1;exitDx=0;exitDy=0;strokeWidth=2;" parent="kI--cs1PVj4nP42d70bh-6" source="kI--cs1PVj4nP42d70bh-7" target="kI--cs1PVj4nP42d70bh-8" edge="1">
          <mxGeometry width="50" height="50" relative="1" as="geometry">
            <mxPoint x="97.14285714285712" y="51.038635354930555" as="sourcePoint" />
            <mxPoint x="157.85714285714283" y="-12.759658838732639" as="targetPoint" />
          </mxGeometry>
        </mxCell>
        <mxCell id="kI--cs1PVj4nP42d70bh-10" value="&lt;font face=&quot;Times New Roman&quot; style=&quot;font-size: 20px;&quot;&gt;&lt;b&gt;X&lt;sub&gt;4&lt;/sub&gt;&lt;/b&gt;&lt;/font&gt;" style="ellipse;whiteSpace=wrap;html=1;aspect=fixed;strokeWidth=2;" parent="kI--cs1PVj4nP42d70bh-6" vertex="1">
          <mxGeometry x="121.42857142857142" width="47.77867736989887" height="47.77867736989887" as="geometry" />
        </mxCell>
        <mxCell id="kI--cs1PVj4nP42d70bh-11" value="&lt;font face=&quot;Times New Roman&quot; style=&quot;font-size: 20px;&quot;&gt;&lt;b&gt;X&lt;sub&gt;3&lt;/sub&gt;&lt;/b&gt;&lt;/font&gt;" style="ellipse;whiteSpace=wrap;html=1;aspect=fixed;strokeWidth=2;" parent="kI--cs1PVj4nP42d70bh-6" vertex="1">
          <mxGeometry x="121.42857142857142" y="114.83692954859374" width="47.77867736989887" height="47.77867736989887" as="geometry" />
        </mxCell>
        <mxCell id="kI--cs1PVj4nP42d70bh-12" value="" style="endArrow=classic;html=1;rounded=0;entryX=0.5;entryY=0;entryDx=0;entryDy=0;exitX=0.5;exitY=1;exitDx=0;exitDy=0;strokeWidth=2;" parent="kI--cs1PVj4nP42d70bh-6" source="kI--cs1PVj4nP42d70bh-10" target="kI--cs1PVj4nP42d70bh-11" edge="1">
          <mxGeometry width="50" height="50" relative="1" as="geometry">
            <mxPoint x="218.57142857142856" y="51.038635354930555" as="sourcePoint" />
            <mxPoint x="279.2857142857143" y="-12.759658838732639" as="targetPoint" />
          </mxGeometry>
        </mxCell>
        <mxCell id="kI--cs1PVj4nP42d70bh-13" value="" style="endArrow=classic;html=1;exitX=1;exitY=0;exitDx=0;exitDy=0;entryX=0;entryY=0;entryDx=0;entryDy=0;curved=1;strokeWidth=2;" parent="kI--cs1PVj4nP42d70bh-6" source="kI--cs1PVj4nP42d70bh-8" target="kI--cs1PVj4nP42d70bh-11" edge="1">
          <mxGeometry width="50" height="50" relative="1" as="geometry">
            <mxPoint x="157.85714285714283" y="204.15454141972222" as="sourcePoint" />
            <mxPoint x="218.57142857142856" y="140.35624722605903" as="targetPoint" />
            <Array as="points">
              <mxPoint x="85" y="102.07727070986111" />
            </Array>
          </mxGeometry>
        </mxCell>
        <mxCell id="kI--cs1PVj4nP42d70bh-14" value="" style="endArrow=classic;html=1;exitX=0;exitY=1;exitDx=0;exitDy=0;curved=1;entryX=1;entryY=1;entryDx=0;entryDy=0;strokeWidth=2;" parent="kI--cs1PVj4nP42d70bh-6" source="kI--cs1PVj4nP42d70bh-11" target="kI--cs1PVj4nP42d70bh-8" edge="1">
          <mxGeometry width="50" height="50" relative="1" as="geometry">
            <mxPoint x="135.6574067426123" y="153.11590606479166" as="sourcePoint" />
            <mxPoint x="48.57142857142856" y="153.11590606479166" as="targetPoint" />
            <Array as="points">
              <mxPoint x="92.11571428571429" y="173.35000000000002" />
            </Array>
          </mxGeometry>
        </mxCell>
        <mxCell id="kI--cs1PVj4nP42d70bh-17" value="" style="group;strokeWidth=2;" parent="kI--cs1PVj4nP42d70bh-3" vertex="1" connectable="0">
          <mxGeometry x="1" y="410.29999999999995" width="170" height="173.35" as="geometry" />
        </mxCell>
        <mxCell id="kI--cs1PVj4nP42d70bh-18" value="&lt;font face=&quot;Times New Roman&quot; style=&quot;font-size: 20px;&quot;&gt;&lt;b&gt;X&lt;sub&gt;1&lt;/sub&gt;&lt;/b&gt;&lt;/font&gt;" style="ellipse;whiteSpace=wrap;html=1;aspect=fixed;strokeWidth=2;" parent="kI--cs1PVj4nP42d70bh-17" vertex="1">
          <mxGeometry width="47.77867736989887" height="47.77867736989887" as="geometry" />
        </mxCell>
        <mxCell id="kI--cs1PVj4nP42d70bh-19" value="&lt;font face=&quot;Times New Roman&quot; style=&quot;font-size: 20px;&quot;&gt;&lt;b&gt;X&lt;sub&gt;2&lt;/sub&gt;&lt;/b&gt;&lt;/font&gt;" style="ellipse;whiteSpace=wrap;html=1;aspect=fixed;strokeWidth=2;" parent="kI--cs1PVj4nP42d70bh-17" vertex="1">
          <mxGeometry y="114.83692954859374" width="47.77867736989887" height="47.77867736989887" as="geometry" />
        </mxCell>
        <mxCell id="kI--cs1PVj4nP42d70bh-20" value="" style="endArrow=classic;html=1;rounded=0;entryX=0.5;entryY=0;entryDx=0;entryDy=0;exitX=0.5;exitY=1;exitDx=0;exitDy=0;strokeWidth=2;startArrow=classic;startFill=1;" parent="kI--cs1PVj4nP42d70bh-17" source="kI--cs1PVj4nP42d70bh-18" target="kI--cs1PVj4nP42d70bh-19" edge="1">
          <mxGeometry width="50" height="50" relative="1" as="geometry">
            <mxPoint x="97.14285714285712" y="51.038635354930555" as="sourcePoint" />
            <mxPoint x="157.85714285714283" y="-12.759658838732639" as="targetPoint" />
          </mxGeometry>
        </mxCell>
        <mxCell id="kI--cs1PVj4nP42d70bh-21" value="&lt;font face=&quot;Times New Roman&quot; style=&quot;font-size: 20px;&quot;&gt;&lt;b&gt;X&lt;sub&gt;4&lt;/sub&gt;&lt;/b&gt;&lt;/font&gt;" style="ellipse;whiteSpace=wrap;html=1;aspect=fixed;strokeWidth=2;" parent="kI--cs1PVj4nP42d70bh-17" vertex="1">
          <mxGeometry x="121.42857142857142" width="47.77867736989887" height="47.77867736989887" as="geometry" />
        </mxCell>
        <mxCell id="kI--cs1PVj4nP42d70bh-22" value="&lt;font style=&quot;font-size: 20px;&quot;&gt;X&lt;sub&gt;3&lt;/sub&gt;&lt;/font&gt;" style="ellipse;whiteSpace=wrap;html=1;aspect=fixed;strokeWidth=2;" parent="kI--cs1PVj4nP42d70bh-17" vertex="1">
          <mxGeometry x="121.42857142857142" y="114.83692954859374" width="47.77867736989887" height="47.77867736989887" as="geometry" />
        </mxCell>
        <mxCell id="kI--cs1PVj4nP42d70bh-23" value="" style="endArrow=classic;html=1;rounded=0;entryX=0.5;entryY=0;entryDx=0;entryDy=0;exitX=0.5;exitY=1;exitDx=0;exitDy=0;strokeWidth=2;startArrow=classic;startFill=1;" parent="kI--cs1PVj4nP42d70bh-17" source="kI--cs1PVj4nP42d70bh-21" target="kI--cs1PVj4nP42d70bh-22" edge="1">
          <mxGeometry width="50" height="50" relative="1" as="geometry">
            <mxPoint x="218.57142857142856" y="51.038635354930555" as="sourcePoint" />
            <mxPoint x="279.2857142857143" y="-12.759658838732639" as="targetPoint" />
          </mxGeometry>
        </mxCell>
        <mxCell id="kI--cs1PVj4nP42d70bh-29" value="" style="endArrow=classic;html=1;rounded=0;strokeWidth=2;startArrow=classic;startFill=1;entryX=0.389;entryY=0.108;entryDx=0;entryDy=0;entryPerimeter=0;exitX=1;exitY=1;exitDx=0;exitDy=0;" parent="kI--cs1PVj4nP42d70bh-17" source="kI--cs1PVj4nP42d70bh-18" edge="1">
          <mxGeometry width="50" height="50" relative="1" as="geometry">
            <mxPoint x="50" y="30" as="sourcePoint" />
            <mxPoint x="138.01447692546208" y="117.9970267045428" as="targetPoint" />
          </mxGeometry>
        </mxCell>
        <mxCell id="pjVKC6ALOTj4ipLNCLnS-3" style="edgeStyle=orthogonalEdgeStyle;curved=1;orthogonalLoop=1;jettySize=auto;html=1;exitX=1;exitY=0.5;exitDx=0;exitDy=0;entryX=0;entryY=0.5;entryDx=0;entryDy=0;strokeWidth=2;fontSize=20;startArrow=classic;startFill=1;endArrow=classic;endFill=1;" parent="kI--cs1PVj4nP42d70bh-17" edge="1">
          <mxGeometry relative="1" as="geometry">
            <mxPoint x="48.5" y="138.06000000000006" as="sourcePoint" />
            <mxPoint x="121.5" y="138.06000000000006" as="targetPoint" />
          </mxGeometry>
        </mxCell>
        <mxCell id="khOaxSQKZ1TxVCO9J_kJ-6" value="" style="endArrow=classic;html=1;rounded=0;strokeWidth=2;entryX=1;entryY=0;entryDx=0;entryDy=0;exitX=0;exitY=1;exitDx=0;exitDy=0;startArrow=classic;startFill=1;" parent="kI--cs1PVj4nP42d70bh-17" edge="1">
          <mxGeometry width="50" height="50" relative="1" as="geometry">
            <mxPoint x="127.5" y="40.33000000000004" as="sourcePoint" />
            <mxPoint x="36.496719779265504" y="117.83203237487749" as="targetPoint" />
          </mxGeometry>
        </mxCell>
        <mxCell id="kI--cs1PVj4nP42d70bh-33" value="" style="group;strokeWidth=2;" parent="kI--cs1PVj4nP42d70bh-3" vertex="1" connectable="0">
          <mxGeometry width="170" height="173.35" as="geometry" />
        </mxCell>
        <mxCell id="kI--cs1PVj4nP42d70bh-34" value="&lt;font face=&quot;Times New Roman&quot; style=&quot;font-size: 20px;&quot;&gt;&lt;b&gt;X&lt;sub&gt;1&lt;/sub&gt;&lt;/b&gt;&lt;/font&gt;" style="ellipse;whiteSpace=wrap;html=1;aspect=fixed;strokeWidth=2;" parent="kI--cs1PVj4nP42d70bh-33" vertex="1">
          <mxGeometry width="47.77867736989887" height="47.77867736989887" as="geometry" />
        </mxCell>
        <mxCell id="kI--cs1PVj4nP42d70bh-35" value="&lt;font face=&quot;Times New Roman&quot; style=&quot;font-size: 20px;&quot;&gt;&lt;b&gt;X&lt;sub&gt;2&lt;/sub&gt;&lt;/b&gt;&lt;/font&gt;" style="ellipse;whiteSpace=wrap;html=1;aspect=fixed;strokeWidth=2;" parent="kI--cs1PVj4nP42d70bh-33" vertex="1">
          <mxGeometry y="114.83692954859374" width="47.77867736989887" height="47.77867736989887" as="geometry" />
        </mxCell>
        <mxCell id="kI--cs1PVj4nP42d70bh-36" value="" style="endArrow=classic;html=1;rounded=0;entryX=0.5;entryY=0;entryDx=0;entryDy=0;exitX=0.5;exitY=1;exitDx=0;exitDy=0;strokeWidth=2;startArrow=classic;startFill=1;" parent="kI--cs1PVj4nP42d70bh-33" source="kI--cs1PVj4nP42d70bh-34" target="kI--cs1PVj4nP42d70bh-35" edge="1">
          <mxGeometry width="50" height="50" relative="1" as="geometry">
            <mxPoint x="97.14285714285712" y="51.038635354930555" as="sourcePoint" />
            <mxPoint x="157.85714285714283" y="-12.759658838732639" as="targetPoint" />
          </mxGeometry>
        </mxCell>
        <mxCell id="kI--cs1PVj4nP42d70bh-37" value="&lt;font face=&quot;Times New Roman&quot; style=&quot;font-size: 20px;&quot;&gt;&lt;b&gt;X&lt;sub&gt;4&lt;/sub&gt;&lt;/b&gt;&lt;/font&gt;" style="ellipse;whiteSpace=wrap;html=1;aspect=fixed;strokeWidth=2;" parent="kI--cs1PVj4nP42d70bh-33" vertex="1">
          <mxGeometry x="121.42857142857142" width="47.77867736989887" height="47.77867736989887" as="geometry" />
        </mxCell>
        <mxCell id="kI--cs1PVj4nP42d70bh-38" value="&lt;font face=&quot;Times New Roman&quot; style=&quot;font-size: 20px;&quot;&gt;&lt;b&gt;X&lt;sub&gt;3&lt;/sub&gt;&lt;/b&gt;&lt;/font&gt;" style="ellipse;whiteSpace=wrap;html=1;aspect=fixed;strokeWidth=2;" parent="kI--cs1PVj4nP42d70bh-33" vertex="1">
          <mxGeometry x="121.42857142857142" y="114.83692954859374" width="47.77867736989887" height="47.77867736989887" as="geometry" />
        </mxCell>
        <mxCell id="kI--cs1PVj4nP42d70bh-39" value="" style="endArrow=classic;html=1;rounded=0;entryX=0.5;entryY=0;entryDx=0;entryDy=0;exitX=0.5;exitY=1;exitDx=0;exitDy=0;strokeWidth=2;" parent="kI--cs1PVj4nP42d70bh-33" source="kI--cs1PVj4nP42d70bh-37" target="kI--cs1PVj4nP42d70bh-38" edge="1">
          <mxGeometry width="50" height="50" relative="1" as="geometry">
            <mxPoint x="218.57142857142856" y="51.038635354930555" as="sourcePoint" />
            <mxPoint x="279.2857142857143" y="-12.759658838732639" as="targetPoint" />
          </mxGeometry>
        </mxCell>
        <mxCell id="kI--cs1PVj4nP42d70bh-46" value="" style="endArrow=classic;html=1;rounded=0;strokeWidth=2;exitX=1;exitY=1;exitDx=0;exitDy=0;startArrow=classic;startFill=1;" parent="kI--cs1PVj4nP42d70bh-33" source="kI--cs1PVj4nP42d70bh-34" edge="1">
          <mxGeometry width="50" height="50" relative="1" as="geometry">
            <mxPoint x="39.781652067104005" y="36.7816520671046" as="sourcePoint" />
            <mxPoint x="138" y="114.65" as="targetPoint" />
          </mxGeometry>
        </mxCell>
        <mxCell id="nFdvp77oTlpr-loI89Ck-48" value="" style="endArrow=classic;html=1;strokeWidth=3;fontFamily=Times New Roman;fontSize=23;curved=1;" parent="1" edge="1">
          <mxGeometry width="50" height="50" relative="1" as="geometry">
            <mxPoint x="670" y="520" as="sourcePoint" />
            <mxPoint x="910" y="830" as="targetPoint" />
          </mxGeometry>
        </mxCell>
        <mxCell id="TqFhUypoWMyye-5qDEuy-78" value="&lt;font style=&quot;font-size: 26px;&quot; face=&quot;Times New Roman&quot;&gt;PAG&lt;/font&gt;" style="swimlane;fontStyle=0;childLayout=stackLayout;horizontal=1;startSize=45;horizontalStack=0;resizeParent=1;resizeParentMax=0;resizeLast=0;collapsible=1;marginBottom=0;whiteSpace=wrap;html=1;rounded=1;arcSize=17;" parent="1" vertex="1">
          <mxGeometry x="390" y="335" width="280" height="330" as="geometry" />
        </mxCell>
        <mxCell id="khOaxSQKZ1TxVCO9J_kJ-4" value="" style="endArrow=classic;html=1;exitX=1;exitY=0;exitDx=0;exitDy=0;entryX=0;entryY=0;entryDx=0;entryDy=0;curved=1;strokeWidth=2;" parent="1" edge="1">
          <mxGeometry width="50" height="50" relative="1" as="geometry">
            <mxPoint x="1004" y="318" as="sourcePoint" />
            <mxPoint x="1091" y="318" as="targetPoint" />
            <Array as="points">
              <mxPoint x="1048" y="298.0772707098611" />
            </Array>
          </mxGeometry>
        </mxCell>
        <mxCell id="khOaxSQKZ1TxVCO9J_kJ-5" value="" style="endArrow=classic;html=1;exitX=0;exitY=1;exitDx=0;exitDy=0;curved=1;entryX=1;entryY=1;entryDx=0;entryDy=0;strokeWidth=2;" parent="1" edge="1">
          <mxGeometry width="50" height="50" relative="1" as="geometry">
            <mxPoint x="1089" y="353" as="sourcePoint" />
            <mxPoint x="1002" y="353" as="targetPoint" />
            <Array as="points">
              <mxPoint x="1053.1157142857144" y="370.35" />
            </Array>
          </mxGeometry>
        </mxCell>
      </root>
    </mxGraphModel>
  </diagram>
</mxfile>
